<svg width="56" height="38" viewBox="0 0 56 38" fill="none" xmlns="http://www.w3.org/2000/svg">
<path d="M24.416 32.476C22.024 35.8733 18.6787 37.572 14.38 37.572C10.0813 37.572 6.736 35.8733 4.344 32.476C1.952 29.0787 0.756 24.52 0.756 18.8C0.756 13.08 1.952 8.52133 4.344 5.124C6.736 1.72667 10.0813 0.0279987 14.38 0.0279987C18.6787 0.0279987 22.024 1.72667 24.416 5.124C26.808 8.52133 28.004 13.08 28.004 18.8C28.004 24.52 26.808 29.0787 24.416 32.476ZM6.424 30.708C8.33067 33.516 10.9827 34.92 14.38 34.92C17.7773 34.92 20.4293 33.516 22.336 30.708C24.2427 27.8653 25.196 23.896 25.196 18.8C25.196 13.704 24.2427 9.752 22.336 6.944C20.4293 4.10133 17.7773 2.68 14.38 2.68C10.9827 2.68 8.33067 4.10133 6.424 6.944C4.51733 9.752 3.564 13.704 3.564 18.8C3.564 23.896 4.51733 27.8653 6.424 30.708Z" fill="#FFDC60"/>
<path d="M32.9899 37V34.504L46.3539 20.776C50.2712 16.72 52.2299 13.288 52.2299 10.48C52.2299 8.05333 51.4672 6.14667 49.9419 4.76C48.4166 3.37333 46.5099 2.68 44.2219 2.68C40.1659 2.68 37.2712 4.51733 35.5379 8.192L33.1979 6.788C34.2726 4.604 35.7632 2.94 37.6699 1.796C39.6112 0.617332 41.7952 0.0279987 44.2219 0.0279987C47.1686 0.0279987 49.6992 0.963999 51.8139 2.836C53.9632 4.708 55.0379 7.256 55.0379 10.48C55.0379 12.56 54.4312 14.588 53.2179 16.564C52.0392 18.5053 50.3752 20.568 48.2259 22.752L36.9419 34.348H55.8699V37H32.9899Z" fill="#61E5A1"/>
</svg>
