<svg width="57" height="38" viewBox="0 0 57 38" fill="none" xmlns="http://www.w3.org/2000/svg">
<path d="M24.416 32.476C22.024 35.8733 18.6787 37.572 14.38 37.572C10.0813 37.572 6.736 35.8733 4.344 32.476C1.952 29.0787 0.756 24.52 0.756 18.8C0.756 13.08 1.952 8.52133 4.344 5.124C6.736 1.72667 10.0813 0.0279987 14.38 0.0279987C18.6787 0.0279987 22.024 1.72667 24.416 5.124C26.808 8.52133 28.004 13.08 28.004 18.8C28.004 24.52 26.808 29.0787 24.416 32.476ZM6.424 30.708C8.33067 33.516 10.9827 34.92 14.38 34.92C17.7773 34.92 20.4293 33.516 22.336 30.708C24.2427 27.8653 25.196 23.896 25.196 18.8C25.196 13.704 24.2427 9.752 22.336 6.944C20.4293 4.10133 17.7773 2.68 14.38 2.68C10.9827 2.68 8.33067 4.10133 6.424 6.944C4.51733 9.752 3.564 13.704 3.564 18.8C3.564 23.896 4.51733 27.8653 6.424 30.708Z" fill="#FFDC60"/>
<path d="M45.8339 15.732C48.8846 16.044 51.3979 17.136 53.3739 19.008C55.3499 20.88 56.3379 23.376 56.3379 26.496C56.3379 29.8933 55.1766 32.5973 52.8539 34.608C50.5312 36.584 47.6886 37.572 44.3259 37.572C41.6219 37.572 39.2299 36.9653 37.1499 35.752C35.0699 34.5387 33.5966 32.84 32.7299 30.656L35.0179 29.304C35.6766 31.1067 36.8206 32.4933 38.4499 33.464C40.0792 34.4347 42.0379 34.92 44.3259 34.92C47.0299 34.92 49.2486 34.1573 50.9819 32.632C52.7152 31.1067 53.5819 29.0613 53.5819 26.496C53.5819 23.9307 52.6979 21.8853 50.9299 20.36C49.1966 18.8347 46.9606 18.072 44.2219 18.072V18.02L44.1699 18.072H43.4419L42.2459 16.252L51.4499 3.2H33.6659V0.599998H54.6219V3.2L45.8339 15.732Z" fill="#61E5A1"/>
</svg>
