<svg width="60" height="38" viewBox="0 0 60 38" fill="none" xmlns="http://www.w3.org/2000/svg">
<path d="M24.416 32.476C22.024 35.8733 18.6787 37.572 14.38 37.572C10.0813 37.572 6.736 35.8733 4.344 32.476C1.952 29.0787 0.756 24.52 0.756 18.8C0.756 13.08 1.952 8.52133 4.344 5.124C6.736 1.72667 10.0813 0.0279987 14.38 0.0279987C18.6787 0.0279987 22.024 1.72667 24.416 5.124C26.808 8.52133 28.004 13.08 28.004 18.8C28.004 24.52 26.808 29.0787 24.416 32.476ZM6.424 30.708C8.33067 33.516 10.9827 34.92 14.38 34.92C17.7773 34.92 20.4293 33.516 22.336 30.708C24.2427 27.8653 25.196 23.896 25.196 18.8C25.196 13.704 24.2427 9.752 22.336 6.944C20.4293 4.10133 17.7773 2.68 14.38 2.68C10.9827 2.68 8.33067 4.10133 6.424 6.944C4.51733 9.752 3.564 13.704 3.564 18.8C3.564 23.896 4.51733 27.8653 6.424 30.708Z" fill="#FFDC60"/>
<path d="M59.2499 26.756V29.356H54.5699V37H51.8139V29.356H32.2099V26.756L46.0419 0.599998H49.0579L35.2779 26.756H51.8139V15.316H54.5699V26.756H59.2499Z" fill="#61E5A1"/>
</svg>
