<svg width="57" height="38" viewBox="0 0 57 38" fill="none" xmlns="http://www.w3.org/2000/svg">
<path d="M24.416 32.476C22.024 35.8733 18.6787 37.572 14.38 37.572C10.0813 37.572 6.736 35.8733 4.344 32.476C1.952 29.0787 0.756 24.52 0.756 18.8C0.756 13.08 1.952 8.52133 4.344 5.124C6.736 1.72667 10.0813 0.0279987 14.38 0.0279987C18.6787 0.0279987 22.024 1.72667 24.416 5.124C26.808 8.52133 28.004 13.08 28.004 18.8C28.004 24.52 26.808 29.0787 24.416 32.476ZM6.424 30.708C8.33067 33.516 10.9827 34.92 14.38 34.92C17.7773 34.92 20.4293 33.516 22.336 30.708C24.2427 27.8653 25.196 23.896 25.196 18.8C25.196 13.704 24.2427 9.752 22.336 6.944C20.4293 4.10133 17.7773 2.68 14.38 2.68C10.9827 2.68 8.33067 4.10133 6.424 6.944C4.51733 9.752 3.564 13.704 3.564 18.8C3.564 23.896 4.51733 27.8653 6.424 30.708Z" fill="#FFDC60"/>
<path d="M44.5859 15.42C47.9832 15.42 50.8432 16.4253 53.1659 18.436C55.5232 20.412 56.7019 23.0987 56.7019 26.496C56.7019 29.8933 55.5232 32.5973 53.1659 34.608C50.8432 36.584 47.9832 37.572 44.5859 37.572C41.9166 37.572 39.5246 36.9307 37.4099 35.648C35.3299 34.3653 33.8912 32.5627 33.0939 30.24L35.4339 28.888C36.0232 30.8293 37.1326 32.32 38.7619 33.36C40.3912 34.4 42.3326 34.92 44.5859 34.92C47.3246 34.92 49.5606 34.1573 51.2939 32.632C53.0619 31.1067 53.9459 29.0613 53.9459 26.496C53.9459 23.9307 53.0619 21.8853 51.2939 20.36C49.5606 18.8347 47.3246 18.072 44.5859 18.072H34.8619L36.1099 0.599998H55.3499V3.2H38.5539L37.7219 15.42H44.5859Z" fill="#61E5A1"/>
</svg>
