<svg width="60" height="61" viewBox="0 0 60 61" fill="none" xmlns="http://www.w3.org/2000/svg">
<path d="M45.438 6.76895C46.0298 6.76895 46.5098 7.24894 46.5098 7.84082C46.5098 8.43269 46.0297 8.9127 45.4378 8.9127C44.8456 8.9127 44.3627 8.43234 44.3627 7.84082C44.3627 7.24857 44.8398 6.76895 45.4313 6.76895H45.438Z" fill="#61E5A1" stroke="white" stroke-width="0.2"/>
<path d="M51.7627 6.76895C52.3546 6.76895 52.8346 7.24894 52.8346 7.84082C52.8346 8.43269 52.3545 8.9127 51.7626 8.9127C51.1703 8.9127 50.6874 8.43234 50.6874 7.84082C50.6874 7.24857 51.1645 6.76895 51.756 6.76895H51.7627Z" fill="#61E5A1" stroke="white" stroke-width="0.2"/>
<path d="M39.1133 6.76895C39.7051 6.76895 40.1851 7.24894 40.1851 7.84082C40.1851 8.43269 39.705 8.9127 39.1131 8.9127C38.5209 8.9127 38.038 8.43234 38.038 7.84082C38.038 7.24857 38.5151 6.76895 39.1066 6.76895H39.1133Z" fill="#61E5A1" stroke="white" stroke-width="0.2"/>
<path d="M8.23389 8.9127C7.6419 8.9127 7.16201 8.43271 7.16201 7.84082C7.16201 7.24882 7.64189 6.76895 8.23389 6.76895H25.8427C26.4347 6.76895 26.9146 7.24893 26.9146 7.84082C26.9146 8.43271 26.4347 8.9127 25.8427 8.9127H8.23389Z" fill="#61E5A1" stroke="white" stroke-width="0.2"/>
<path d="M19.558 0.6H56.2405C58.2582 0.6 59.9 2.24179 59.8998 4.25948V47.652C59.8998 49.6697 58.258 51.3115 56.2403 51.3115H41.5909H41.5511L41.5222 51.3389C38.7778 53.9347 35.1609 55.6156 31.1632 55.8911L31.0701 55.8975V55.9909V59.3281C31.0701 59.92 30.5902 60.4 29.9982 60.4C29.4062 60.4 28.9264 59.92 28.9264 59.3281V55.9909V55.8975L28.8332 55.8911C24.8366 55.6156 21.2203 53.9346 18.4765 51.3389L18.4476 51.3115H18.4078H3.75961C1.74179 51.3115 0.1 49.6697 0.1 47.652V4.25949C0.1 2.24179 1.74179 0.6 3.75961 0.6H9.03129C9.62328 0.6 10.1032 1.07999 10.1032 1.67188C10.1032 2.26376 9.62328 2.74375 9.03129 2.74375H3.75961C2.92368 2.74375 2.24375 3.42367 2.24375 4.25949V12.8404V12.9404H2.34375H57.6562H57.7562V12.8404V4.25949C57.7562 3.42368 57.0763 2.74375 56.2405 2.74375H19.558C18.966 2.74375 18.4861 2.26376 18.4861 1.67188C18.4861 1.07999 18.966 0.6 19.558 0.6ZM15.5088 40.2202H15.4005L15.4091 40.3282C15.9807 47.4619 21.6864 53.169 28.8185 53.7408L28.9265 53.7495V53.6411V49.8126V49.7229L28.8373 49.7132C23.9042 49.1744 19.9751 45.2441 19.4366 40.3094L19.4269 40.2202H19.3372H15.5088ZM40.5633 37.9873L40.573 38.0764H40.6627H44.4911H44.5994L44.5907 37.9685C44.0189 30.8363 38.3118 25.1307 31.1782 24.5591L31.0702 24.5505V24.6588V28.4872V28.5769L31.1594 28.5866C36.0942 29.125 40.0245 33.0542 40.5633 37.9873ZM19.3373 38.0764H19.427L19.4368 37.9873C19.9751 33.0561 23.9015 29.128 28.8319 28.5872H28.9266V28.4872V24.6588V24.5505L28.8186 24.5591C21.6865 25.1308 15.981 30.8365 15.4093 37.9685L15.4006 38.0764H15.5089H19.3373ZM31.1594 49.7132L31.0702 49.7229V49.8126V53.6411V53.7495L31.1782 53.7408C38.312 53.1691 44.019 47.462 44.5907 40.3282L44.5994 40.2202H44.4911H40.6627H40.573L40.5632 40.3093C40.0247 45.2441 36.0943 49.1745 31.1594 49.7132ZM43.5713 49.0089L43.4555 49.1678H43.6521H56.2405C57.0763 49.1678 57.7562 48.4878 57.7562 47.652V15.1841V15.0841H57.6562H2.34375H2.24375V15.1841V47.652C2.24375 48.4879 2.92368 49.1678 3.75961 49.1678H16.3473H16.5439L16.4281 49.0089C14.6249 46.5332 13.4817 43.5481 13.2589 40.3133L13.2524 40.2202H13.1591H9.82184C9.22985 40.2202 8.74996 39.7402 8.74996 39.1483C8.74996 38.5564 9.22985 38.0764 9.82184 38.0764H13.1592H13.2526L13.259 37.9833C13.8328 29.657 20.5073 22.9827 28.8335 22.4088L28.9266 22.4024V22.3091V18.9718C28.9266 18.3799 29.4066 17.8999 29.9985 17.8999C30.5904 17.8999 31.0704 18.3799 31.0704 18.9718V22.3091V22.4024L31.1635 22.4088C39.4914 22.9825 46.1672 29.6571 46.7411 37.9833L46.7476 38.0764H46.8409H50.1783C50.7702 38.0764 51.2502 38.5564 51.2502 39.1483C51.2502 39.7402 50.7702 40.2202 50.1783 40.2202H46.8409H46.7476L46.7411 40.3133C46.5183 43.548 45.3749 46.5331 43.5713 49.0089ZM21.5168 39.1483C21.5168 43.8269 25.3215 47.6332 29.9984 47.6332C34.677 47.6332 38.4832 43.827 38.4832 39.1483C38.4832 34.4714 34.6771 30.6667 29.9984 30.6667C25.3215 30.6667 21.5168 34.4715 21.5168 39.1483Z" fill="#61E5A1" stroke="white" stroke-width="0.2"/>
<path d="M33.9718 35.7654L33.9718 35.7653C33.5184 35.3853 32.8422 35.4446 32.4619 35.8986L32.4619 35.8986L28.9268 40.1177L28.8622 40.1947L28.7855 40.1298L27.4058 38.9612L27.4058 38.9612C26.9542 38.5786 26.2778 38.6347 25.8951 39.0864C25.5125 39.5382 25.5686 40.2144 26.0203 40.5971L33.9718 35.7654ZM33.9718 35.7654C34.4257 36.1455 34.4853 36.8217 34.1051 37.2754L34.1817 37.3396M33.9718 35.7654L34.1817 37.3396M34.1817 37.3396L34.1051 37.2754L29.8152 42.3952C29.5694 42.6562 29.2959 42.7808 28.9916 42.781L34.1817 37.3396ZM28.299 42.527L26.0203 40.5971L28.9916 42.781C28.739 42.781 28.4933 42.6916 28.299 42.527C28.299 42.527 28.299 42.527 28.299 42.527Z" fill="#61E5A1" stroke="white" stroke-width="0.2"/>
<path d="M14.2995 2.74375H14.2963C13.7043 2.74375 13.2244 2.26376 13.2244 1.67188C13.2244 1.07999 13.7043 0.6 14.2963 0.6C14.8884 0.6 15.3698 1.08017 15.3698 1.67188C15.3698 2.26395 14.8914 2.74375 14.2995 2.74375Z" fill="#61E5A1" stroke="white" stroke-width="0.2"/>
</svg>
