<svg width="85" height="72" viewBox="0 0 85 72" fill="none" xmlns="http://www.w3.org/2000/svg">
<g clip-path="url(#clip0)">
<path fill-rule="evenodd" clip-rule="evenodd" d="M12.8611 11.1711H71.6381V20.8755H12.8611V11.1711Z" fill="white"/>
<path d="M12.8612 10.3099H71.6382C72.1134 10.3099 72.4992 10.6957 72.4992 11.1709V20.8753C72.4992 21.3505 72.1134 21.7363 71.6382 21.7363H12.8612C12.3855 21.7363 11.9998 21.3505 11.9998 20.8753V11.1709C11.9998 10.6957 12.3855 10.3099 12.8612 10.3099ZM70.7768 12.0323H13.7221V20.0139H70.7768V12.0323Z" fill="#2B2A29"/>
<path fill-rule="evenodd" clip-rule="evenodd" d="M62.325 11.1711H71.6381V20.8755H62.325V11.1711Z" fill="#FFDC60"/>
<path d="M68.2442 60.2184C67.9084 59.8826 67.9084 59.3369 68.2442 59.0006C68.5805 58.6648 69.1262 58.6648 69.462 59.0006L70.7507 60.2893L72.0394 59.0006C72.3756 58.6648 72.9209 58.6648 73.2572 59.0006C73.5934 59.3369 73.5934 59.8826 73.2572 60.2184L71.9685 61.5071L73.2572 62.7958C73.5934 63.1321 73.5934 63.6773 73.2572 64.014C72.9209 64.3498 72.3756 64.3498 72.0394 64.014L70.7507 62.7249L69.462 64.014C69.1258 64.3498 68.5805 64.3498 68.2438 64.014C67.908 63.6773 67.908 63.1321 68.2438 62.7958L69.5329 61.5071L68.2442 60.2184Z" fill="#63E9A4"/>
<path d="M79.087 38.9208C78.7503 38.5846 78.7503 38.0393 79.087 37.703C79.4228 37.3668 79.9685 37.3668 80.3047 37.703L81.5931 38.9917L82.8814 37.703C83.2176 37.3668 83.7633 37.3668 84.0996 37.703C84.4358 38.0393 84.4358 38.5846 84.0996 38.9208L82.8109 40.2095L84.0996 41.4982C84.4358 41.8344 84.4358 42.3797 84.0996 42.7164C83.7633 43.0522 83.2176 43.0522 82.8814 42.7164L81.5931 41.4273L80.3043 42.7164C79.968 43.0522 79.4223 43.0522 79.0861 42.7164C78.7503 42.3797 78.7503 41.8344 79.0861 41.4982L80.3749 40.2095L79.087 38.9208Z" fill="#63E9A4"/>
<path d="M0.706458 10.5283C0.370217 10.1925 0.370217 9.64683 0.706458 9.31058C1.04228 8.97432 1.58798 8.97432 1.92423 9.31058L3.21252 10.5988L4.50081 9.31058C4.83747 8.97432 5.38276 8.97432 5.71901 9.31058C6.05525 9.64683 6.05525 10.1925 5.71901 10.5283L4.43071 11.817L5.71901 13.1057C6.05525 13.442 6.05525 13.9877 5.71901 14.3235C5.38276 14.6597 4.83747 14.6597 4.50081 14.3235L3.21252 13.0348L1.9238 14.3235C1.58756 14.6597 1.04186 14.6597 0.706037 14.3235C0.369797 13.9877 0.369797 13.442 0.706037 13.1057L1.99475 11.817L0.706458 10.5283Z" fill="#63E9A4"/>
<path fill-rule="evenodd" clip-rule="evenodd" d="M12.8606 31.0215V2.27726C12.8606 1.64892 13.3744 1.13504 14.0032 1.13504H70.4958C71.1243 1.13504 71.6381 1.64892 71.6381 2.27726V6.84786H19.0816V31.0215H12.8606Z" fill="#FFDC60"/>
<path d="M2.57774 30.1604H59.0696C59.6216 30.1604 60.1231 30.3854 60.4855 30.7481C60.8477 31.1104 61.0731 31.6124 61.0731 32.164V69.3599C61.0731 69.9119 60.8477 70.4136 60.4855 70.7758C60.1231 71.1381 59.6216 71.3635 59.0696 71.3635H2.57774C2.02574 71.3635 1.5241 71.1381 1.16142 70.7758C0.799151 70.4136 0.57373 69.9119 0.57373 69.3599V32.164C0.57373 31.6124 0.799151 31.1104 1.16142 30.7481C1.5241 30.3854 2.02574 30.1604 2.57774 30.1604ZM59.0696 31.8824H2.57774C2.50134 31.8824 2.43082 31.9142 2.37919 31.9659C2.32798 32.017 2.29607 32.0876 2.29607 32.164V69.3599C2.29607 69.4363 2.32798 69.5069 2.37919 69.5581C2.43082 69.6093 2.50134 69.6416 2.57774 69.6416H59.0696C59.1464 69.6416 59.216 69.6093 59.2677 69.5581C59.3189 69.5069 59.3512 69.4363 59.3512 69.3599V32.164C59.3512 32.0876 59.3189 32.017 59.2677 31.9659C59.216 31.9142 59.1464 31.8824 59.0696 31.8824Z" fill="#2B2A29"/>
<path fill-rule="evenodd" clip-rule="evenodd" d="M53.9917 31.0214H59.0697C59.6981 31.0214 60.2124 31.5356 60.2124 32.1641V69.36C60.2124 69.9884 59.6981 70.5022 59.0697 70.5022H2.57793C1.9491 70.5022 1.4353 69.9884 1.4353 69.36V64.7895H53.9917V31.0214Z" fill="#FFDC60"/>
<path d="M48.0598 24.6446C46.9659 24.6446 46.8919 26.2956 48.0207 26.3665L49.7821 26.3669C50.8761 26.3669 50.9495 24.716 49.8207 24.6455L48.0598 24.6446ZM56.6703 26.3669C57.7641 26.3669 57.8381 24.716 56.7093 24.6455L54.9479 24.6446C53.854 24.6446 53.7805 26.2956 54.9093 26.3665L56.6703 26.3669ZM33.1682 26.3669C32.6931 26.3669 32.3073 25.9815 32.3073 25.506C32.3073 25.0308 32.6931 24.6446 33.1682 24.6446H44.0236C44.4988 24.6446 44.8846 25.0308 44.8846 25.506C44.8846 25.9815 44.4988 26.3669 44.0236 26.3669H33.1682ZM17.372 26.3669C16.8968 26.3669 16.5111 25.9815 16.5111 25.506C16.5111 25.0308 16.8968 24.6446 17.372 24.6446H28.2275C28.7031 24.6446 29.0889 25.0308 29.0889 25.506C29.0889 25.9815 28.7031 26.3669 28.2275 26.3669H17.372ZM70.496 41.4768H60.2124V39.7548H70.496C70.5724 39.7548 70.6425 39.7226 70.6933 39.6713C70.7449 39.6197 70.7768 39.5496 70.7768 39.4732V2.27721C70.7768 2.20081 70.7449 2.13032 70.6933 2.07917C70.6425 2.02791 70.5724 1.99556 70.496 1.99556H14.0034C13.9274 1.99556 13.8568 2.02791 13.8052 2.07917C13.754 2.13032 13.7221 2.20081 13.7221 2.27721V31.0214H11.9998V2.27721C11.9998 1.72572 12.2252 1.22365 12.5875 0.861397C12.9497 0.498711 13.4514 0.273682 14.0034 0.273682H70.496C71.0476 0.273682 71.5492 0.498711 71.9115 0.861397C72.2738 1.22365 72.4992 1.72572 72.4992 2.27721V39.4732C72.4992 40.0252 72.2738 40.5268 71.9115 40.8891C71.5492 41.2518 71.0476 41.4768 70.496 41.4768Z" fill="#1A1A1A"/>
<path d="M12.8612 10.3099H71.6382C72.1134 10.3099 72.4992 10.6957 72.4992 11.1709V20.8753C72.4992 21.3505 72.1134 21.7363 71.6382 21.7363H12.8612C12.3855 21.7363 11.9998 21.3505 11.9998 20.8753V11.1709C11.9998 10.6957 12.3855 10.3099 12.8612 10.3099ZM70.7768 12.0323H13.7221V20.0139H70.7768V12.0323Z" fill="#2B2A29"/>
<path fill-rule="evenodd" clip-rule="evenodd" d="M44.5979 59.2038H49.2948V64.7893H44.5979V59.2038Z" fill="#FFDC60"/>
<path d="M44.5977 58.3429H53.9915C54.4671 58.3429 54.8525 58.7287 54.8525 59.2039V64.7894C54.8525 65.2646 54.4671 65.6504 53.9915 65.6504H44.5977C44.1221 65.6504 43.7363 65.2646 43.7363 64.7894V59.2039C43.7363 58.7287 44.1221 58.3429 44.5977 58.3429ZM53.1305 60.0652H45.4583V63.9285H53.1305V60.0652Z" fill="#1A1A1A"/>
<path d="M37.3612 58.3438C37.8369 58.3438 38.2227 58.7296 38.2227 59.2048C38.2227 59.6799 37.8369 60.0657 37.3612 60.0657H28.3478C27.8726 60.0657 27.4868 59.6799 27.4868 59.2048C27.4868 58.7296 27.8726 58.3438 28.3478 58.3438H37.3612Z" fill="#1A1A1A"/>
<path d="M23.2702 58.3438C23.7454 58.3438 24.1312 58.7296 24.1312 59.2048C24.1312 59.6799 23.7454 60.0657 23.2702 60.0657H7.65539C7.1802 60.0657 6.79443 59.6799 6.79443 59.2048C6.79443 58.7296 7.1802 58.3438 7.65539 58.3438H23.2702Z" fill="#1A1A1A"/>
<path fill-rule="evenodd" clip-rule="evenodd" d="M17.2088 38.3846H20.3504V47.7783H7.65552V44.4685H17.2088V38.3846Z" fill="#FFDC60"/>
<path d="M7.65539 37.5234H20.3502C20.8254 37.5234 21.2117 37.9096 21.2117 38.3847V47.7784C21.2117 48.254 20.8254 48.6394 20.3502 48.6394H7.65539C7.1802 48.6394 6.79443 48.254 6.79443 47.7784V38.3847C6.79443 37.9096 7.1802 37.5234 7.65539 37.5234ZM19.4893 39.2457H8.51677V46.9175H19.4893V39.2457Z" fill="#2B2A29"/>
<path d="M7.72719 52.1545C6.63326 52.1545 6.55979 53.805 7.68815 53.8756L9.44953 53.8765C10.5435 53.8765 10.6169 52.2258 9.48815 52.1549L7.72719 52.1545ZM49.709 53.8765C50.8029 53.8765 50.8769 52.2258 49.7476 52.1549L49.0571 52.1545C47.9636 52.1545 47.8902 53.805 49.0185 53.8756L49.709 53.8765ZM43.8914 53.8765C44.9852 53.8765 45.0587 52.2258 43.9299 52.1549L42.1689 52.1545C41.0751 52.1545 41.0012 53.805 42.1299 53.8756L43.8914 53.8765ZM37.0028 53.8765C38.0963 53.8765 38.1702 52.2258 37.0414 52.1549L35.2805 52.1545C34.1865 52.1545 34.113 53.805 35.2414 53.8756L37.0028 53.8765ZM30.1146 53.8765C31.2086 53.8765 31.2821 52.2258 30.1538 52.1549L28.3923 52.1545C27.2988 52.1545 27.225 53.805 28.3538 53.8756L30.1146 53.8765ZM23.2262 53.8765C24.3202 53.8765 24.394 52.2258 23.2652 52.1549L21.5042 52.1545C20.4103 52.1545 20.3364 53.805 21.4652 53.8756L23.2262 53.8765ZM16.338 53.8765C17.4316 53.8765 17.5054 52.2258 16.3767 52.1549L14.6157 52.1545C13.5218 52.1545 13.4484 53.805 14.5767 53.8756L16.338 53.8765Z" fill="#1A1A1A"/>
<path d="M2.57774 30.1604H59.0696C59.6216 30.1604 60.1231 30.3854 60.4855 30.7481C60.8477 31.1104 61.0731 31.6124 61.0731 32.164V69.3599C61.0731 69.9119 60.8477 70.4136 60.4855 70.7758C60.1231 71.1381 59.6216 71.3635 59.0696 71.3635H2.57774C2.02574 71.3635 1.5241 71.1381 1.16142 70.7758C0.799151 70.4136 0.57373 69.9119 0.57373 69.3599V32.164C0.57373 31.6124 0.799151 31.1104 1.16142 30.7481C1.5241 30.3854 2.02574 30.1604 2.57774 30.1604ZM59.0696 31.8824H2.57774C2.50134 31.8824 2.43082 31.9142 2.37919 31.9659C2.32798 32.017 2.29607 32.0876 2.29607 32.164V69.3599C2.29607 69.4363 2.32798 69.5069 2.37919 69.5581C2.43082 69.6093 2.50134 69.6416 2.57774 69.6416H59.0696C59.1464 69.6416 59.216 69.6093 59.2677 69.5581C59.3189 69.5069 59.3512 69.4363 59.3512 69.3599V32.164C59.3512 32.0876 59.3189 32.017 59.2677 31.9659C59.216 31.9142 59.1464 31.8824 59.0696 31.8824Z" fill="#1A1A1A"/>
</g>
<defs>
<clipPath id="clip0">
<rect width="84.8955" height="72" fill="white"/>
</clipPath>
</defs>
</svg>
