<svg width="71" height="60" viewBox="0 0 71 60" fill="none" xmlns="http://www.w3.org/2000/svg">
<mask id="path-1-inside-1" fill="white">
<path d="M67.1918 51.0958H65.1338C65.3978 50.5812 65.5479 49.999 65.5479 49.3821L65.5466 13.7665C65.5466 11.6893 63.8566 9.99934 61.7794 9.99934H56.2329V8.74454C56.2329 7.75509 55.4279 6.95002 54.4383 6.95002H52.7379V1.79454C52.7379 1.21523 52.4561 0.66879 51.9844 0.332626C51.5124 -0.00340164 50.904 -0.0910732 50.3563 0.0983788L47.1201 1.21742C46.584 1.4029 46.2996 1.98783 46.4849 2.52413C46.6704 3.0603 47.2549 3.34536 47.7916 3.15934L50.683 2.15947V26.8689L36.0959 31.9134V7.20399L43.6489 4.59208C44.1852 4.4066 44.4694 3.82167 44.2841 3.28536C44.0986 2.7492 43.5142 2.46441 42.9774 2.65016L35.0685 5.38509L19.7807 0.0983788C19.233 -0.0912102 18.6245 -0.00340164 18.1526 0.332626C17.6808 0.66879 17.399 1.21523 17.399 1.79454V6.94988H15.6986C14.709 6.94988 13.9041 7.75495 13.9041 8.7444V10.0006H8.35616C6.2789 10.0006 4.58904 11.6906 4.58904 13.7677L4.58918 17.4213C4.58918 17.9888 5.04918 18.4486 5.61657 18.4486C6.18397 18.4486 6.64397 17.9886 6.64397 17.4213L6.64383 13.7678C6.64383 12.8236 7.41192 12.0555 8.35616 12.0555H13.9041V14.1103H9.72602C9.45356 14.1103 9.19219 14.2185 8.99959 14.4113C8.80685 14.6039 8.69863 14.8652 8.69863 15.1377L8.7 48.0136C8.7 48.5811 9.16 49.041 9.72739 49.041L60.4109 49.0396C60.6834 49.0396 60.9448 48.9314 61.1375 48.7386C61.3301 48.546 61.4383 48.2847 61.4383 48.0122L61.437 15.1363C61.437 14.5688 60.977 14.1089 60.4096 14.1089H56.2329V12.0541H61.7794C62.7237 12.0541 63.4918 12.8222 63.4918 13.7665L63.4931 49.3821C63.4931 50.3263 62.725 51.0944 61.7808 51.0944L8.35753 51.0958C7.41328 51.0958 6.6452 50.3277 6.6452 49.3834L6.64424 21.8177C6.64424 21.2502 6.18424 20.7903 5.61685 20.7903C5.04945 20.7903 4.58945 21.2503 4.58945 21.8177L4.59041 49.3834C4.59041 49.9999 4.74014 50.5816 5.00383 51.0958H2.9452C1.32123 51.0958 0 52.417 0 54.041V57.0547C0 58.6788 1.32123 60 2.9452 60H43.7919C44.3594 60 44.8193 59.5401 44.8193 58.9726C44.8193 58.4051 44.3594 57.9452 43.7919 57.9452H2.9452C2.45425 57.9452 2.05479 57.5458 2.05479 57.0548V54.0411C2.05479 53.5501 2.45425 53.1507 2.9452 53.1507H28.1507V53.8726C28.1507 55.2874 29.3018 56.4385 30.7166 56.4385H39.4205C40.8353 56.4385 41.9863 55.2875 41.9863 53.8726V53.1507H67.1918C67.6827 53.1507 68.0822 53.5501 68.0822 54.0411V57.0548C68.0822 57.5458 67.6827 57.9452 67.1918 57.9452H48.2774C47.7098 57.9452 47.25 58.4051 47.25 58.9726C47.25 59.5401 47.7098 60 48.2774 60H67.1918C68.8157 60 70.137 58.6788 70.137 57.0548V54.0411C70.137 52.417 68.8157 51.0958 67.1918 51.0958ZM51.53 28.7502C52.2524 28.5002 52.7379 27.8185 52.7379 27.0541V9.00481H54.1781V32.3284H41.183L51.53 28.7502ZM19.4538 2.15947L34.0411 7.20399V31.9134L19.4538 26.8689V2.15947ZM15.9589 9.00481H17.399V27.0543C17.399 27.8186 17.8845 28.5003 18.6073 28.7504L28.954 32.3285H15.9589V9.00481ZM59.3822 16.1637L59.3835 46.9848L10.7547 46.9862L10.7534 16.1651H13.9041V32.5886C13.9041 33.5781 14.709 34.3832 15.6986 34.3832H54.4383C55.4279 34.3832 56.2329 33.5781 56.2329 32.5886V16.1637H59.3822ZM39.9315 53.8725C39.9315 54.1543 39.7022 54.3836 39.4205 54.3836H30.7166C30.4348 54.3836 30.2055 54.1543 30.2055 53.8725V53.1506H39.9315V53.8725Z"/>
</mask>
<path d="M67.1918 51.0958H65.1338C65.3978 50.5812 65.5479 49.999 65.5479 49.3821L65.5466 13.7665C65.5466 11.6893 63.8566 9.99934 61.7794 9.99934H56.2329V8.74454C56.2329 7.75509 55.4279 6.95002 54.4383 6.95002H52.7379V1.79454C52.7379 1.21523 52.4561 0.66879 51.9844 0.332626C51.5124 -0.00340164 50.904 -0.0910732 50.3563 0.0983788L47.1201 1.21742C46.584 1.4029 46.2996 1.98783 46.4849 2.52413C46.6704 3.0603 47.2549 3.34536 47.7916 3.15934L50.683 2.15947V26.8689L36.0959 31.9134V7.20399L43.6489 4.59208C44.1852 4.4066 44.4694 3.82167 44.2841 3.28536C44.0986 2.7492 43.5142 2.46441 42.9774 2.65016L35.0685 5.38509L19.7807 0.0983788C19.233 -0.0912102 18.6245 -0.00340164 18.1526 0.332626C17.6808 0.66879 17.399 1.21523 17.399 1.79454V6.94988H15.6986C14.709 6.94988 13.9041 7.75495 13.9041 8.7444V10.0006H8.35616C6.2789 10.0006 4.58904 11.6906 4.58904 13.7677L4.58918 17.4213C4.58918 17.9888 5.04918 18.4486 5.61657 18.4486C6.18397 18.4486 6.64397 17.9886 6.64397 17.4213L6.64383 13.7678C6.64383 12.8236 7.41192 12.0555 8.35616 12.0555H13.9041V14.1103H9.72602C9.45356 14.1103 9.19219 14.2185 8.99959 14.4113C8.80685 14.6039 8.69863 14.8652 8.69863 15.1377L8.7 48.0136C8.7 48.5811 9.16 49.041 9.72739 49.041L60.4109 49.0396C60.6834 49.0396 60.9448 48.9314 61.1375 48.7386C61.3301 48.546 61.4383 48.2847 61.4383 48.0122L61.437 15.1363C61.437 14.5688 60.977 14.1089 60.4096 14.1089H56.2329V12.0541H61.7794C62.7237 12.0541 63.4918 12.8222 63.4918 13.7665L63.4931 49.3821C63.4931 50.3263 62.725 51.0944 61.7808 51.0944L8.35753 51.0958C7.41328 51.0958 6.6452 50.3277 6.6452 49.3834L6.64424 21.8177C6.64424 21.2502 6.18424 20.7903 5.61685 20.7903C5.04945 20.7903 4.58945 21.2503 4.58945 21.8177L4.59041 49.3834C4.59041 49.9999 4.74014 50.5816 5.00383 51.0958H2.9452C1.32123 51.0958 0 52.417 0 54.041V57.0547C0 58.6788 1.32123 60 2.9452 60H43.7919C44.3594 60 44.8193 59.5401 44.8193 58.9726C44.8193 58.4051 44.3594 57.9452 43.7919 57.9452H2.9452C2.45425 57.9452 2.05479 57.5458 2.05479 57.0548V54.0411C2.05479 53.5501 2.45425 53.1507 2.9452 53.1507H28.1507V53.8726C28.1507 55.2874 29.3018 56.4385 30.7166 56.4385H39.4205C40.8353 56.4385 41.9863 55.2875 41.9863 53.8726V53.1507H67.1918C67.6827 53.1507 68.0822 53.5501 68.0822 54.0411V57.0548C68.0822 57.5458 67.6827 57.9452 67.1918 57.9452H48.2774C47.7098 57.9452 47.25 58.4051 47.25 58.9726C47.25 59.5401 47.7098 60 48.2774 60H67.1918C68.8157 60 70.137 58.6788 70.137 57.0548V54.0411C70.137 52.417 68.8157 51.0958 67.1918 51.0958ZM51.53 28.7502C52.2524 28.5002 52.7379 27.8185 52.7379 27.0541V9.00481H54.1781V32.3284H41.183L51.53 28.7502ZM19.4538 2.15947L34.0411 7.20399V31.9134L19.4538 26.8689V2.15947ZM15.9589 9.00481H17.399V27.0543C17.399 27.8186 17.8845 28.5003 18.6073 28.7504L28.954 32.3285H15.9589V9.00481ZM59.3822 16.1637L59.3835 46.9848L10.7547 46.9862L10.7534 16.1651H13.9041V32.5886C13.9041 33.5781 14.709 34.3832 15.6986 34.3832H54.4383C55.4279 34.3832 56.2329 33.5781 56.2329 32.5886V16.1637H59.3822ZM39.9315 53.8725C39.9315 54.1543 39.7022 54.3836 39.4205 54.3836H30.7166C30.4348 54.3836 30.2055 54.1543 30.2055 53.8725V53.1506H39.9315V53.8725Z" fill="#61E5A1" stroke="white" stroke-width="0.2" mask="url(#path-1-inside-1)"/>
<path d="M21.5738 37.3632H48.5632C49.103 37.3632 49.5406 37.8007 49.5406 38.3406C49.5406 38.8805 49.1031 39.318 48.5632 39.318H21.5738C21.034 39.318 20.5964 38.8805 20.5964 38.3406C20.5964 37.8007 21.034 37.3632 21.5738 37.3632Z" fill="#61E5A1" stroke="white" stroke-width="0.1"/>
<path d="M21.5738 41.7216H39.0771C39.6169 41.7216 40.0545 42.1591 40.0545 42.699C40.0545 43.2389 39.617 43.6764 39.0771 43.6764H21.5738C21.034 43.6764 20.5964 43.2389 20.5964 42.699C20.5964 42.1591 21.034 41.7216 21.5738 41.7216Z" fill="#61E5A1" stroke="white" stroke-width="0.1"/>
</svg>
