<svg width="58" height="60" viewBox="0 0 58 60" fill="none" xmlns="http://www.w3.org/2000/svg">
<path d="M53.3755 36.2984V57.8043C53.3755 58.3357 53.0467 58.9536 52.6746 59.319C52.2993 59.6877 51.6748 60 51.1432 60H45.0709H38.9919C38.4637 60 37.8359 59.6777 37.4705 59.319C37.0884 58.9437 36.7696 58.3291 36.7696 57.7877V36.2984C35.8129 36.1189 34.9526 35.6473 34.2914 34.9827C33.3946 34.0859 32.9062 32.8866 32.9062 31.6309V19.7786C32.9062 18.0479 33.6104 16.4733 34.7498 15.3339C35.8893 14.1943 37.4604 13.4868 39.1911 13.4868H39.8822C39.1447 12.4504 38.7129 11.1846 38.7129 9.82266V3.94969C38.7129 2.86676 39.158 1.88016 39.8722 1.16273C40.5896 0.445195 41.5762 0 42.6592 0H47.4859C48.5688 0 49.5554 0.445195 50.273 1.16273C50.9871 1.88016 51.4323 2.86676 51.4323 3.94969V9.82277C51.4323 11.1847 51.0005 12.4505 50.263 13.4869H50.9539C52.6847 13.4869 54.2558 14.1945 55.3954 15.334C56.5348 16.4734 57.2422 18.0479 57.2422 19.7787V31.6311C57.2422 32.94 56.7108 34.1258 55.8537 34.9829C55.1925 35.6473 54.3321 36.1189 53.3755 36.2984ZM9.49383 27.7876C9.8359 27.4454 10.3941 27.4454 10.7363 27.7876C11.0783 28.1298 11.0783 28.6879 10.7363 29.03L7.55391 32.2157C7.20844 32.5579 6.65367 32.5579 6.31148 32.2157L4.28191 30.1861C3.93973 29.8439 3.93973 29.2857 4.28191 28.9437C4.62738 28.6015 5.18215 28.6015 5.52762 28.9437L6.9327 30.3488L9.49383 27.7876ZM9.49383 45.2807C9.8359 44.9385 10.3941 44.9385 10.7363 45.2807C11.0783 45.623 11.0783 46.181 10.7363 46.5232L7.55391 49.7089C7.20844 50.0511 6.65367 50.0511 6.31148 49.7089L4.28191 47.6793C3.93973 47.3372 3.93973 46.779 4.28191 46.4368C4.62738 46.0948 5.18215 46.0948 5.52762 46.4368L6.9327 47.842L9.49383 45.2807ZM9.49383 10.2946C9.8359 9.95238 10.3941 9.95238 10.7363 10.2946C11.0783 10.6368 11.0783 11.1948 10.7363 11.5369L7.55391 14.7192C7.20844 15.0647 6.65367 15.0647 6.31148 14.7192L4.28191 12.6928C3.93973 12.3507 3.93973 11.7926 4.28191 11.4504C4.62738 11.1083 5.18215 11.1083 5.52762 11.4504L6.9327 12.8556L9.49383 10.2946ZM49.675 7.99582C48.2433 8.2282 45.7586 8.27156 43.7355 6.43453C43.0445 6.85301 41.8886 7.35469 40.4701 7.19191V9.82277C40.4701 11.0885 40.9883 12.2378 41.8221 13.0717C42.6559 13.9087 43.8086 14.4268 45.0709 14.4268C46.3365 14.4268 47.4859 13.9086 48.323 13.0717C49.1568 12.2379 49.675 11.0885 49.675 9.82277V7.99582ZM40.4701 5.42145C41.4634 5.60074 42.5064 5.27859 43.2605 4.6207C43.6259 4.30184 44.1806 4.34168 44.4995 4.70707C46.2036 6.66715 48.5854 6.44777 49.675 6.21527V3.94969C49.675 3.34512 49.4291 2.79703 49.0305 2.39836C48.6352 2.00309 48.0905 1.75723 47.4859 1.75723H42.6592C42.0546 1.75723 41.5098 2.00309 41.1145 2.39836C40.716 2.79703 40.4701 3.34512 40.4701 3.94969V5.42145ZM41.7557 15.2442H39.1911C37.9454 15.2442 36.8127 15.7557 35.9923 16.5763C35.1418 17.43 34.6568 18.5727 34.6568 19.7786V31.6277C34.6568 32.415 34.9691 33.1825 35.5337 33.7471C36.0686 34.2852 36.8126 34.6207 37.6364 34.6207H39.1113V22.1438C39.1113 21.6587 39.5066 21.2634 39.9916 21.2634C40.4767 21.2634 40.8686 21.6587 40.8686 22.1438V34.6207H49.2762V22.1438C49.2762 21.6587 49.6682 21.2634 50.1531 21.2634C50.6381 21.2634 51.0334 21.6587 51.0334 22.1438V34.6207H52.5083C53.3321 34.6207 54.0729 34.2852 54.611 33.7471C55.1525 33.2089 55.4846 32.4582 55.4846 31.631V19.7786C55.4846 18.5329 54.9764 17.4 54.1526 16.5763C53.332 15.7557 52.1993 15.2442 50.9536 15.2442H48.3858C47.4192 15.8388 46.2865 16.1843 45.0707 16.1843C43.8584 16.1843 42.7223 15.8388 41.7557 15.2442ZM17.5692 44.6163C17.0842 44.6163 16.6889 44.2243 16.6889 43.7394C16.6889 43.2545 17.0842 42.8591 17.5692 42.8591H28.5346C29.0196 42.8591 29.4116 43.2544 29.4116 43.7394C29.4116 44.2245 29.0196 44.6163 28.5346 44.6163H17.5692ZM17.5692 52.127C17.0842 52.127 16.6889 51.735 16.6889 51.2501C16.6889 50.765 17.0842 50.3698 17.5692 50.3698H24.9669C25.452 50.3698 25.8472 50.765 25.8472 51.2501C25.8472 51.7351 25.452 52.127 24.9669 52.127H17.5692ZM17.5692 48.3734C17.0842 48.3734 16.6889 47.9781 16.6889 47.493C16.6889 47.008 17.0842 46.6161 17.5692 46.6161H28.5346C29.0196 46.6161 29.4116 47.0081 29.4116 47.493C29.4116 47.9781 29.0196 48.3734 28.5346 48.3734H17.5692ZM17.5692 27.1233C17.0842 27.1233 16.6889 26.7313 16.6889 26.2464C16.6889 25.7613 17.0842 25.3661 17.5692 25.3661H28.5346C29.0196 25.3661 29.4116 25.7613 29.4116 26.2464C29.4116 26.7314 29.0196 27.1233 28.5346 27.1233H17.5692ZM17.5692 34.6339C17.0842 34.6339 16.6889 34.242 16.6889 33.757C16.6889 33.272 17.0842 32.8767 17.5692 32.8767H24.9669C25.452 32.8767 25.8472 33.272 25.8472 33.757C25.8472 34.2421 25.452 34.6339 24.9669 34.6339H17.5692ZM17.5692 30.8803C17.0842 30.8803 16.6889 30.485 16.6889 30C16.6889 29.515 17.0842 29.1231 17.5692 29.1231H28.5346C29.0196 29.1231 29.4116 29.5151 29.4116 30C29.4116 30.4849 29.0196 30.8803 28.5346 30.8803H17.5692ZM17.5692 9.63023C17.0842 9.63023 16.6889 9.23824 16.6889 8.75332C16.6889 8.26828 17.0842 7.87301 17.5692 7.87301H28.5346C29.0196 7.87301 29.4116 8.26828 29.4116 8.75332C29.4116 9.23836 29.0196 9.63023 28.5346 9.63023H17.5692ZM17.5692 17.141C17.0842 17.141 16.6889 16.749 16.6889 16.2641C16.6889 15.7758 17.0842 15.3838 17.5692 15.3838H24.9669C25.452 15.3838 25.8472 15.7758 25.8472 16.2641C25.8472 16.7491 25.452 17.141 24.9669 17.141H17.5692ZM17.5692 13.3871C17.0842 13.3871 16.6889 12.9919 16.6889 12.5068C16.6889 12.0218 17.0842 11.6299 17.5692 11.6299H28.5346C29.0196 11.6299 29.4116 12.0219 29.4116 12.5068C29.4116 12.9918 29.0196 13.3871 28.5346 13.3871H17.5692ZM0 41.6167C0 40.7163 0.734062 39.9855 1.63102 39.9855H13.387C14.2873 39.9855 15.0214 40.7163 15.0214 41.6167V53.3727C15.0214 54.2696 14.284 55.0037 13.387 55.0037H1.63102C0.737461 55.0037 0 54.2663 0 53.3727V41.6167ZM13.2608 41.7429H1.75723V53.2465H13.2608V41.7429ZM0 6.63059C0 5.73363 0.737461 4.99617 1.63102 4.99617H13.387C14.284 4.99617 15.0214 5.73363 15.0214 6.63059V18.3866C15.0214 19.2836 14.284 20.0176 13.387 20.0176H1.63102C0.734062 20.0176 0 19.2836 0 18.3866V6.63059ZM13.2608 6.7568H1.75723V18.2604H13.2608V6.7568ZM0 24.1236C0 23.2267 0.734062 22.4926 1.63102 22.4926H13.387C14.2873 22.4926 15.0214 23.2233 15.0214 24.1236V35.8798C15.0214 36.7767 14.2873 37.5109 13.387 37.5109H1.63102C0.734062 37.5109 0 36.7767 0 35.8798V24.1236ZM13.2608 24.2498H1.75723V35.7536H13.2608V24.2498ZM44.1939 58.2428V40.2946C44.1939 39.8095 44.5859 39.4177 45.0708 39.4177C45.5591 39.4177 45.9511 39.8096 45.9511 40.2946V58.2428H51.1032C51.3591 58.1961 51.5684 58.0069 51.6182 57.7512V36.378C47.2532 36.378 42.8917 36.378 38.5268 36.378V57.7512C38.5766 58.007 38.7859 58.1963 39.0417 58.2428H44.1939Z" fill="#61E5A1"/>
</svg>
