<svg width="72" height="72" viewBox="0 0 72 72" fill="none" xmlns="http://www.w3.org/2000/svg">
<path d="M60.5211 21.078C60.1931 20.7498 60.1931 20.218 60.5211 19.8903C60.8488 19.5622 61.3806 19.5622 61.7088 19.8903L62.9655 21.1466L64.2221 19.8903C64.5498 19.5622 65.0821 19.5622 65.4098 19.8903C65.7375 20.218 65.7375 20.7498 65.4098 21.078L64.1531 22.3346L65.4098 23.5913C65.7375 23.9195 65.7375 24.4513 65.4098 24.7794C65.0821 25.107 64.5498 25.107 64.2221 24.7794L62.9655 23.5223L61.7084 24.7794C61.3806 25.107 60.8484 25.107 60.5207 24.7794C60.1926 24.4513 60.1926 23.9195 60.5207 23.5913L61.7774 22.3346L60.5211 21.078Z" fill="#63E9A4"/>
<path d="M65.9791 34.91C65.6514 34.5819 65.6514 34.0501 65.9791 33.7224C66.3068 33.3942 66.839 33.3942 67.1667 33.7224L68.4234 34.9787L69.6805 33.7224C70.0082 33.3942 70.54 33.3942 70.8681 33.7224C71.1959 34.0501 71.1959 34.5819 70.8681 34.91L69.6114 36.1667L70.8681 37.4238C71.1959 37.7515 71.1959 38.2838 70.8681 38.6114C70.54 38.9391 70.0082 38.9391 69.6805 38.6114L68.4234 37.3543L67.1667 38.6114C66.8387 38.9391 66.3064 38.9391 65.9787 38.6114C65.651 38.2838 65.651 37.7515 65.9787 37.4238L67.2357 36.1667L65.9791 34.91Z" fill="#63E9A4"/>
<path d="M9.67841 28.7046C9.35071 28.3765 9.35071 27.8447 9.67841 27.5165C10.0061 27.1888 10.5384 27.1888 10.8661 27.5165L12.1227 28.7732L13.3795 27.5165C13.7071 27.1888 14.2393 27.1888 14.567 27.5165C14.8947 27.8447 14.8947 28.3765 14.567 28.7046L13.3104 29.9613L14.567 31.218C14.8947 31.5461 14.8947 32.0779 14.567 32.4061C14.2393 32.7338 13.7071 32.7338 13.3795 32.4061L12.1227 31.1489L10.8661 32.4061C10.5379 32.7338 10.0057 32.7338 9.67798 32.4061C9.34985 32.0779 9.34985 31.5461 9.67798 31.218L10.9346 29.9613L9.67841 28.7046Z" fill="#63E9A4"/>
<path d="M5.49107 42.4618C5.16337 42.1341 5.16337 41.6019 5.49107 41.2742C5.81921 40.9461 6.35102 40.9461 6.67872 41.2742L7.9354 42.5304L9.19207 41.2742C9.51977 40.9461 10.052 40.9461 10.3801 41.2742C10.7078 41.6019 10.7078 42.1341 10.3801 42.4618L9.12304 43.7185L10.3801 44.9752C10.7078 45.3029 10.7078 45.8351 10.3801 46.1628C10.052 46.491 9.51977 46.491 9.19207 46.1628L7.9354 44.9062L6.6783 46.1628C6.35059 46.491 5.81877 46.491 5.49065 46.1628C5.16295 45.8351 5.16295 45.3029 5.49065 44.9752L6.74776 43.7185L5.49107 42.4618Z" fill="#63E9A4"/>
<path fill-rule="evenodd" clip-rule="evenodd" d="M69.892 70.7166H61.8551L50.4888 50.1657H58.5256L69.892 70.7166Z" fill="#FFDC60"/>
<path d="M69.892 71.5555L25.4604 71.5564C24.9968 71.5564 24.6208 71.1797 24.6208 70.7165C24.6208 70.5426 24.6738 70.3807 24.765 70.2469L36.4433 49.7522C36.5971 49.4808 36.8799 49.3283 37.1714 49.3283L58.5255 49.3257C58.8593 49.3257 59.1478 49.5204 59.2833 49.803L70.627 70.3129C70.8494 70.7186 70.7012 71.2287 70.2955 71.4516C70.1672 71.5215 70.0288 71.5551 69.892 71.5555ZM26.9033 69.8766H68.4695L58.0317 51.0056H37.6565L26.9033 69.8766Z" fill="#1A1A1A"/>
<path d="M25.4604 69.8766C25.924 69.8766 26.3003 70.2528 26.3003 70.7165C26.3003 71.1797 25.924 71.5564 25.4604 71.5564H1.86262C1.39898 71.5564 1.02271 71.1797 1.02271 70.7165V8.6544C1.02271 8.19077 1.39898 7.81496 1.86262 7.81496C2.32583 7.81496 2.70211 8.19077 2.70211 8.6544V69.8766H25.4604Z" fill="#1A1A1A"/>
<path fill-rule="evenodd" clip-rule="evenodd" d="M14.1072 10.1536H20.2023L16.396 16.0369L20.2023 22.4958H14.235L14.2052 22.3386L10.739 16.3356L14.146 10.4344L14.1072 10.1536Z" fill="#FFDC60"/>
<path d="M1.86262 9.31413H20.2023C20.6659 9.31413 21.0422 9.69038 21.0422 10.1536C21.0422 10.3458 20.9778 10.5222 20.8692 10.6633L17.3791 16.0577L20.9237 22.0726C21.1572 22.471 21.0239 22.9841 20.6254 23.2172C20.4925 23.2952 20.3463 23.3327 20.2023 23.3323L1.86262 23.3357C1.39898 23.3357 1.02271 22.9594 1.02271 22.4958V10.1536C1.02271 9.69038 1.39898 9.31413 1.86262 9.31413ZM18.6622 10.9935H2.70211V21.6559H18.7363L15.6929 16.4911C15.5199 16.2222 15.5092 15.8659 15.6937 15.5809L18.6622 10.9935Z" fill="#1A1A1A"/>
<path fill-rule="evenodd" clip-rule="evenodd" d="M47.7703 35.7533L51.9229 50.1658C53.5759 50.1658 55.2294 50.1658 56.8827 50.1658C55.8063 43.1724 54.7295 36.1796 53.653 29.1862C53.6918 26.4564 53.7301 23.7265 53.7685 20.9967C57.6131 17.19 61.4581 13.3838 65.3031 9.57708C68.0816 6.79865 64.8037 3.61712 62.1886 6.23192C59.1898 8.9617 56.1907 11.6916 53.192 14.4214H47.7703V35.7533Z" fill="#FFDC60"/>
<path d="M43.6316 49.3257L46.7198 34.7795C46.8157 34.327 47.261 34.0377 47.714 34.1336C48.0485 34.2043 48.2939 34.4663 48.36 34.7809L52.5511 49.3257H55.9043L52.8229 29.311C52.8122 29.2407 52.811 29.1712 52.8174 29.1034L52.932 20.9864C52.935 20.758 53.0288 20.553 53.1788 20.4034L64.7109 8.98467C65.4605 8.23173 65.6355 7.49241 65.4605 6.94903C65.4003 6.76281 65.2973 6.59579 65.1634 6.46118C65.0283 6.32558 64.863 6.22075 64.6797 6.16074C64.1599 5.9886 63.4636 6.14492 62.7826 6.82587L53.7562 15.0418C53.5955 15.188 53.3932 15.26 53.192 15.26L43.7335 15.2613C43.5118 15.2613 43.3099 15.1756 43.1603 15.0354L33.1052 6.59405C32.4178 5.90885 31.6112 5.73921 31.0043 5.92205C30.8092 5.98085 30.6379 6.07544 30.5062 6.19947C30.3856 6.31369 30.2961 6.45431 30.2509 6.61456C30.1137 7.10034 30.3421 7.80224 31.1773 8.63744L42.6165 20.8871C42.7665 21.0486 42.8411 21.2536 42.8411 21.4577L42.8429 29.3012C42.8429 29.3706 42.8342 29.4388 42.8185 29.5031L39.7499 49.3257H43.6316ZM47.6641 38.4043L45.1405 50.2892C45.0809 50.6945 44.7314 51.0056 44.31 51.0056H38.7732L38.6454 50.9924C38.1889 50.9216 37.8762 50.4938 37.9465 50.0374L41.1634 29.2581V21.7858L29.9892 9.825C28.658 8.49332 28.3482 7.18641 28.6372 6.1615C28.7675 5.70005 29.0177 5.30165 29.3518 4.98539L29.3552 4.98202C29.6773 4.67733 30.0796 4.44802 30.5253 4.31427C31.6576 3.97336 33.1077 4.23452 34.2762 5.39241L44.0369 13.5819H52.869L61.5945 5.63831C62.7847 4.44802 64.13 4.21708 65.2043 4.57293C65.6449 4.71911 66.0361 4.96368 66.3515 5.28027C66.6677 5.59859 66.9118 5.99285 67.0546 6.43729C67.4066 7.52863 67.1581 8.90973 65.8968 10.171L54.5999 21.3517L54.4908 29.1107L57.7077 50.0093C57.7171 50.06 57.7226 50.1119 57.7226 50.1657C57.7226 50.6294 57.346 51.0056 56.8828 51.0056H51.9229V51.0018C51.559 51.0018 51.2237 50.7622 51.1188 50.3954L47.6641 38.4043Z" fill="#1A1A1A"/>
<path d="M47.8691 2.11188C47.12 2.11188 46.4322 2.49163 45.9272 3.10395C45.3851 3.76232 45.0489 4.68446 45.0489 5.71275C45.0489 6.74148 45.3847 7.66319 45.9272 8.32155C46.4322 8.93399 47.12 9.31406 47.8691 9.31406C48.6178 9.31406 49.3057 8.93399 49.8106 8.32155C50.3535 7.66319 50.6893 6.74148 50.6893 5.71275C50.6893 4.68446 50.353 3.76232 49.8106 3.10395C49.3057 2.49163 48.6178 2.11188 47.8691 2.11188ZM44.6343 2.04119C45.4533 1.04781 46.5967 0.432538 47.8691 0.432538C49.1411 0.432538 50.2844 1.04781 51.1035 2.04119C51.8846 2.98973 52.3687 4.28857 52.3687 5.71275C52.3687 7.13694 51.8846 8.43577 51.1035 9.38432C50.2844 10.3781 49.1411 10.9934 47.8691 10.9934C46.5967 10.9934 45.4533 10.3781 44.6343 9.38432C43.8532 8.43577 43.3691 7.13694 43.3691 5.71275C43.3691 4.28857 43.8532 2.98973 44.6343 2.04119Z" fill="#1A1A1A"/>
<path fill-rule="evenodd" clip-rule="evenodd" d="M25.8276 24.0422L28.1612 19.497L40.0363 42.0064L38.7732 50.1657H37.1713L36.0873 52.0679L25.8276 24.0422Z" fill="#FFDC60"/>
<path d="M1.15268 70.2673L27.4167 19.1164C27.6268 18.7048 28.1305 18.5421 28.5422 18.7522C28.7016 18.8336 28.8239 18.9597 28.9014 19.1071L40.7778 41.616C40.8724 41.7959 40.895 41.9944 40.8558 42.1795L39.6 50.2934C39.536 50.7068 39.1794 51.0025 38.7733 51.0025L37.6564 51.0056L26.1887 71.1294C26.0352 71.4009 25.7519 71.5534 25.4604 71.5538L1.86262 71.5564C1.39898 71.5564 1.02271 71.1797 1.02271 70.7165C1.02271 70.5511 1.07043 70.3969 1.15268 70.2673ZM28.1702 21.3098L3.2335 69.8766H24.9754L36.4116 49.8076C36.5459 49.523 36.836 49.3257 37.1714 49.3257H38.0569L39.167 42.1543L28.1702 21.3098Z" fill="#1A1A1A"/>
<path d="M20.028 34.771C19.7023 34.4433 19.7037 33.9123 20.0314 33.5868C20.3595 33.2609 20.8905 33.2621 21.216 33.5898L28.0496 40.46L35.1988 33.3618C35.5265 33.0358 36.0575 33.0375 36.3831 33.3652C36.7091 33.693 36.7078 34.2235 36.3796 34.5494L28.6368 42.2374C28.3086 42.5634 27.7781 42.562 27.4522 42.234L20.028 34.771Z" fill="#1A1A1A"/>
<path d="M42.0028 30.1411C41.5391 30.1411 41.1633 29.7649 41.1633 29.3012C41.1633 28.8376 41.5391 28.4617 42.0028 28.4617H53.6529C54.1166 28.4617 54.4929 28.8376 54.4929 29.3012C54.4929 29.7649 54.1166 30.1411 53.6529 30.1411H42.0028Z" fill="#1A1A1A"/>
<path d="M12.3057 64.9619C12.1049 65.3787 11.6038 65.5529 11.1875 65.3522C10.7707 65.1511 10.596 64.6504 10.7971 64.2336L20.1951 44.7422C20.3958 44.3258 20.8974 44.1511 21.3137 44.3519C21.73 44.5529 21.9048 45.0541 21.7041 45.4704L12.3057 64.9619Z" fill="#1A1A1A"/>
</svg>
