<svg width="72" height="72" viewBox="0 0 72 72" fill="none" xmlns="http://www.w3.org/2000/svg">
<path fill-rule="evenodd" clip-rule="evenodd" d="M10.8402 13.7295C21.5988 2.97088 37.9572 1.22794 50.5329 8.49571C41.2425 7.7359 31.6908 10.9075 24.5834 18.0149C11.7415 30.8572 11.7415 51.6779 24.5834 64.5199C26.6668 66.6032 28.961 68.3466 31.3959 69.7537C23.9002 69.1403 16.5748 65.9692 10.8402 60.2346C-2.00175 47.3927 -2.00175 26.5718 10.8402 13.7295Z" fill="#FFDC60"/>
<path d="M10.2355 13.1252C16.8234 6.53684 25.4582 3.24252 34.0925 3.24252C42.7273 3.24252 51.3617 6.53684 57.9496 13.1243C64.5378 19.7131 67.8322 28.3474 67.8322 36.9821C67.8322 45.6165 64.5378 54.2518 57.95 60.8397C51.3645 67.425 42.729 70.7185 34.0925 70.7181V70.7214C25.4582 70.7214 16.8234 67.4271 10.2355 60.8392C3.6472 54.2513 0.353271 45.6165 0.353271 36.9821C0.353271 28.3474 3.6472 19.7131 10.2355 13.1252ZM11.4453 14.3345C5.19118 20.5886 2.06435 28.7854 2.06435 36.9821C2.06435 45.1785 5.19118 53.3757 11.4449 59.6294C17.6985 65.8835 25.8961 69.0108 34.0925 69.0108V69.0141C42.2872 69.0141 50.4844 65.886 56.7406 59.6303C62.9938 53.3765 66.1215 45.1785 66.1215 36.9821C66.1215 28.7854 62.9938 20.5882 56.7406 14.3345C50.4865 8.08082 42.2893 4.95358 34.0925 4.95358C25.8961 4.95358 17.6989 8.08082 11.4453 14.3345Z" fill="#1A1A1A"/>
<path d="M29.8456 32.7349C31.0186 31.5619 32.5556 30.9754 34.0925 30.9754C35.6273 30.9754 37.1631 31.5619 38.3361 32.7345H38.3394C39.5124 33.9074 40.0989 35.4448 40.0989 36.9821C40.0989 38.5191 39.5124 40.0569 38.3398 41.2295L38.2902 41.2749C37.1233 42.4173 35.6075 42.9885 34.0925 42.9885C32.5556 42.9885 31.0182 42.402 29.8456 41.2295C28.6727 40.0564 28.0862 38.5191 28.0862 36.9821C28.0862 35.4448 28.6727 33.9078 29.8456 32.7349ZM31.0554 33.9443C30.2166 34.7831 29.7968 35.8829 29.7968 36.9821C29.7968 38.0815 30.2166 39.1813 31.055 40.0197C31.8934 40.8581 32.9935 41.2779 34.0925 41.2779C35.1757 41.2779 36.2585 40.8726 37.0923 40.0607L37.1304 40.0201C37.9684 39.1817 38.3882 38.0815 38.3882 36.9821C38.3882 35.8829 37.9684 34.7826 37.1304 33.9447C36.2929 33.1055 35.1931 32.6865 34.0925 32.6865C32.9935 32.6865 31.8938 33.1059 31.0554 33.9443Z" fill="#1A1A1A"/>
<path d="M34.697 37.587C34.3633 37.9209 33.8215 37.9209 33.4876 37.587C33.1539 37.2533 33.1539 36.7111 33.4876 36.3772L63.5082 6.35755C63.842 6.02381 64.3838 6.02381 64.7176 6.35755C65.0514 6.69129 65.0514 7.23309 64.7176 7.56694L34.697 37.587Z" fill="#1A1A1A"/>
<path fill-rule="evenodd" clip-rule="evenodd" d="M59.0885 11.9861V2.63288L47.8574 13.8638V23.217H57.2111L68.4417 11.9861H59.0885Z" fill="white"/>
<path d="M58.2328 11.9861V4.69805L48.7128 14.2179V22.3618H56.8567L66.3771 12.8415H59.0886C58.6158 12.8415 58.2328 12.4585 58.2328 11.9861ZM59.9439 2.63292V11.1308H68.4418C68.6605 11.1308 68.8797 11.2144 69.0468 11.3815C69.3806 11.7153 69.3806 12.2571 69.0468 12.5908L57.8159 23.8218C57.6607 23.9765 57.4474 24.0725 57.2112 24.0725H47.8575C47.3852 24.0725 47.0022 23.6894 47.0022 23.2171V13.8639C47.0022 13.6451 47.0857 13.4259 47.2528 13.2589L58.4834 2.02823C58.6381 1.87311 58.8523 1.7776 59.0886 1.7776C59.5609 1.7776 59.9439 2.16058 59.9439 2.63292Z" fill="#1A1A1A"/>
<path fill-rule="evenodd" clip-rule="evenodd" d="M47.8574 23.217L59.0885 11.9861V2.63288L54.6236 7.09772V13.3663L47.8574 20.1321V23.217Z" fill="#FFDC60"/>
<path fill-rule="evenodd" clip-rule="evenodd" d="M47.8574 23.217L59.0885 11.9861H68.4417L63.9768 16.4514H57.7082L50.9421 23.217H47.8574Z" fill="#FFDC60"/>
<path d="M37.1305 41.2296C36.7967 40.8958 36.7967 40.354 37.1305 40.0203C37.4643 39.6864 38.0061 39.6864 38.3399 40.0203L49.8963 51.5767C50.2302 51.9105 50.2302 52.4523 49.8963 52.7861C49.5626 53.1198 49.0208 53.1198 48.6869 52.7861L37.1305 41.2296Z" fill="#1A1A1A"/>
<path d="M31.0551 32.735C31.3888 33.0687 31.3888 33.6109 31.0551 33.9448C30.7213 34.2785 30.1794 34.2785 29.8457 33.9448L27.2598 31.3585C26.9261 31.0247 26.9261 30.4829 27.2598 30.1491C27.5936 29.8154 28.1355 29.8154 28.4692 30.1491L31.0551 32.735Z" fill="#1A1A1A"/>
<path d="M9.8545 1.9555C9.52073 1.62165 9.52073 1.07985 9.8545 0.746109C10.1883 0.412369 10.7301 0.412369 11.0643 0.746109L12.2012 1.88307L13.3387 0.746109C13.6725 0.412369 14.2147 0.412369 14.5484 0.746109C14.8823 1.07985 14.8823 1.62165 14.5484 1.9555L13.4106 3.09289L14.5484 4.23028C14.8823 4.56402 14.8823 5.10593 14.5484 5.43967C14.2147 5.77341 13.6725 5.77341 13.3387 5.43967L12.2012 4.30228L11.0639 5.43967C10.7301 5.77341 10.1879 5.77341 9.85409 5.43967C9.52032 5.10593 9.52032 4.56402 9.85409 4.23028L10.992 3.09289L9.8545 1.9555ZM66.0135 55.8955C65.6798 55.5617 65.6798 55.0199 66.0135 54.6861C66.3473 54.3523 66.8891 54.3523 67.2229 54.6861L68.3603 55.8236L69.4977 54.6861C69.8315 54.3523 70.3738 54.3523 70.7075 54.6861C71.0412 55.0199 71.0412 55.5617 70.7075 55.8955L69.5697 57.0333L70.7075 58.1703C71.0412 58.5041 71.0412 59.0463 70.7075 59.3797C70.3738 59.7135 69.8315 59.7135 69.4977 59.3797L68.3603 58.2427L67.2229 59.3797C66.8891 59.7135 66.3473 59.7135 66.0135 59.3797C65.6798 59.0463 65.6798 58.5041 66.0135 58.1703L67.1509 57.0333L66.0135 55.8955ZM55.0886 66.82C54.7548 66.4862 54.7548 65.9444 55.0886 65.6106C55.4224 65.2768 55.9646 65.2768 56.2984 65.6106L57.4358 66.748L58.5732 65.6106C58.907 65.2768 59.4492 65.2768 59.783 65.6106C60.1168 65.9444 60.1168 66.4862 59.783 66.82L58.6456 67.9574L59.783 69.0952C60.1168 69.429 60.1168 69.9708 59.783 70.3046C59.4492 70.6384 58.907 70.6384 58.5732 70.3046L57.4358 69.1672L56.2984 70.3046C55.9646 70.6384 55.4224 70.6384 55.0886 70.3046C54.7548 69.9708 54.7548 69.429 55.0886 69.0952L56.2264 67.9574L55.0886 66.82ZM7.46471 67.5033C7.13094 67.1695 7.13094 66.6273 7.46471 66.2935C7.79848 65.9597 8.34072 65.9597 8.6745 66.2935L9.81149 67.4309L10.9493 66.2935C11.2827 65.9597 11.8249 65.9597 12.1587 66.2935C12.4924 66.6273 12.4924 67.1695 12.1587 67.5033L11.0213 68.6403L12.1587 69.7781C12.4924 70.1115 12.4924 70.6537 12.1587 70.9875C11.8249 71.3212 11.2827 71.3212 10.9493 70.9875L9.81149 69.8501L8.67409 70.9875C8.3403 71.3212 7.79807 71.3212 7.46471 70.9875C7.13094 70.6537 7.13094 70.1115 7.46471 69.7781L8.60212 68.6403L7.46471 67.5033ZM0.326749 10.5435C-0.00702845 10.2098 -0.00702845 9.66797 0.326749 9.33413C0.660527 9.00038 1.20235 9.00038 1.53612 9.33413L2.67353 10.4715L3.81094 9.33413C4.14471 9.00038 4.68654 9.00038 5.02032 9.33413C5.35409 9.66797 5.35409 10.2098 5.02032 10.5435L3.88291 11.6813L5.02032 12.8187C5.35409 13.1526 5.35409 13.6944 5.02032 14.0281C4.68654 14.3619 4.14471 14.3619 3.81094 14.0281L2.67353 12.8907L1.53612 14.0281C1.20235 14.3619 0.660527 14.3619 0.326749 14.0281C-0.00702845 13.6944 -0.00702845 13.1526 0.326749 12.8187L1.46415 11.6813L0.326749 10.5435Z" fill="#63E9A4"/>
<path d="M32.9551 7.39568C32.9551 6.92334 33.3381 6.54036 33.8104 6.54036C34.2827 6.54036 34.6657 6.92334 34.6657 7.39568V14.953C34.6657 15.4254 34.2827 15.8083 33.8104 15.8083C33.3381 15.8083 32.9551 15.4254 32.9551 14.953V7.39568Z" fill="#1A1A1A"/>
<path d="M63.679 35.8448C64.1518 35.8448 64.5348 36.2278 64.5348 36.7001C64.5348 37.1724 64.1518 37.5554 63.679 37.5554H56.1217C55.6493 37.5554 55.2664 37.1724 55.2664 36.7001C55.2664 36.2278 55.6493 35.8448 56.1217 35.8448H63.679Z" fill="#1A1A1A"/>
<path d="M35.23 66.569C35.23 67.0413 34.8474 67.4243 34.3746 67.4243C33.9024 67.4243 33.5193 67.0413 33.5193 66.569V59.0112C33.5193 58.5389 33.9024 58.1559 34.3746 58.1559C34.8474 58.1559 35.23 58.5389 35.23 59.0112V66.569Z" fill="#1A1A1A"/>
<path d="M4.50613 38.1196C4.03339 38.1196 3.65039 37.7365 3.65039 37.2642C3.65039 36.7919 4.03339 36.4089 4.50613 36.4089H12.0631C12.5354 36.4089 12.9184 36.7919 12.9184 37.2642C12.9184 37.7365 12.5354 38.1196 12.0631 38.1196H4.50613Z" fill="#1A1A1A"/>
<path d="M4.50613 38.1196C4.03339 38.1196 3.65039 37.7365 3.65039 37.2642C3.65039 36.7919 4.03339 36.4089 4.50613 36.4089H9.20507C9.6774 36.4089 10.0604 36.7919 10.0604 37.2642C10.0604 37.7365 9.6774 38.1196 9.20507 38.1196H4.50613Z" fill="#1A1A1A"/>
<path d="M7.90094 23.1716C7.49353 22.9349 7.35415 22.4131 7.59032 22.0052C7.82649 21.5978 8.34887 21.4584 8.75668 21.6946L12.8262 24.0443C13.2335 24.2808 13.3729 24.8028 13.1367 25.2107C12.9006 25.618 12.3782 25.7575 11.9708 25.5212L7.90094 23.1716Z" fill="#1A1A1A"/>
<path d="M18.3168 11.9248C18.0827 11.517 18.2233 10.9963 18.6308 10.7622C19.0386 10.5281 19.5597 10.6683 19.7938 11.0761L22.1427 15.1451C22.3768 15.553 22.2366 16.0741 21.8287 16.3082C21.4214 16.5423 20.9003 16.4017 20.6662 15.9943L18.3168 11.9248Z" fill="#1A1A1A"/>
<path d="M60.281 50.793C60.6884 51.0271 60.829 51.5482 60.5949 51.9556C60.3608 52.3634 59.8397 52.5036 59.4323 52.2695L55.3624 49.9203C54.9551 49.6862 54.8144 49.165 55.0485 48.7576C55.2826 48.3498 55.8038 48.2092 56.2112 48.4436L60.281 50.793Z" fill="#1A1A1A"/>
<path d="M49.8683 62.0396C50.1025 62.4475 49.9618 62.9686 49.5545 63.2027C49.1466 63.4368 48.6259 63.2962 48.3918 62.8888L46.0422 58.8189C45.8081 58.4115 45.9487 57.8904 46.3561 57.6563C46.7635 57.4221 47.2846 57.5628 47.5187 57.9702L49.8683 62.0396Z" fill="#1A1A1A"/>
<path d="M20.2818 63.1738C20.0455 63.5812 19.5232 63.7206 19.1158 63.4844C18.7084 63.2482 18.569 62.7258 18.8051 62.3184L21.1549 58.249C21.391 57.8416 21.9134 57.7022 22.3209 57.9384C22.7286 58.1746 22.8681 58.6969 22.6314 59.1043L20.2818 63.1738Z" fill="#1A1A1A"/>
<path d="M9.03889 52.7583C8.63107 52.9945 8.10911 52.8551 7.87253 52.4477C7.63636 52.0399 7.77575 51.518 8.18356 51.2813L12.253 48.9317C12.6604 48.6955 13.1828 48.8349 13.4189 49.2422C13.6551 49.6501 13.5157 50.1721 13.1084 50.4082L9.03889 52.7583Z" fill="#1A1A1A"/>
<path d="M58.2328 11.9861V4.69805L48.7128 14.2179V22.3618H56.8567L66.3771 12.8415H59.0886C58.6158 12.8415 58.2328 12.4585 58.2328 11.9861ZM59.9439 2.63292V11.1308H68.4418C68.6605 11.1308 68.8797 11.2144 69.0468 11.3815C69.3806 11.7153 69.3806 12.2571 69.0468 12.5908L57.8159 23.8218C57.6607 23.9765 57.4474 24.0725 57.2112 24.0725H47.8575C47.3852 24.0725 47.0022 23.6894 47.0022 23.2171V13.8639C47.0022 13.6451 47.0857 13.4259 47.2528 13.2589L58.4834 2.02823C58.6381 1.87311 58.8523 1.7776 59.0886 1.7776C59.5609 1.7776 59.9439 2.16058 59.9439 2.63292Z" fill="#1A1A1A"/>
</svg>
