<svg width="75" height="75" viewBox="0 0 75 75" fill="none" xmlns="http://www.w3.org/2000/svg">
<path fill-rule="evenodd" clip-rule="evenodd" d="M56.2149 20.8596C56.8007 20.2739 56.8007 19.3241 56.2149 18.7383C55.6291 18.1525 54.6794 18.1525 54.0936 18.7383L37.4766 35.3553L20.8596 18.7383C20.2738 18.1525 19.324 18.1525 18.7382 18.7383C18.1524 19.3241 18.1524 20.2739 18.7382 20.8596L35.3552 37.4767L18.7382 54.0937C18.1524 54.6795 18.1524 55.6292 18.7382 56.215C19.324 56.8008 20.2738 56.8008 20.8596 56.215L37.4766 39.598L54.0936 56.215C54.6794 56.8008 55.6291 56.8008 56.2149 56.215C56.8007 55.6292 56.8007 54.6795 56.2149 54.0937L39.5979 37.4767L56.2149 20.8596Z" fill="black"/>
</svg>
