<svg width="60" height="61" viewBox="0 0 60 61" fill="none" xmlns="http://www.w3.org/2000/svg">
<path d="M59.8897 14.7295C59.6832 13.9615 59.1794 13.3067 58.49 12.9097C57.8002 12.5108 56.98 12.4029 56.2106 12.6094C55.4422 12.8165 54.7875 13.3199 54.3906 14.0093L53.8907 14.8794C53.4157 14.6065 52.8089 14.7671 52.5311 15.2398L49.9915 19.5694L49.1215 19.0694C48.8911 18.9361 48.6167 18.9 48.3599 18.9693C48.1026 19.0391 47.8839 19.2081 47.7516 19.4395C47.4807 19.9175 47.6457 20.525 48.1217 20.7994L48.9916 21.2994L40.4931 36.0294L38.3933 41.6397L37.3935 43.5093C36.8082 44.5279 36.8707 45.794 37.5536 46.7496L35.304 49.5093L34.6743 47.9297C34.3901 47.2256 33.7325 46.7432 32.9763 46.6841C32.2196 46.6246 31.4946 46.9986 31.1046 47.6495L30.7447 48.2593L30.405 44.2593C30.3269 43.3131 29.5941 42.5523 28.6518 42.4381C27.7091 42.3243 26.8167 42.8892 26.5155 43.7896L24.0559 51.1695C23.8841 51.6915 24.1653 52.254 24.6857 52.4297C24.7834 52.4752 24.8883 52.5025 24.9957 52.5093C25.4253 52.5108 25.8081 52.2369 25.9458 51.8297L28.3951 44.4498L28.7451 48.5093C28.8173 49.3755 29.4398 50.0958 30.2863 50.2921C31.1329 50.4883 32.0087 50.1153 32.4544 49.3697L32.8245 48.7593L33.4445 50.3297C33.7076 50.9913 34.3027 51.4634 35.0072 51.5684C35.7117 51.6734 36.4186 51.3956 36.8638 50.8394L39.1935 47.8897C39.4513 47.9571 39.7169 47.9908 39.9834 47.9898C41.055 47.9981 42.05 47.4337 42.5928 46.5093L43.5927 44.8394L47.4021 40.2095L55.9904 25.2994L56.8604 25.7994C57.0923 25.9322 57.2612 26.1514 57.3301 26.4097C57.3994 26.6661 57.3633 26.9395 57.2305 27.1695L53.2311 34.0997C53.0803 34.3272 53.029 34.6065 53.0896 34.8731C53.1501 35.1392 53.3166 35.3692 53.5509 35.5093C53.7813 35.6431 54.0557 35.6793 54.3125 35.6099C54.5698 35.5401 54.7885 35.3712 54.9208 35.1397L58.9201 28.2095C59.319 27.5196 59.4269 26.6993 59.2199 25.9297C59.0129 25.1612 58.5095 24.5064 57.8202 24.1094L56.9502 23.6094L59.4498 19.2794C59.7227 18.8043 59.5621 18.1978 59.09 17.9195L59.5899 17.0494C59.9995 16.3487 60.1079 15.5118 59.8897 14.7295ZM56.1203 15.0093C56.2526 14.7779 56.4723 14.6085 56.7306 14.5396C56.9873 14.4761 57.2588 14.5118 57.4902 14.6397C57.7221 14.772 57.891 14.9918 57.9603 15.2496C58.0238 15.5064 57.9882 15.7779 57.8602 16.0093L57.3603 16.8795L55.6204 15.8795L56.1203 15.0093ZM42.4927 42.9298L41.9928 42.6397L40.5131 41.7794L41.9328 37.9796L45.0821 39.7994L42.4927 42.9298ZM39.4933 45.8194C39.071 45.525 38.9411 44.9586 39.1935 44.5093L39.6934 43.6397L41.4329 44.6397L40.933 45.4996C40.7928 45.7427 40.5575 45.9156 40.2836 45.9766C40.0098 46.0372 39.7232 45.9805 39.4933 45.8194ZM46.2221 38.1597L42.7627 36.1597L50.7614 22.2994L54.2207 24.2994L46.2221 38.1597ZM55.2206 22.5694L51.7612 20.5694L53.7608 17.1094L57.2202 19.1094L55.2206 22.5694Z" fill="#61E5A1"/>
<path d="M15.7771 45.3205L12.2381 48.8501L10.1184 46.7304C9.72829 46.3428 9.09852 46.3428 8.70845 46.7304C8.51902 46.9183 8.4126 47.1737 8.4126 47.4402C8.4126 47.7068 8.51902 47.9626 8.70845 48.1501L10.8282 50.2698C11.2031 50.6418 11.7099 50.8503 12.2381 50.8498C12.7693 50.8527 13.2804 50.6443 13.6578 50.2698L17.187 46.7304C17.5268 46.3335 17.5038 45.7423 17.1347 45.3732C16.7652 45.0036 16.174 44.9807 15.7771 45.3205Z" fill="#61E5A1"/>
<path d="M3.99927 48.0095C3.99927 52.7043 7.80428 56.5095 12.4978 56.5095C17.1914 56.5095 20.9964 52.7043 20.9964 48.0095C20.9964 47.4573 20.5487 47.0095 19.9965 47.0095C19.4444 47.0095 18.9967 47.4573 18.9967 48.0095C18.9967 51.5993 16.0871 54.5095 12.4978 54.5095C8.90859 54.5095 5.99893 51.5993 5.99893 48.0095C5.99893 44.4197 8.90859 41.5095 12.4978 41.5095C13.9048 41.5056 15.2742 41.9621 16.3971 42.8098C16.8389 43.1413 17.4657 43.0515 17.7967 42.6096C18.1282 42.1677 18.0389 41.5412 17.597 41.2097C15.0218 39.278 11.5761 38.9675 8.6972 40.407C5.81781 41.8469 3.99927 44.7903 3.99927 48.0095Z" fill="#61E5A1"/>
<path d="M35.9939 8.50977C36.5461 8.50977 36.9938 8.0625 36.9938 7.50977C36.9938 6.95752 36.5461 6.50977 35.9939 6.50977H9.99837C9.44621 6.50977 8.99854 6.95752 8.99854 7.50977V11.5098C8.99854 12.0625 9.44621 12.5098 9.99837 12.5098H35.9939C36.5461 12.5098 36.9938 12.0625 36.9938 11.5098C36.9938 10.9575 36.5461 10.5098 35.9939 10.5098H10.9982V8.50977H35.9939Z" fill="#61E5A1"/>
<path d="M12.9978 14.5098C12.4456 14.5098 11.9979 14.9574 11.9979 15.5096C11.9979 16.0622 12.4456 16.5094 12.9978 16.5094H32.9944C33.5465 16.5094 33.9942 16.0622 33.9942 15.5096C33.9942 14.9574 33.5465 14.5098 32.9944 14.5098H12.9978Z" fill="#61E5A1"/>
<path d="M38.9934 21.5098H16.9971C16.445 21.5098 15.9973 21.9574 15.9973 22.5096C15.9973 23.0622 16.445 23.5094 16.9971 23.5094H38.9934C39.5455 23.5094 39.9932 23.0622 39.9932 22.5096C39.9932 21.9574 39.5455 21.5098 38.9934 21.5098Z" fill="#61E5A1"/>
<path d="M28.995 28.5106C28.995 27.9584 28.5474 27.5107 27.9952 27.5107H7.99861C7.44646 27.5107 6.99878 27.9584 6.99878 28.5106C6.99878 29.0632 7.44646 29.5104 7.99861 29.5104H27.9952C28.5474 29.5104 28.995 29.0632 28.995 28.5106Z" fill="#61E5A1"/>
<path d="M38.9934 27.5107H31.9946C31.4424 27.5107 30.9948 27.9584 30.9948 28.5106C30.9948 29.0632 31.4424 29.5104 31.9946 29.5104H38.9934C39.5455 29.5104 39.9932 29.0632 39.9932 28.5106C39.9932 27.9584 39.5455 27.5107 38.9934 27.5107Z" fill="#61E5A1"/>
<path d="M17.9969 34.5104C18.5491 34.5104 18.9967 34.0632 18.9967 33.5106C18.9967 32.9584 18.5491 32.5107 17.9969 32.5107H7.99861C7.44646 32.5107 6.99878 32.9584 6.99878 33.5106C6.99878 34.0632 7.44646 34.5104 7.99861 34.5104H17.9969Z" fill="#61E5A1"/>
<path d="M21.9963 34.5104H28.9951C29.5472 34.5104 29.9949 34.0632 29.9949 33.5106C29.9949 32.9584 29.5472 32.5107 28.9951 32.5107H21.9963C21.4441 32.5107 20.9965 32.9584 20.9965 33.5106C20.9965 34.0632 21.4441 34.5104 21.9963 34.5104Z" fill="#61E5A1"/>
<path d="M44.9923 46.5098C44.4402 46.5098 43.9925 46.9575 43.9925 47.5098V57.5098C43.9925 58.0625 43.5448 58.5098 42.9927 58.5098H2.99949C2.44734 58.5098 1.99966 58.0625 1.99966 57.5098V3.50977C1.99966 2.95752 2.44734 2.50977 2.99949 2.50977H42.9927C43.5448 2.50977 43.9925 2.95752 43.9925 3.50977V22.29C43.9925 22.8423 44.4402 23.29 44.9923 23.29C45.5445 23.29 45.9922 22.8423 45.9922 22.29V3.50977C45.9922 1.85303 44.6491 0.509766 42.9927 0.509766H2.99949C1.34303 0.509766 0 1.85303 0 3.50977V57.5098C0 59.167 1.34303 60.5098 2.99949 60.5098H42.9927C44.6491 60.5098 45.9922 59.167 45.9922 57.5098V47.5098C45.9922 46.9575 45.5445 46.5098 44.9923 46.5098Z" fill="#61E5A1"/>
</svg>
