<svg width="49" height="50" viewBox="0 0 49 50" fill="none" xmlns="http://www.w3.org/2000/svg">
<circle cx="24.5" cy="25" r="24.5" fill="#61E5A1"/>
<path d="M7.51579 26.3867V24.4209H13.4606V26.3867H7.51579ZM17.5806 19.0943H19.4829V30.1914H17.2952V21.4089L15.2026 21.9954L14.6636 20.1248L17.5806 19.0943ZM25.6135 30.4133C24.229 30.4133 23.1405 29.8902 22.3478 28.8439C21.5658 27.787 21.1747 26.3867 21.1747 24.6429C21.1747 22.8991 21.5658 21.504 22.3478 20.4577C23.1405 19.4008 24.229 18.8724 25.6135 18.8724C27.0086 18.8724 28.0972 19.4008 28.8792 20.4577C29.6613 21.504 30.0524 22.8991 30.0524 24.6429C30.0524 26.3867 29.6613 27.787 28.8792 28.8439C28.0972 29.8902 27.0086 30.4133 25.6135 30.4133ZM23.9331 27.3537C24.3136 27.9667 24.8737 28.2732 25.6135 28.2732C26.3533 28.2732 26.9135 27.9614 27.2939 27.3379C27.685 26.7143 27.8805 25.816 27.8805 24.6429C27.8805 23.4592 27.685 22.5556 27.2939 21.932C26.9135 21.3085 26.3533 20.9967 25.6135 20.9967C24.8737 20.9967 24.3136 21.3085 23.9331 21.932C23.5527 22.5556 23.3624 23.4592 23.3624 24.6429C23.3624 25.8266 23.5527 26.7302 23.9331 27.3537ZM35.9002 23.3588C35.3929 23.8555 34.7588 24.1039 33.9979 24.1039C33.2369 24.1039 32.5975 23.8502 32.0797 23.3429C31.5724 22.8356 31.3187 22.2174 31.3187 21.4881C31.3187 20.7589 31.5724 20.1406 32.0797 19.6333C32.5975 19.1261 33.2369 18.8724 33.9979 18.8724C34.7588 18.8724 35.3929 19.1261 35.9002 19.6333C36.4075 20.1301 36.6612 20.7483 36.6612 21.4881C36.6612 22.2279 36.4075 22.8515 35.9002 23.3588ZM32.4443 28.511L39.6732 20.4736L40.6403 21.0126L33.3955 29.0658L32.4443 28.511ZM33.2686 22.2174C33.4589 22.4076 33.6967 22.5027 33.982 22.5027C34.2674 22.5027 34.5052 22.4076 34.6954 22.2174C34.8856 22.0166 34.9808 21.7735 34.9808 21.4881C34.9808 21.2028 34.8856 20.965 34.6954 20.7748C34.5052 20.5845 34.2674 20.4894 33.982 20.4894C33.6967 20.4894 33.4589 20.5845 33.2686 20.7748C33.089 20.965 32.9991 21.2028 32.9991 21.4881C32.9991 21.7735 33.089 22.0166 33.2686 22.2174ZM41.2585 29.6207C40.7512 30.128 40.1171 30.3816 39.3562 30.3816C38.5952 30.3816 37.9611 30.128 37.4538 29.6207C36.9465 29.1134 36.6929 28.4951 36.6929 27.7659C36.6929 27.0367 36.9465 26.4184 37.4538 25.9111C37.9611 25.4038 38.5952 25.1502 39.3562 25.1502C40.1171 25.1502 40.7512 25.4038 41.2585 25.9111C41.7658 26.4184 42.0195 27.0367 42.0195 27.7659C42.0195 28.4951 41.7658 29.1134 41.2585 29.6207ZM38.6428 28.4951C38.833 28.6854 39.0708 28.7805 39.3562 28.7805C39.6415 28.7805 39.874 28.6801 40.0537 28.4793C40.2439 28.2785 40.3391 28.0407 40.3391 27.7659C40.3391 27.4806 40.2439 27.2428 40.0537 27.0525C39.874 26.8517 39.6415 26.7513 39.3562 26.7513C39.0708 26.7513 38.833 26.8517 38.6428 27.0525C38.4631 27.2428 38.3733 27.4806 38.3733 27.7659C38.3733 28.0513 38.4631 28.2943 38.6428 28.4951Z" fill="white"/>
</svg>
