<svg width="49" height="61" viewBox="0 0 49 61" fill="none" xmlns="http://www.w3.org/2000/svg">
<path d="M13.1956 23.2715H13.1663C12.6809 23.2715 12.2874 23.6649 12.2874 24.1504C12.2874 24.6358 12.6808 25.0293 13.1663 25.0293H13.1956C13.6811 25.0293 14.0745 24.6359 14.0745 24.1504C14.0746 23.665 13.6812 23.2715 13.1956 23.2715Z" fill="#61E5A1"/>
<path d="M22.0494 23.2715H21.9872C21.5017 23.2715 21.1083 23.6649 21.1083 24.1504C21.1083 24.6359 21.5017 25.0293 21.9872 25.0293H22.0494C22.5349 25.0293 22.9283 24.6359 22.9283 24.1504C22.9283 23.665 22.5349 23.2715 22.0494 23.2715Z" fill="#61E5A1"/>
<path d="M17.6225 23.2715H17.5602C17.0747 23.2715 16.6813 23.6649 16.6813 24.1504C16.6813 24.6359 17.0747 25.0293 17.5602 25.0293H17.6225C18.108 25.0293 18.5014 24.6359 18.5014 24.1504C18.5014 23.665 18.108 23.2715 17.6225 23.2715Z" fill="#61E5A1"/>
<path d="M26.4432 23.2715H26.4139C25.9284 23.2715 25.535 23.6649 25.535 24.1504C25.535 24.6359 25.9284 25.0293 26.4139 25.0293H26.4432C26.9287 25.0293 27.3221 24.6359 27.3221 24.1504C27.3221 23.665 26.9287 23.2715 26.4432 23.2715Z" fill="#61E5A1"/>
<path d="M32.9522 32.0635H13.1663C12.6809 32.0635 12.2874 32.4569 12.2874 32.9424C12.2874 33.4279 12.6809 33.8213 13.1663 33.8213H32.9522C33.4377 33.8213 33.8311 33.4279 33.8311 32.9424C33.8311 32.457 33.4377 32.0635 32.9522 32.0635Z" fill="#61E5A1"/>
<path d="M32.9522 28.4248H13.1663C12.6809 28.4248 12.2874 28.8182 12.2874 29.3037C12.2874 29.7892 12.6809 30.1826 13.1663 30.1826H32.9522C33.4377 30.1826 33.8311 29.7892 33.8311 29.3037C33.8311 28.8182 33.4377 28.4248 32.9522 28.4248Z" fill="#61E5A1"/>
<path d="M32.9522 35.7012H13.1663C12.6809 35.7012 12.2874 36.0946 12.2874 36.5801C12.2874 37.0656 12.6809 37.459 13.1663 37.459H32.9522C33.4377 37.459 33.8311 37.0656 33.8311 36.5801C33.8311 36.0946 33.4377 35.7012 32.9522 35.7012Z" fill="#61E5A1"/>
<path d="M32.9522 39.3389H13.1663C12.6809 39.3389 12.2874 39.7323 12.2874 40.2178C12.2874 40.7033 12.6809 41.0967 13.1663 41.0967H32.9522C33.4377 41.0967 33.8311 40.7033 33.8311 40.2178C33.8311 39.7324 33.4377 39.3389 32.9522 39.3389Z" fill="#61E5A1"/>
<path d="M32.9522 46.6143H13.1663C12.6809 46.6143 12.2874 47.0077 12.2874 47.4932C12.2874 47.9787 12.6809 48.3721 13.1663 48.3721H32.9522C33.4377 48.3721 33.8311 47.9787 33.8311 47.4932C33.8311 47.0077 33.4377 46.6143 32.9522 46.6143Z" fill="#61E5A1"/>
<path d="M32.9522 42.9766H13.1663C12.6809 42.9766 12.2874 43.37 12.2874 43.8555C12.2874 44.341 12.6809 44.7344 13.1663 44.7344H32.9522C33.4377 44.7344 33.8311 44.341 33.8311 43.8555C33.8311 43.3701 33.4377 42.9766 32.9522 42.9766Z" fill="#61E5A1"/>
<path d="M8.7327 28.4248H7.90746C6.64746 28.4248 5.62219 29.45 5.62219 30.7101V31.5353C5.62219 32.7953 6.64735 33.8206 7.90746 33.8206H8.7327C9.99269 33.8206 11.018 32.7954 11.018 31.5353V30.7101C11.018 29.45 9.99269 28.4248 8.7327 28.4248ZM9.26004 31.5353C9.26004 31.8211 9.01852 32.0627 8.7327 32.0627H7.90746C7.62164 32.0627 7.38012 31.8211 7.38012 31.5353V30.7101C7.38012 30.4243 7.62164 30.1827 7.90746 30.1827H8.7327C9.01852 30.1827 9.26004 30.4243 9.26004 30.7101V31.5353Z" fill="#61E5A1"/>
<path d="M8.7327 35.7012H7.90746C6.64746 35.7012 5.62219 36.7263 5.62219 37.9864V38.8117C5.62219 40.0717 6.64735 41.0969 7.90746 41.0969H8.7327C9.99269 41.0969 11.018 40.0718 11.018 38.8117V37.9864C11.018 36.7263 9.99269 35.7012 8.7327 35.7012ZM9.26004 38.8117C9.26004 39.0976 9.01852 39.339 8.7327 39.339H7.90746C7.62164 39.339 7.38012 39.0976 7.38012 38.8117V37.9864C7.38012 37.7006 7.62164 37.4591 7.90746 37.4591H8.7327C9.01852 37.4591 9.26004 37.7006 9.26004 37.9864V38.8117Z" fill="#61E5A1"/>
<path d="M8.7327 42.9766H7.90746C6.64746 42.9766 5.62219 44.0017 5.62219 45.2618V46.0869C5.62219 47.3469 6.64735 48.3722 7.90746 48.3722H8.7327C9.99269 48.3722 11.018 47.3471 11.018 46.0869V45.2618C11.018 44.0017 9.99269 42.9766 8.7327 42.9766ZM9.26004 46.0869C9.26004 46.3729 9.01852 46.6143 8.7327 46.6143H7.90746C7.62164 46.6143 7.38012 46.3729 7.38012 46.0869V45.2618C7.38012 44.976 7.62164 44.7345 7.90746 44.7345H8.7327C9.01852 44.7345 9.26004 44.976 9.26004 45.2618V46.0869Z" fill="#61E5A1"/>
<path d="M28.4485 9.1264H25.1467V5.68566C25.1467 2.82629 22.8204 0.5 19.9609 0.5C17.1015 0.5 14.7752 2.8264 14.7752 5.68566V9.1264H2.60859C1.17023 9.1264 0 10.2965 0 11.735V57.8897C0 59.1474 0.910429 60.2589 2.20183 60.4645C2.52386 60.5167 2.52211 60.4949 6.26906 60.4983C6.75456 60.4983 7.14796 60.1049 7.14796 59.6194C7.14796 59.1339 6.75456 58.7405 6.26906 58.7405C2.35629 58.7384 2.60636 58.7481 2.47394 58.7278C2.06742 58.665 1.75793 58.3097 1.75793 57.8899V11.735C1.75793 11.2659 2.13949 10.8843 2.60859 10.8843H14.7751V15.7606C14.7751 17.8285 16.4573 19.5107 18.5252 19.5107C20.5931 19.5107 22.2753 17.8285 22.2753 15.7606V10.8843H28.4484C28.9339 10.8843 29.3273 10.4909 29.3273 10.0054C29.3274 9.51991 28.934 9.1264 28.4485 9.1264ZM20.5175 15.7607C20.5175 16.8592 19.6238 17.753 18.5252 17.753C17.4267 17.753 16.5329 16.8594 16.5329 15.7607V10.8843H17.6462V15.7968C17.6462 16.2823 18.0396 16.6757 18.5251 16.6757C19.0106 16.6757 19.404 16.2823 19.404 15.7968V10.8843H20.5173V15.7607H20.5175ZM20.5175 9.1264H19.4042V5.74015C19.4042 5.43324 19.654 5.18351 19.9609 5.18351C20.2678 5.18351 20.5175 5.43324 20.5175 5.74015V9.1264ZM23.3887 9.1264H22.2754V5.74015C22.2754 4.46386 21.2373 3.42558 19.9609 3.42558C18.6845 3.42558 17.6463 4.46375 17.6463 5.74015V9.1264H16.533V5.68566C16.533 3.79543 18.0706 2.25781 19.9609 2.25781C21.8511 2.25781 23.3887 3.79543 23.3887 5.68566V9.1264Z" fill="#61E5A1"/>
<path d="M48.9165 54.034L47.8776 49.7975C47.7619 49.3263 47.2858 49.0369 46.8147 49.1532C46.3433 49.2687 46.0549 49.7448 46.1704 50.2161L47.2093 54.4528C47.3001 54.8228 47.1312 55.2097 46.7984 55.3959C46.796 55.3973 46.7936 55.3985 46.7913 55.3999C46.7673 55.413 46.741 55.4256 46.7067 55.4401L46.6507 55.4616C46.6297 55.4689 46.6086 55.4759 46.5856 55.4815L39.9221 57.1156V24.7376C40.4968 27.081 44.5632 43.6631 45.1906 46.2211C45.3062 46.6923 45.7821 46.9808 46.2535 46.8653C46.7249 46.7498 47.0133 46.2738 46.8978 45.8025C46.8241 45.5019 39.9957 17.6577 39.9221 17.3572V11.7346C39.9221 10.2963 38.752 9.12598 37.3135 9.12598H32.5503C32.0648 9.12598 31.6714 9.51937 31.6714 10.0049C31.6714 10.4904 32.0648 10.8838 32.5503 10.8838H37.3135C37.7826 10.8838 38.1642 11.2653 38.1642 11.7345C38.1642 13.3038 38.1642 55.4142 38.1642 57.8892C38.1642 58.2699 37.9087 58.6048 37.5419 58.707C37.3561 58.7552 39.1218 58.7378 10.3708 58.7398C9.88534 58.7398 9.49194 59.1332 9.49194 59.6187C9.49194 60.1042 9.88546 60.4976 10.3708 60.4976C39.156 60.494 37.3125 60.5071 37.5353 60.487C38.4589 60.4088 39.2793 59.8404 39.6777 58.9854L47.0033 57.189C47.0726 57.1721 47.1419 57.1515 47.2126 57.1272C47.2448 57.1165 47.2764 57.1051 47.3118 57.0916C47.3396 57.0809 47.3671 57.0694 47.3943 57.0578C47.4766 57.0233 47.557 56.9846 47.6331 56.943C47.6346 56.9422 47.636 56.9413 47.6374 56.9406C48.6711 56.3737 49.1972 55.1785 48.9165 54.034Z" fill="#61E5A1"/>
</svg>
