<svg width="50" height="61" viewBox="0 0 50 61" fill="none" xmlns="http://www.w3.org/2000/svg">
<path d="M24.8437 18.3625H41.7189C42.3386 18.3625 42.8408 18.8648 42.8408 19.4844C42.8408 20.104 42.3386 20.6062 41.7189 20.6062H24.8437C24.2241 20.6062 23.7219 20.104 23.7219 19.4844C23.7219 18.8648 24.2241 18.3625 24.8437 18.3625Z" fill="#61E5A1" stroke="white" stroke-width="0.1"/>
<path d="M36.7898 23.9875C37.0847 23.9875 37.3743 24.1076 37.5829 24.3162C37.7916 24.5248 37.9117 24.8144 37.9117 25.1094C37.9117 25.4043 37.7916 25.6939 37.5829 25.9025C37.3743 26.1111 37.0847 26.2312 36.7898 26.2312C36.4949 26.2312 36.2052 26.1111 35.9966 25.9025C35.788 25.6939 35.6679 25.4043 35.6679 25.1094C35.6679 24.8144 35.788 24.5248 35.9966 24.3162C36.2052 24.1076 36.4949 23.9875 36.7898 23.9875Z" fill="#61E5A1" stroke="white" stroke-width="0.1"/>
<path d="M24.8426 5.58906C25.1376 5.58906 25.4272 5.70917 25.6358 5.91778C25.8444 6.12638 25.9645 6.41601 25.9645 6.71093C25.9645 7.00586 25.8444 7.29549 25.6358 7.50409C25.4272 7.7127 25.1376 7.83281 24.8426 7.83281C24.5477 7.83281 24.2581 7.7127 24.0495 7.50409C23.8409 7.29549 23.7208 7.00586 23.7208 6.71093C23.7208 6.41601 23.8409 6.12638 24.0495 5.91778C24.2581 5.70917 24.5477 5.58906 24.8426 5.58906Z" fill="#61E5A1" stroke="white" stroke-width="0.1"/>
<path d="M24.8437 23.9875H31.8606C32.4802 23.9875 32.9824 24.4898 32.9824 25.1094C32.9824 25.729 32.4802 26.2312 31.8606 26.2312H24.8437C24.2241 26.2312 23.7219 25.729 23.7219 25.1094C23.7219 24.4898 24.2241 23.9875 24.8437 23.9875Z" fill="#61E5A1" stroke="white" stroke-width="0.1"/>
<path d="M24.8437 31.0188H41.7189C42.3386 31.0188 42.8408 31.521 42.8408 32.1406C42.8408 32.7602 42.3386 33.2625 41.7189 33.2625H24.8437C24.2241 33.2625 23.7219 32.7602 23.7219 32.1406C23.7219 31.521 24.2241 31.0188 24.8437 31.0188Z" fill="#61E5A1" stroke="white" stroke-width="0.1"/>
<path d="M36.7898 36.6438C37.0847 36.6438 37.3743 36.7639 37.5829 36.9725C37.7916 37.1811 37.9117 37.4707 37.9117 37.7656C37.9117 38.0605 37.7916 38.3502 37.5829 38.5588C37.3743 38.7674 37.0847 38.8875 36.7898 38.8875C36.4949 38.8875 36.2052 38.7674 35.9966 38.5588C35.788 38.3502 35.6679 38.0605 35.6679 37.7656C35.6679 37.4707 35.788 37.1811 35.9966 36.9725C36.2052 36.7639 36.4949 36.6438 36.7898 36.6438Z" fill="#61E5A1" stroke="white" stroke-width="0.1"/>
<path d="M24.8437 36.6438H31.8606C32.4802 36.6438 32.9824 37.146 32.9824 37.7656C32.9824 38.3852 32.4802 38.8875 31.8606 38.8875H24.8437C24.2241 38.8875 23.7219 38.3852 23.7219 37.7656C23.7219 37.146 24.2241 36.6438 24.8437 36.6438Z" fill="#61E5A1" stroke="white" stroke-width="0.1"/>
<path d="M24.8437 43.675H41.7189C42.3386 43.675 42.8408 44.1773 42.8408 44.7969C42.8408 45.4165 42.3386 45.9187 41.7189 45.9187H24.8437C24.2241 45.9187 23.7219 45.4165 23.7219 44.7969C23.7219 44.1773 24.2241 43.675 24.8437 43.675Z" fill="#61E5A1" stroke="white" stroke-width="0.1"/>
<path d="M36.7898 49.3C37.0847 49.3 37.3743 49.4201 37.5829 49.6287C37.7916 49.8373 37.9117 50.1269 37.9117 50.4219C37.9117 50.7168 37.7916 51.0064 37.5829 51.215C37.3743 51.4236 37.0847 51.5437 36.7898 51.5437C36.4949 51.5437 36.2052 51.4236 35.9966 51.215C35.788 51.0064 35.6679 50.7168 35.6679 50.4219C35.6679 50.1269 35.788 49.8373 35.9966 49.6287C36.2052 49.4201 36.4949 49.3 36.7898 49.3Z" fill="#61E5A1" stroke="white" stroke-width="0.1"/>
<path d="M24.8437 49.3H31.8606C32.4802 49.3 32.9824 49.8023 32.9824 50.4219C32.9824 51.0415 32.4802 51.5437 31.8606 51.5437H24.8437C24.2241 51.5437 23.7219 51.0415 23.7219 50.4219C23.7219 49.8023 24.2241 49.3 24.8437 49.3Z" fill="#61E5A1" stroke="white" stroke-width="0.1"/>
<path d="M34.9884 5.10662L35.0029 5.12042H35.0229H43.9736C47.0966 5.12042 49.6374 7.66127 49.6373 10.7842V54.7862C49.6373 57.9092 47.0964 60.45 43.9735 60.45H5.71382C2.59085 60.45 0.05 57.9092 0.05 54.7862V10.7842C0.05 7.66127 2.59085 5.12042 5.71382 5.12042H14.6619H14.6819L14.6964 5.10662C15.9814 3.88214 17.7181 3.12812 19.6287 3.12812H20.6578H20.6885L20.7024 3.10067C21.479 1.56352 23.0742 0.55 24.8436 0.55C26.613 0.55 28.2083 1.56352 28.9848 3.10066L28.9986 3.12812H29.0294H30.056C31.9666 3.12812 33.7034 3.88214 34.9884 5.10662ZM34.9021 9.9251H34.9565L34.9519 9.87092C34.7408 7.35491 32.6257 5.37187 30.056 5.37187H28.2319C27.7274 5.37187 27.2849 5.03496 27.1506 4.54864C26.8652 3.51525 25.9166 2.79375 24.8437 2.79375C23.7708 2.79375 22.8222 3.51525 22.5367 4.54863L22.5849 4.56195L22.5367 4.54864C22.4024 5.03497 21.96 5.37187 21.4553 5.37187H19.6289C17.0592 5.37187 14.944 7.35491 14.7329 9.87092L14.7283 9.9251H14.7827H34.9021ZM13.0659 7.43415L13.0964 7.36417H13.0201H5.71382C3.82796 7.36417 2.29375 8.89839 2.29375 10.7842V54.7863C2.29375 56.6722 3.82796 58.2064 5.71382 58.2064H43.9736C45.8594 58.2064 47.3937 56.6722 47.3937 54.7863V10.7842C47.3937 8.89839 45.8594 7.36417 43.9736 7.36417H36.6649H36.5885L36.619 7.43415C37.0003 8.30834 37.2131 9.27221 37.2131 10.2853V11.047C37.2131 11.6666 36.7108 12.1688 36.0912 12.1688H13.5937C12.9741 12.1688 12.4719 11.6666 12.4719 11.047V10.2853C12.4719 9.27209 12.6847 8.30834 13.0659 7.43415Z" fill="#61E5A1" stroke="white" stroke-width="0.1"/>
<path d="M10.7231 23.1126L10.6878 23.0772L9.14407 21.5334C8.70599 21.0955 7.99561 21.0954 7.5574 21.5334C7.5574 21.5334 7.55739 21.5334 7.55739 21.5334M10.7231 23.1126L7.52205 23.1554C7.06443 22.6977 7.06443 21.9557 7.52205 21.4981L7.55739 21.5334M10.7231 23.1126L10.7585 23.0772L15.7696 18.066C16.2077 17.628 16.9181 17.628 17.3562 18.0661C17.7943 18.5043 17.7943 19.2147 17.3562 19.6528L11.5164 25.4926L11.5164 25.4926C11.2974 25.7117 11.0103 25.8211 10.7231 25.8211C10.436 25.8211 10.149 25.7117 9.92986 25.4926L7.55741 23.1201M10.7231 23.1126L7.55741 23.1201M7.55739 21.5334C7.11931 21.9715 7.11931 22.6819 7.55741 23.1201M7.55739 21.5334L7.55741 23.1201" fill="#61E5A1" stroke="white" stroke-width="0.1"/>
<path d="M13.3594 49.3H13.4094V49.25V45.9687V45.9187H13.3594H10.0781H10.0281V45.9687V49.25V49.3H10.0781H13.3594ZM8.90625 43.675H14.5312C15.1509 43.675 15.6531 44.1773 15.6531 44.7969V50.4219C15.6531 51.0415 15.1509 51.5437 14.5312 51.5437H8.90625C8.28664 51.5437 7.78438 51.0415 7.78438 50.4219V44.7969C7.78438 44.1773 8.28664 43.675 8.90625 43.675Z" fill="#61E5A1" stroke="white" stroke-width="0.1"/>
<path d="M13.3594 36.6437H13.4094V36.5937V33.3125V33.2625H13.3594H10.0781H10.0281V33.3125V36.5937V36.6437H10.0781H13.3594ZM8.90625 31.0188H14.5312C15.1509 31.0188 15.6531 31.521 15.6531 32.1406V37.7656C15.6531 38.3852 15.1509 38.8875 14.5312 38.8875H8.90625C8.28664 38.8875 7.78438 38.3852 7.78438 37.7656V32.1406C7.78438 31.521 8.28664 31.0188 8.90625 31.0188Z" fill="#61E5A1" stroke="white" stroke-width="0.1"/>
</svg>
