<svg width="70" height="70" viewBox="0 0 70 70" fill="none" xmlns="http://www.w3.org/2000/svg">
<mask id="path-1-inside-1" fill="white">
<path d="M68.8654 47.4212H67.7365V11.2951C67.7347 9.49914 67.0204 7.77727 65.7505 6.50736C64.4806 5.23744 62.7587 4.52322 60.9628 4.52142H40.529C40.2699 3.24539 39.5776 2.09818 38.5694 1.27416C37.5613 0.450144 36.2992 0 34.9972 0C33.6951 0 32.4331 0.450144 31.4249 1.27416C30.4167 2.09818 29.7245 3.24539 29.4654 4.52142H9.03153C7.2356 4.52322 5.51373 5.23744 4.24382 6.50736C2.9739 7.77727 2.25968 9.49914 2.25788 11.2951V47.4212H1.12894C0.829527 47.4212 0.542377 47.5401 0.330659 47.7518C0.118942 47.9636 0 48.2507 0 48.5501V53.0659C0.0017926 54.5624 0.597076 55.9971 1.65528 57.0553C2.71347 58.1135 4.14819 58.7088 5.6447 58.7106H35.5899C35.2 59.7973 34.9995 60.9429 34.9972 62.0974V68.8711C34.9972 69.1705 35.1161 69.4576 35.3278 69.6693C35.5395 69.8811 35.8267 70 36.1261 70H63.2207C63.5201 70 63.8073 69.8811 64.019 69.6693C64.2307 69.4576 64.3496 69.1705 64.3496 68.8711V62.0974C64.3473 60.9429 64.1469 59.7973 63.7569 58.7106H64.3496C65.8462 58.7088 67.2809 58.1135 68.3391 57.0553C69.3973 55.9971 69.9925 54.5624 69.9943 53.0659V48.5501C69.9943 48.2507 69.8754 47.9636 69.6637 47.7518C69.452 47.5401 69.1648 47.4212 68.8654 47.4212ZM65.4786 11.2951V47.4212H58.408C58.6024 46.6842 58.7022 45.9255 58.7049 45.1633H62.0918C62.3912 45.1633 62.6783 45.0444 62.89 44.8326C63.1018 44.6209 63.2207 44.3338 63.2207 44.0344V10.1661C63.2207 9.86671 63.1018 9.57956 62.89 9.36785C62.6783 9.15613 62.3912 9.03719 62.0918 9.03719H39.4836C39.9972 8.3726 40.3545 7.60088 40.529 6.7793H60.9628C62.1605 6.7793 63.3091 7.25507 64.1559 8.10194C65.0028 8.94881 65.4786 10.0974 65.4786 11.2951ZM49.6734 51.9369C47.8775 51.9352 46.1556 51.2209 44.8857 49.951C43.6158 48.6811 42.9016 46.9592 42.8998 45.1633V42.9054C42.8998 41.1089 43.6134 39.386 44.8837 38.1157C46.154 36.8454 47.8769 36.1318 49.6734 36.1318C51.4699 36.1318 53.1928 36.8454 54.4631 38.1157C55.7334 39.386 56.447 41.1089 56.447 42.9054V45.1633C56.4453 46.9592 55.731 48.6811 54.4611 49.951C53.1912 51.2209 51.4693 51.9352 49.6734 51.9369ZM40.6419 42.9054H38.384V28.2292H60.9628V42.9054H58.7049C58.7029 41.3205 58.2838 39.764 57.4898 38.3923C56.6957 37.0206 55.5547 35.882 54.1813 35.0909C54.1813 35.0615 54.1892 35.0322 54.1892 35.0028C54.1892 33.8052 53.7134 32.6566 52.8665 31.8097C52.0197 30.9628 50.8711 30.4871 49.6734 30.4871C48.4757 30.4871 47.3271 30.9628 46.4803 31.8097C45.6334 32.6566 45.1576 33.8052 45.1576 35.0028C45.1576 35.0322 45.1644 35.0615 45.1655 35.0909C43.7921 35.882 42.6511 37.0206 41.857 38.3923C41.063 39.764 40.6439 41.3205 40.6419 42.9054ZM36.1261 11.2951V42.9054H9.03153V11.2951H36.1261ZM60.9628 25.9713H57.4744C57.2772 24.8171 56.7847 23.7335 56.0449 22.8259C55.305 21.9183 54.3429 21.2175 53.2521 20.7917C53.8563 20.0122 54.1857 19.0549 54.1892 18.0687C54.1892 16.8711 53.7134 15.7225 52.8665 14.8756C52.0197 14.0287 50.8711 13.5529 49.6734 13.5529C48.4757 13.5529 47.3271 14.0287 46.4803 14.8756C45.6334 15.7225 45.1576 16.8711 45.1576 18.0687C45.1611 19.0549 45.4905 20.0122 46.0947 20.7917C45.0039 21.2175 44.0418 21.9183 43.3019 22.8259C42.5621 23.7335 42.0696 24.8171 41.8724 25.9713H38.384V11.2951H60.9628V25.9713ZM49.6734 20.3266C49.2268 20.3266 48.7903 20.1942 48.419 19.9461C48.0477 19.698 47.7583 19.3453 47.5874 18.9328C47.4165 18.5202 47.3718 18.0662 47.4589 17.6282C47.546 17.1902 47.7611 16.7879 48.0768 16.4722C48.3926 16.1564 48.7949 15.9413 49.2329 15.8542C49.6709 15.7671 50.1249 15.8118 50.5375 15.9827C50.95 16.1536 51.3027 16.443 51.5508 16.8143C51.7989 17.1856 51.9313 17.6221 51.9313 18.0687C51.9313 18.6675 51.6934 19.2418 51.27 19.6653C50.8465 20.0887 50.2722 20.3266 49.6734 20.3266ZM48.5445 22.5845H50.8023C51.8006 22.5882 52.7694 22.9226 53.5574 23.5354C54.3455 24.1482 54.9082 25.0048 55.1578 25.9713H44.189C44.4386 25.0048 45.0013 24.1482 45.7894 23.5354C46.5774 22.9226 47.5462 22.5882 48.5445 22.5845ZM51.754 34.1256C50.3873 33.79 48.9595 33.79 47.5928 34.1256C47.7653 33.7163 48.0547 33.367 48.4248 33.1213C48.7949 32.8757 49.2292 32.7447 49.6734 32.7447C50.1176 32.7447 50.5519 32.8757 50.922 33.1213C51.2921 33.367 51.5815 33.7163 51.754 34.1256ZM34.9972 2.26354C35.667 2.26354 36.3218 2.46217 36.8788 2.83432C37.4357 3.20647 37.8698 3.73542 38.1262 4.35428C38.3825 4.97314 38.4496 5.65412 38.3189 6.3111C38.1882 6.96808 37.8657 7.57155 37.392 8.04521C36.9184 8.51886 36.3149 8.84143 35.6579 8.97211C35.0009 9.10279 34.32 9.03572 33.7011 8.77938C33.0822 8.52304 32.5533 8.08894 32.1811 7.53198C31.809 6.97502 31.6103 6.32021 31.6103 5.65036C31.6103 4.75212 31.9672 3.89067 32.6023 3.25552C33.2375 2.62037 34.0989 2.26354 34.9972 2.26354ZM4.51576 11.2951C4.51576 10.0974 4.99153 8.94881 5.8384 8.10194C6.68527 7.25507 7.83387 6.7793 9.03153 6.7793H29.4654C29.6395 7.60078 29.9964 8.3725 30.5096 9.03719H7.90259C7.60317 9.03719 7.31602 9.15613 7.1043 9.36785C6.89259 9.57956 6.77365 9.86671 6.77365 10.1661V44.0344C6.77365 44.3338 6.89259 44.6209 7.1043 44.8326C7.31602 45.0444 7.60317 45.1633 7.90259 45.1633H40.6419C40.6446 45.9255 40.7444 46.6842 40.9388 47.4212H4.51576V11.2951ZM5.6447 56.4527C4.74646 56.4527 3.88501 56.0959 3.24986 55.4607C2.61471 54.8256 2.25788 53.9641 2.25788 53.0659V49.6791H41.8634C42.3797 50.5695 43.0436 51.3659 43.8266 52.034C42.3956 52.2236 41.0213 52.7157 39.7952 53.4775C38.569 54.2394 37.5192 55.2536 36.7154 56.4527H5.6447ZM62.0918 67.7421H58.7049V63.2264H56.447V67.7421H42.8998V63.2264H40.6419V67.7421H37.2551V62.0974C37.2574 60.0022 38.0908 57.9936 39.5723 56.5121C41.0538 55.0306 43.0625 54.1972 45.1576 54.1948H54.1892C56.2843 54.1972 58.293 55.0306 59.7745 56.5121C61.256 57.9936 62.0894 60.0022 62.0918 62.0974V67.7421ZM67.7365 53.0659C67.7365 53.9641 67.3796 54.8256 66.7445 55.4607C66.1093 56.0959 65.2479 56.4527 64.3496 56.4527H62.6314C61.8275 55.2535 60.7775 54.2392 59.5511 53.4773C58.3248 52.7154 56.9503 52.2234 55.5191 52.034C56.3025 51.366 56.9667 50.5696 57.4834 49.6791H67.7365V53.0659Z"/>
</mask>
<path d="M68.8654 47.4212H67.7365V11.2951C67.7347 9.49914 67.0204 7.77727 65.7505 6.50736C64.4806 5.23744 62.7587 4.52322 60.9628 4.52142H40.529C40.2699 3.24539 39.5776 2.09818 38.5694 1.27416C37.5613 0.450144 36.2992 0 34.9972 0C33.6951 0 32.4331 0.450144 31.4249 1.27416C30.4167 2.09818 29.7245 3.24539 29.4654 4.52142H9.03153C7.2356 4.52322 5.51373 5.23744 4.24382 6.50736C2.9739 7.77727 2.25968 9.49914 2.25788 11.2951V47.4212H1.12894C0.829527 47.4212 0.542377 47.5401 0.330659 47.7518C0.118942 47.9636 0 48.2507 0 48.5501V53.0659C0.0017926 54.5624 0.597076 55.9971 1.65528 57.0553C2.71347 58.1135 4.14819 58.7088 5.6447 58.7106H35.5899C35.2 59.7973 34.9995 60.9429 34.9972 62.0974V68.8711C34.9972 69.1705 35.1161 69.4576 35.3278 69.6693C35.5395 69.8811 35.8267 70 36.1261 70H63.2207C63.5201 70 63.8073 69.8811 64.019 69.6693C64.2307 69.4576 64.3496 69.1705 64.3496 68.8711V62.0974C64.3473 60.9429 64.1469 59.7973 63.7569 58.7106H64.3496C65.8462 58.7088 67.2809 58.1135 68.3391 57.0553C69.3973 55.9971 69.9925 54.5624 69.9943 53.0659V48.5501C69.9943 48.2507 69.8754 47.9636 69.6637 47.7518C69.452 47.5401 69.1648 47.4212 68.8654 47.4212ZM65.4786 11.2951V47.4212H58.408C58.6024 46.6842 58.7022 45.9255 58.7049 45.1633H62.0918C62.3912 45.1633 62.6783 45.0444 62.89 44.8326C63.1018 44.6209 63.2207 44.3338 63.2207 44.0344V10.1661C63.2207 9.86671 63.1018 9.57956 62.89 9.36785C62.6783 9.15613 62.3912 9.03719 62.0918 9.03719H39.4836C39.9972 8.3726 40.3545 7.60088 40.529 6.7793H60.9628C62.1605 6.7793 63.3091 7.25507 64.1559 8.10194C65.0028 8.94881 65.4786 10.0974 65.4786 11.2951ZM49.6734 51.9369C47.8775 51.9352 46.1556 51.2209 44.8857 49.951C43.6158 48.6811 42.9016 46.9592 42.8998 45.1633V42.9054C42.8998 41.1089 43.6134 39.386 44.8837 38.1157C46.154 36.8454 47.8769 36.1318 49.6734 36.1318C51.4699 36.1318 53.1928 36.8454 54.4631 38.1157C55.7334 39.386 56.447 41.1089 56.447 42.9054V45.1633C56.4453 46.9592 55.731 48.6811 54.4611 49.951C53.1912 51.2209 51.4693 51.9352 49.6734 51.9369ZM40.6419 42.9054H38.384V28.2292H60.9628V42.9054H58.7049C58.7029 41.3205 58.2838 39.764 57.4898 38.3923C56.6957 37.0206 55.5547 35.882 54.1813 35.0909C54.1813 35.0615 54.1892 35.0322 54.1892 35.0028C54.1892 33.8052 53.7134 32.6566 52.8665 31.8097C52.0197 30.9628 50.8711 30.4871 49.6734 30.4871C48.4757 30.4871 47.3271 30.9628 46.4803 31.8097C45.6334 32.6566 45.1576 33.8052 45.1576 35.0028C45.1576 35.0322 45.1644 35.0615 45.1655 35.0909C43.7921 35.882 42.6511 37.0206 41.857 38.3923C41.063 39.764 40.6439 41.3205 40.6419 42.9054ZM36.1261 11.2951V42.9054H9.03153V11.2951H36.1261ZM60.9628 25.9713H57.4744C57.2772 24.8171 56.7847 23.7335 56.0449 22.8259C55.305 21.9183 54.3429 21.2175 53.2521 20.7917C53.8563 20.0122 54.1857 19.0549 54.1892 18.0687C54.1892 16.8711 53.7134 15.7225 52.8665 14.8756C52.0197 14.0287 50.8711 13.5529 49.6734 13.5529C48.4757 13.5529 47.3271 14.0287 46.4803 14.8756C45.6334 15.7225 45.1576 16.8711 45.1576 18.0687C45.1611 19.0549 45.4905 20.0122 46.0947 20.7917C45.0039 21.2175 44.0418 21.9183 43.3019 22.8259C42.5621 23.7335 42.0696 24.8171 41.8724 25.9713H38.384V11.2951H60.9628V25.9713ZM49.6734 20.3266C49.2268 20.3266 48.7903 20.1942 48.419 19.9461C48.0477 19.698 47.7583 19.3453 47.5874 18.9328C47.4165 18.5202 47.3718 18.0662 47.4589 17.6282C47.546 17.1902 47.7611 16.7879 48.0768 16.4722C48.3926 16.1564 48.7949 15.9413 49.2329 15.8542C49.6709 15.7671 50.1249 15.8118 50.5375 15.9827C50.95 16.1536 51.3027 16.443 51.5508 16.8143C51.7989 17.1856 51.9313 17.6221 51.9313 18.0687C51.9313 18.6675 51.6934 19.2418 51.27 19.6653C50.8465 20.0887 50.2722 20.3266 49.6734 20.3266ZM48.5445 22.5845H50.8023C51.8006 22.5882 52.7694 22.9226 53.5574 23.5354C54.3455 24.1482 54.9082 25.0048 55.1578 25.9713H44.189C44.4386 25.0048 45.0013 24.1482 45.7894 23.5354C46.5774 22.9226 47.5462 22.5882 48.5445 22.5845ZM51.754 34.1256C50.3873 33.79 48.9595 33.79 47.5928 34.1256C47.7653 33.7163 48.0547 33.367 48.4248 33.1213C48.7949 32.8757 49.2292 32.7447 49.6734 32.7447C50.1176 32.7447 50.5519 32.8757 50.922 33.1213C51.2921 33.367 51.5815 33.7163 51.754 34.1256ZM34.9972 2.26354C35.667 2.26354 36.3218 2.46217 36.8788 2.83432C37.4357 3.20647 37.8698 3.73542 38.1262 4.35428C38.3825 4.97314 38.4496 5.65412 38.3189 6.3111C38.1882 6.96808 37.8657 7.57155 37.392 8.04521C36.9184 8.51886 36.3149 8.84143 35.6579 8.97211C35.0009 9.10279 34.32 9.03572 33.7011 8.77938C33.0822 8.52304 32.5533 8.08894 32.1811 7.53198C31.809 6.97502 31.6103 6.32021 31.6103 5.65036C31.6103 4.75212 31.9672 3.89067 32.6023 3.25552C33.2375 2.62037 34.0989 2.26354 34.9972 2.26354ZM4.51576 11.2951C4.51576 10.0974 4.99153 8.94881 5.8384 8.10194C6.68527 7.25507 7.83387 6.7793 9.03153 6.7793H29.4654C29.6395 7.60078 29.9964 8.3725 30.5096 9.03719H7.90259C7.60317 9.03719 7.31602 9.15613 7.1043 9.36785C6.89259 9.57956 6.77365 9.86671 6.77365 10.1661V44.0344C6.77365 44.3338 6.89259 44.6209 7.1043 44.8326C7.31602 45.0444 7.60317 45.1633 7.90259 45.1633H40.6419C40.6446 45.9255 40.7444 46.6842 40.9388 47.4212H4.51576V11.2951ZM5.6447 56.4527C4.74646 56.4527 3.88501 56.0959 3.24986 55.4607C2.61471 54.8256 2.25788 53.9641 2.25788 53.0659V49.6791H41.8634C42.3797 50.5695 43.0436 51.3659 43.8266 52.034C42.3956 52.2236 41.0213 52.7157 39.7952 53.4775C38.569 54.2394 37.5192 55.2536 36.7154 56.4527H5.6447ZM62.0918 67.7421H58.7049V63.2264H56.447V67.7421H42.8998V63.2264H40.6419V67.7421H37.2551V62.0974C37.2574 60.0022 38.0908 57.9936 39.5723 56.5121C41.0538 55.0306 43.0625 54.1972 45.1576 54.1948H54.1892C56.2843 54.1972 58.293 55.0306 59.7745 56.5121C61.256 57.9936 62.0894 60.0022 62.0918 62.0974V67.7421ZM67.7365 53.0659C67.7365 53.9641 67.3796 54.8256 66.7445 55.4607C66.1093 56.0959 65.2479 56.4527 64.3496 56.4527H62.6314C61.8275 55.2535 60.7775 54.2392 59.5511 53.4773C58.3248 52.7154 56.9503 52.2234 55.5191 52.034C56.3025 51.366 56.9667 50.5696 57.4834 49.6791H67.7365V53.0659Z" fill="#61E5A1" stroke="white" stroke-width="0.6" mask="url(#path-1-inside-1)"/>
<path d="M34.0182 6.62912V4.67124H35.976V6.62912H34.0182Z" fill="#61E5A1" stroke="white" stroke-width="0.3"/>
<path d="M27.37 27.1455L27.1802 27.3436L27.4494 27.3965C29.2134 27.7427 30.8025 28.6902 31.9457 30.0774C33.0889 31.4646 33.7154 33.2055 33.7181 35.0031V39.5186C33.7181 39.7783 33.615 40.0273 33.4314 40.2108C33.2478 40.3944 32.9988 40.4976 32.7392 40.4976H12.4182C12.1586 40.4976 11.9096 40.3944 11.726 40.2108C11.5424 40.0272 11.4393 39.7783 11.4393 39.5186V35.003C11.4421 33.2054 12.0685 31.4646 13.2117 30.0774C14.3549 28.6902 15.9441 27.7427 17.708 27.3965L17.9773 27.3436L17.7874 27.1455C16.6115 25.9183 15.955 24.2842 15.9551 22.5845V20.3266C15.9551 18.5699 16.6529 16.8852 17.8951 15.643C19.1373 14.4008 20.822 13.703 22.5787 13.703C24.3354 13.703 26.0202 14.4008 27.2623 15.643C28.5045 16.8852 29.2024 18.5699 29.2024 20.3266V22.5845C29.2024 24.2842 28.546 25.9183 27.37 27.1455ZM24.9866 29.3582V29.2082H24.8366H20.3208H20.1708V29.3582C20.1708 29.9968 20.4245 30.6092 20.8761 31.0608C21.3277 31.5123 21.9401 31.766 22.5787 31.766C23.2173 31.766 23.8298 31.5123 24.2813 31.0608C24.7329 30.6092 24.9866 29.9968 24.9866 29.3582ZM13.3972 35.0026V35.0029V38.3897V38.5397H13.5472H15.8051H15.9551V38.3897V34.0239H17.913V38.3897V38.5397H18.063H27.0945H27.2445V38.3897V34.0239H29.2024V38.3897V38.5397H29.3524H31.6102H31.7602V38.3897V35.0029V35.0026C31.7582 33.6657 31.2947 32.3704 30.448 31.3357C29.6012 30.3011 28.4232 29.5905 27.1131 29.3241L26.9372 29.2883L26.9332 29.4677C26.9077 30.6057 26.4378 31.6885 25.6239 32.4843C24.8101 33.2802 23.717 33.7258 22.5787 33.7258C21.4404 33.7258 20.3474 33.2802 19.5335 32.4843C18.7197 31.6885 18.2497 30.6057 18.2242 29.4677L18.2202 29.2883L18.0444 29.3241C16.7342 29.5905 15.5562 30.3011 14.7095 31.3357C13.8628 32.3704 13.3992 33.6657 13.3972 35.0026ZM19.2795 17.0274C18.4045 17.9024 17.913 19.0892 17.913 20.3266V22.5845C17.913 23.8219 18.4045 25.0087 19.2795 25.8837C20.1545 26.7587 21.3413 27.2503 22.5787 27.2503C23.8162 27.2503 25.0029 26.7587 25.8779 25.8837C26.7529 25.0087 27.2445 23.8219 27.2445 22.5845V20.3266C27.2445 19.0892 26.7529 17.9024 25.8779 17.0274C25.0029 16.1524 23.8162 15.6609 22.5787 15.6609C21.3413 15.6609 20.1545 16.1524 19.2795 17.0274Z" fill="#61E5A1" stroke="white" stroke-width="0.3"/>
</svg>
