<svg width="81" height="72" viewBox="0 0 81 72" fill="none" xmlns="http://www.w3.org/2000/svg">
<path fill-rule="evenodd" clip-rule="evenodd" d="M61.4972 62.138C65.6822 63.0586 68.2567 64.3119 68.2567 65.6928C68.2567 68.5196 57.4706 70.8108 44.1655 70.8108C31.7417 70.8108 21.5157 68.8131 20.2148 66.247C24.596 67.2112 30.7415 67.8105 37.547 67.8105C50.8521 67.8105 61.6382 65.5189 61.6382 62.6922C61.6382 62.5052 61.5895 62.3198 61.4972 62.138Z" fill="#FFDC60"/>
<path d="M44.1654 59.8425C50.8647 59.8425 56.9425 60.4225 61.3521 61.3589C66.0699 62.3611 68.9887 63.8854 68.9887 65.693C68.9887 67.5005 66.0699 69.0244 61.3517 70.0266C56.9421 70.9638 50.8642 71.543 44.1654 71.543C37.4665 71.543 31.3879 70.9638 26.9786 70.0266C22.2604 69.0244 19.342 67.5005 19.342 65.693C19.342 63.8854 22.2604 62.3611 26.9786 61.3589C31.3879 60.4217 37.4665 59.8425 44.1654 59.8425ZM61.0487 62.7886C56.7397 61.8731 50.7708 61.3067 44.1654 61.3067C37.56 61.3067 31.5908 61.8727 27.2816 62.7886C23.2807 63.6383 20.8058 64.6737 20.8058 65.693C20.8058 66.7118 23.2807 67.7473 27.282 68.597C31.5911 69.5128 37.56 70.0793 44.1654 70.0793C50.7708 70.0793 56.7392 69.5128 61.0487 68.597C65.0496 67.7473 67.5241 66.7118 67.5241 65.693C67.5241 64.6737 65.0496 63.6383 61.0487 62.7886Z" fill="#1A1A1A"/>
<path fill-rule="evenodd" clip-rule="evenodd" d="M12.0435 46.8548H69.687V13.1951H76.4636V54.6621H55.7255L44.2359 66.4746L32.7815 54.6621H12.0435V46.8548Z" fill="#FFDC60"/>
<path fill-rule="evenodd" clip-rule="evenodd" d="M34.833 46.3018C36.1561 46.3018 37.4792 46.3018 38.8026 46.3018C38.8026 39.7724 38.8026 33.2438 38.8026 26.7152C44.6851 21.6472 48.253 15.392 46.4467 6.38132C45.0657 5.95388 43.8691 6.07861 42.8091 6.61262C43.7985 13.0627 42.3574 16.4924 40.1629 18.9861C38.3863 20.8383 36.6097 22.6902 34.833 24.5425C34.833 31.7952 34.833 39.0483 34.833 46.3018Z" fill="#FFDC60"/>
<path fill-rule="evenodd" clip-rule="evenodd" d="M34.8331 28.0793V22.7498H22.3694V47.251H27.891V28.1379L34.8331 28.0793Z" fill="#FFDC60"/>
<path d="M22.3693 22.0176H34.833C35.2371 22.0176 35.5651 22.3456 35.5651 22.7492V47.2508C35.5651 47.655 35.2371 47.9829 34.833 47.9829H22.3693C21.9653 47.9829 21.6372 47.655 21.6372 47.2508V22.7492C21.6372 22.3456 21.9653 22.0176 22.3693 22.0176ZM34.1009 23.4817H23.1017V46.5189H34.1009V23.4817Z" fill="#1A1A1A"/>
<path d="M29.8792 42.3639C29.8792 41.9595 30.2071 41.6315 30.6115 41.6315C31.0156 41.6315 31.3436 41.9595 31.3436 42.3639V43.8256C31.3436 44.2301 31.0156 44.5581 30.6115 44.5581C30.2071 44.5581 29.8792 44.2301 29.8792 43.8256V42.3639Z" fill="#1A1A1A"/>
<path d="M35.3592 25.0489C35.08 25.3392 34.6172 25.3479 34.3269 25.0687C34.0362 24.7894 34.0279 24.3268 34.3067 24.036L40.4027 17.6817C41.1478 16.6759 41.6707 15.4924 41.977 14.2069C42.3014 12.8434 42.3837 11.3698 42.2301 9.87321C42.1809 9.39234 42.1021 8.93884 42.0335 8.54426C41.948 8.04949 41.8771 7.63868 41.8818 7.24927C41.8981 5.94049 42.5133 5.39857 44.955 5.4295H44.9586C45.3036 5.43345 45.6316 5.46195 45.9402 5.51346C47.7061 5.80978 49.0826 6.84364 50.002 8.58665C50.8644 10.221 51.3108 12.4936 51.2787 15.3746C51.2629 16.8146 51.1287 18.4066 50.8696 20.1452H61.4006C62.9997 20.1452 64.1659 20.7509 64.8968 21.6449C65.3543 22.2043 65.6351 22.8749 65.7398 23.5781C65.8419 24.2653 65.7735 24.9887 65.5358 25.6715C65.2621 26.4587 64.7637 27.1911 64.0452 27.7537C64.3553 27.9675 64.6227 28.2167 64.8469 28.492C65.2675 29.0074 65.5337 29.6131 65.6526 30.2508C65.7691 30.8751 65.7437 31.5295 65.5857 32.1589C65.3959 32.9132 65.0136 33.6385 64.4539 34.2438C65.4423 35.8445 65.6118 37.1913 65.1115 38.3294C64.6572 39.3629 63.6581 40.1552 62.2289 40.7553C62.5509 41.4326 62.6947 42.1034 62.6947 42.7411C62.6947 43.4791 62.4995 44.1703 62.1639 44.7748C61.8319 45.3726 61.3606 45.8819 60.8045 46.2638C60.095 46.7507 59.2433 47.0339 58.3591 47.0339H34.8331C34.4291 47.0339 34.1011 46.7059 34.1011 46.3019C34.1011 45.8975 34.4291 45.5694 34.8331 45.5694H58.3591C58.9434 45.5694 59.5087 45.3809 59.9812 45.0569C60.354 44.8009 60.6686 44.4618 60.8884 44.0653C61.1043 43.6759 61.2303 43.2259 61.2303 42.7411C61.2303 42.1331 61.0298 41.4663 60.5632 40.7862C60.5267 40.7315 60.4967 40.6713 60.4745 40.606C60.3469 40.2241 60.5529 39.8101 60.9352 39.6825C62.417 39.1858 63.4161 38.5528 63.773 37.7404C64.1136 36.9652 63.8732 35.9249 62.9087 34.5559C62.6908 34.2442 62.7466 33.8124 63.0461 33.5691C63.6192 33.1017 63.9999 32.4691 64.1672 31.8044C64.2757 31.3718 64.2947 30.929 64.2175 30.5138C64.1426 30.1129 63.9762 29.7335 63.7144 29.4126C63.3871 29.0109 62.8987 28.6936 62.2376 28.5276C62.0075 28.4698 61.8098 28.3019 61.7254 28.0614C61.5911 27.6807 61.7907 27.2632 62.1714 27.129C63.2042 26.7645 63.8688 26.0206 64.1572 25.1915C64.3157 24.7355 64.3612 24.2507 64.2927 23.7896C64.2266 23.3439 64.0502 22.9208 63.7643 22.5711C63.2952 21.9983 62.5114 21.6093 61.4006 21.6093H50.0143L49.8943 21.5979C49.4962 21.5316 49.2277 21.1553 49.2938 20.7572C49.6313 18.7453 49.8032 16.946 49.8206 15.3628C49.8503 12.7313 49.4613 10.6921 48.7099 9.2672C48.0147 7.9501 46.9951 7.17169 45.7001 6.95498C45.4505 6.9134 45.1967 6.89079 44.9407 6.88805C43.6629 6.87183 43.3435 6.9855 43.34 7.2663C43.3373 7.50208 43.3994 7.8633 43.4747 8.29824C43.5447 8.70073 43.6252 9.16376 43.6826 9.72435C43.8533 11.3893 43.7623 13.0284 43.4013 14.5444C43.0468 16.0323 42.4333 17.4084 41.5539 18.5849L41.4936 18.6538L35.3592 25.0489Z" fill="#1A1A1A"/>
<path d="M56.5793 9.76099C56.1752 9.76099 55.8477 9.43303 55.8477 9.02891C55.8477 8.62531 56.1752 8.29725 56.5793 8.29725H68.3307C68.7348 8.29725 69.0624 8.62531 69.0624 9.02891C69.0624 9.43303 68.7348 9.76099 68.3307 9.76099H56.5793Z" fill="#1A1A1A"/>
<path d="M71.4871 9.76099C71.0831 9.76099 70.7551 9.43303 70.7551 9.02891C70.7551 8.62531 71.0831 8.29725 71.4871 8.29725H73.8662C74.2703 8.29725 74.5983 8.62531 74.5983 9.02891C74.5983 9.43303 74.2703 9.76099 73.8662 9.76099H71.4871Z" fill="#1A1A1A"/>
<path d="M42.9093 12.463C43.3137 12.463 43.6417 12.791 43.6417 13.195C43.6417 13.5991 43.3137 13.9271 42.9093 13.9271H12.7755V53.93H32.7815C32.9835 53.93 33.1666 54.0115 33.2988 54.1447L44.2538 65.0987L55.2078 54.1443C55.3405 54.0119 55.5235 53.93 55.7256 53.93H75.7316V13.9271H50.4713C50.0673 13.9271 49.7393 13.5991 49.7393 13.195C49.7393 12.791 50.0673 12.463 50.4713 12.463H76.4636C76.868 12.463 77.1956 12.791 77.1956 13.195V54.662C77.1956 55.0657 76.868 55.3936 76.4636 55.3936H56.029L44.771 66.652C44.4855 66.938 44.0216 66.938 43.736 66.652L32.4781 55.3936H12.0435C11.6394 55.3936 11.311 55.0657 11.311 54.662V13.195C11.311 12.791 11.6394 12.463 12.0435 12.463H42.9093Z" fill="#1A1A1A"/>
<path d="M74.9462 62.6179C74.6288 62.301 74.6288 61.786 74.9462 61.4687C75.2631 61.1518 75.778 61.1518 76.0953 61.4687L77.311 62.6848L78.5267 61.4687C78.844 61.1518 79.3589 61.1518 79.6762 61.4687C79.9936 61.786 79.9936 62.301 79.6762 62.6179L78.4606 63.834L79.6762 65.0501C79.9936 65.3674 79.9936 65.8824 79.6762 66.1993C79.3589 66.5166 78.844 66.5166 78.5267 66.1993L77.311 64.9832L76.0949 66.1993C75.7776 66.5166 75.2626 66.5166 74.9457 66.1993C74.6284 65.8824 74.6284 65.3674 74.9457 65.0501L76.1618 63.834L74.9462 62.6179Z" fill="#63E9A4"/>
<path d="M27.9896 1.47446C27.6723 1.15756 27.6723 0.642606 27.9896 0.325299C28.3065 0.0083971 28.8215 0.0083971 29.1388 0.325299L30.3545 1.54139L31.5705 0.325299C31.8878 0.0083971 32.4024 0.0083971 32.7197 0.325299C33.037 0.642606 33.037 1.15756 32.7197 1.47446L31.504 2.69055L32.7197 3.90664C33.037 4.22436 33.037 4.7389 32.7197 5.05621C32.4024 5.37352 31.8878 5.37352 31.5705 5.05621L30.3545 3.83971L29.1384 5.05621C28.8211 5.37352 28.3065 5.37352 27.9892 5.05621C27.6719 4.7389 27.6719 4.22436 27.9892 3.90664L29.2053 2.69055L27.9896 1.47446Z" fill="#63E9A4"/>
<path d="M0.633877 52.5583C0.316184 52.2414 0.316184 51.7264 0.633877 51.4091C0.950778 51.0922 1.46574 51.0922 1.78304 51.4091L2.99875 52.6252L4.21447 51.4091C4.53176 51.0922 5.04673 51.0922 5.36363 51.4091C5.68093 51.7264 5.68093 52.2414 5.36363 52.5583L4.14832 53.7744L5.36363 54.9906C5.68093 55.3079 5.68093 55.8228 5.36363 56.1397C5.04673 56.4573 4.53176 56.4573 4.21447 56.1397L2.99875 54.9235L1.78264 56.1397C1.46535 56.4573 0.950382 56.4573 0.633481 56.1397C0.316184 55.8228 0.316184 55.3079 0.633481 54.9906L1.8492 53.7744L0.633877 52.5583Z" fill="#63E9A4"/>
</svg>
