<svg width="55" height="70" viewBox="0 0 55 70" fill="none" xmlns="http://www.w3.org/2000/svg">
<path d="M42.473 51.1733H11.8328C11.2663 51.1733 10.8074 51.6323 10.8074 52.1987C10.8074 52.7652 11.2663 53.2241 11.8328 53.2241H42.4729C43.0393 53.2241 43.4983 52.7652 43.4983 52.1987C43.4983 51.6323 43.0393 51.1733 42.473 51.1733Z" fill="#61E5A1"/>
<path d="M43.3864 17.5161H10.9193C9.50916 17.5161 8.36182 18.6633 8.36182 20.0734V22.6409C8.36182 23.2073 8.82078 23.6663 9.38721 23.6663C9.95363 23.6663 10.4126 23.2073 10.4126 22.6409V20.0734C10.4126 19.7941 10.6398 19.5669 10.9193 19.5669H43.3865C43.6659 19.5669 43.8932 19.7941 43.8932 20.0734V34.6264C43.8932 34.9058 43.6659 35.133 43.3865 35.133H10.9193C10.6398 35.133 10.4126 34.9058 10.4126 34.6264V27.426C10.4126 26.8596 9.95363 26.4006 9.38721 26.4006C8.82078 26.4006 8.36182 26.8596 8.36182 27.426V34.6264C8.36182 36.0366 9.50916 37.1838 10.9193 37.1838H43.3865C44.7966 37.1838 45.944 36.0366 45.944 34.6264V20.0734C45.9438 18.6633 44.7966 17.5161 43.3864 17.5161Z" fill="#61E5A1"/>
<path d="M42.473 58.2795H11.8328C11.2663 58.2795 10.8074 58.7385 10.8074 59.3049C10.8074 59.8714 11.2663 60.3303 11.8328 60.3303H42.4729C43.0393 60.3303 43.4983 59.8714 43.4983 59.3049C43.4983 58.7385 43.0393 58.2795 42.473 58.2795Z" fill="#61E5A1"/>
<path d="M49.576 6.26745H48.451V3.5324C48.4508 1.5847 46.8661 0 44.9184 0C42.9707 0 41.386 1.5847 41.386 3.5324V6.26745H36.607V3.5324C36.607 1.5847 35.0225 0 33.0746 0C31.1268 0 29.5422 1.5847 29.5422 3.5324V6.26745H24.7632V3.5324C24.7632 1.5847 23.1787 0 21.231 0C19.2833 0 17.6986 1.5847 17.6986 3.5324V6.26745H12.9196V3.5324C12.9196 1.5847 11.3349 0 9.3872 0C7.43951 0 5.8548 1.5847 5.8548 3.5324V6.26745H4.72961C2.24434 6.26745 0.222412 8.28938 0.222412 10.7746V65.4928C0.222412 67.9779 2.24448 69.9999 4.72961 69.9999H43.2655C43.8319 69.9999 44.2909 69.5409 44.2909 68.9745C44.2909 68.4081 43.8319 67.9491 43.2655 67.9491H4.72961C3.37514 67.9491 2.27319 66.8471 2.27319 65.4927V10.7746C2.27319 9.42018 3.37514 8.31823 4.72961 8.31823H5.85467V11.0531C5.85467 13.0702 7.55681 14.7041 9.60663 14.578C11.4642 14.4622 12.9195 12.9178 12.9195 11.0531V8.31823H17.6985V11.0531C17.6985 13.0008 19.2832 14.5855 21.2309 14.5855C23.1785 14.5855 24.7632 13.0008 24.7632 11.0531V8.31823H29.5422V11.0531C29.5422 13.0008 31.1269 14.5855 33.0746 14.5855C35.0223 14.5855 36.607 13.0008 36.607 11.0531V8.31823H41.386V11.0531C41.386 13.0008 42.9707 14.5855 44.9184 14.5855C46.8661 14.5855 48.4508 13.0008 48.4508 11.0531V8.31823H49.5759C50.9303 8.31823 52.0323 9.42018 52.0323 10.7746V65.4928C52.0323 66.8473 50.9303 67.9492 49.5759 67.9492H48.0506C47.4842 67.9492 47.0253 68.4082 47.0253 68.9746C47.0253 69.541 47.4842 70 48.0506 70H49.5759C52.0611 70 54.0831 67.9781 54.0831 65.4928V10.7746C54.0832 8.28938 52.0613 6.26745 49.576 6.26745ZM10.8688 11.0531C10.8688 11.807 10.3006 12.4328 9.56835 12.5225C8.67121 12.6324 7.90572 11.9288 7.90572 11.0531C7.90572 10.1176 7.90558 4.46468 7.90558 3.5324C7.90558 2.71537 8.57017 2.05078 9.3872 2.05078C10.2042 2.05078 10.8688 2.71537 10.8688 3.5324V11.0531ZM22.7125 7.29024C22.7125 7.29106 22.7123 7.29202 22.7123 7.29284V11.0531C22.7123 11.87 22.0477 12.5346 21.2309 12.5346C20.414 12.5346 19.7495 11.8699 19.7495 11.0531V7.29284C19.7495 7.29188 19.7494 7.29106 19.7494 7.29024V3.5324C19.7494 2.71537 20.414 2.05078 21.231 2.05078C22.048 2.05078 22.7126 2.71537 22.7126 3.5324V7.29024H22.7125ZM34.5563 7.29024C34.5563 7.29106 34.5561 7.29202 34.5561 7.29284V11.0531C34.5561 11.87 33.8915 12.5346 33.0746 12.5346C32.2577 12.5346 31.5932 11.87 31.5932 11.0531V7.29284C31.5932 7.29188 31.593 7.29106 31.593 7.29024V3.5324C31.593 2.71537 32.2576 2.05078 33.0746 2.05078C33.8917 2.05078 34.5563 2.71537 34.5563 3.5324V7.29024ZM46.4 7.29024C46.4 7.29106 46.3999 7.29202 46.3999 7.29284V11.0531C46.3999 11.87 45.7353 12.5346 44.9184 12.5346C44.1015 12.5346 43.4369 11.87 43.4369 11.0531V7.29284C43.4369 7.29188 43.4368 7.29106 43.4368 7.29024V3.5324C43.4368 2.71537 44.1014 2.05078 44.9184 2.05078C45.7355 2.05078 46.4 2.71537 46.4 3.5324V7.29024Z" fill="#61E5A1"/>
</svg>
