<svg width="47" height="61" viewBox="0 0 47 61" fill="none" xmlns="http://www.w3.org/2000/svg">
<path d="M46.6394 14.3504L42.1508 9.86201V3.16696C42.1508 1.69637 40.9544 0.5 39.4837 0.5H2.63368C1.18149 0.5 0 1.68149 0 3.13368V47.3171C0 48.7693 1.18149 49.9508 2.63368 49.9508H4.12337V51.4184C4.12337 52.8706 5.30485 54.0521 6.75716 54.0521H12.4704C12.9558 54.0521 13.3493 53.6587 13.3493 53.1732C13.3493 52.6877 12.9558 52.2943 12.4704 52.2943H6.75716C6.27411 52.2943 5.88118 51.9014 5.88118 51.4184V16.0812C5.88118 15.5957 5.48767 15.2023 5.00228 15.2023C4.51688 15.2023 4.12337 15.5957 4.12337 16.0812V48.1929H2.63368C2.15075 48.1929 1.75782 47.8 1.75782 47.3171V3.13368C1.75782 2.65075 2.15075 2.25782 2.63368 2.25782H39.4838C39.9852 2.25782 40.3931 2.66563 40.3931 3.16696V8.10431L37.1473 4.8588C36.9825 4.69403 36.759 4.60145 36.5259 4.60145H6.75716C5.30485 4.60145 4.12337 5.78294 4.12337 7.23513V11.9898C4.12337 12.4753 4.51688 12.8687 5.00228 12.8687C5.48767 12.8687 5.88118 12.4753 5.88118 11.9898V7.23501C5.88118 6.75208 6.27411 6.35915 6.75716 6.35915H35.6469V14.9703C35.6469 15.4557 36.0403 15.8491 36.5257 15.8492L45.1391 15.8507V51.4183C45.1391 51.9012 44.7461 52.2942 44.2632 52.2942H38.6183C38.1329 52.2942 37.7394 52.6876 37.7394 53.1731C37.7394 53.6586 38.1329 54.052 38.6183 54.052H44.2632C45.7154 54.052 46.8969 52.8705 46.8969 51.4183V14.972C46.8969 14.7389 46.8043 14.5154 46.6394 14.3504ZM37.4047 14.0916V7.60205L43.8957 14.0927L37.4047 14.0916Z" fill="#61E5A1"/>
<path d="M36.045 21.0615H15.0189C14.5335 21.0615 14.14 21.4549 14.14 21.9404C14.14 22.4259 14.5335 22.8193 15.0189 22.8193H36.045C36.5304 22.8193 36.9239 22.4259 36.9239 21.9404C36.9239 21.4549 36.5304 21.0615 36.045 21.0615Z" fill="#61E5A1"/>
<path d="M36.045 26.2451H15.0189C14.5335 26.2451 14.14 26.6385 14.14 27.124C14.14 27.6095 14.5335 28.0029 15.0189 28.0029H36.045C36.5304 28.0029 36.9239 27.6095 36.9239 27.124C36.9239 26.6385 36.5304 26.2451 36.045 26.2451Z" fill="#61E5A1"/>
<path d="M36.0449 31.5312H31.891C31.4056 31.5312 31.0121 31.9246 31.0121 32.4102C31.0121 32.8957 31.4056 33.2891 31.891 33.2891H36.0449C36.5303 33.2891 36.9239 32.8957 36.9239 32.4102C36.9239 31.9246 36.5303 31.5312 36.0449 31.5312Z" fill="#61E5A1"/>
<path d="M27.7547 33.2891C28.24 33.2891 28.6336 32.8957 28.6336 32.4102C28.6336 31.9246 28.24 31.5312 27.7547 31.5312H15.0189C14.5335 31.5312 14.14 31.9246 14.14 32.4102C14.14 32.8957 14.5335 33.2891 15.0189 33.2891H27.7547Z" fill="#61E5A1"/>
<path d="M28.7539 48.6171L26.4108 46.2741V54.771C26.4108 55.2565 26.0173 55.6499 25.5319 55.6499C25.0465 55.6499 24.653 55.2565 24.653 54.771V46.2741L22.31 48.6171C21.9667 48.9602 21.4102 48.9603 21.0671 48.617C20.7238 48.2737 20.7238 47.7172 21.0671 47.3741L24.9105 43.5308C25.082 43.3592 25.307 43.2734 25.5319 43.2734C25.7568 43.2734 25.9818 43.3592 26.1534 43.5308L29.9968 47.3741C30.34 47.7173 30.34 48.2738 29.9968 48.617C29.6536 48.9602 29.0971 48.9601 28.7539 48.6171Z" fill="#61E5A1"/>
<path d="M25.5319 38.4229C19.4451 38.4229 14.493 43.3747 14.493 49.4614C14.493 55.5478 19.4451 60.4997 25.5319 60.4997C31.6188 60.4997 36.5709 55.5478 36.5709 49.4614C36.5709 43.3747 31.6188 38.4229 25.5319 38.4229ZM25.5319 58.742C20.4144 58.742 16.2508 54.5788 16.2508 49.4615C16.2508 44.3441 20.4144 40.1808 25.5319 40.1808C30.6495 40.1808 34.8131 44.3441 34.8131 49.4615C34.8131 54.5788 30.6495 58.742 25.5319 58.742Z" fill="#61E5A1"/>
</svg>
