<svg width="60" height="61" viewBox="0 0 60 61" fill="none" xmlns="http://www.w3.org/2000/svg">
<path d="M54.1724 26.5048C54.4083 27.1719 54.8724 27.7342 55.4827 28.0922C56.093 28.4502 56.8103 28.5809 57.5077 28.4613C58.2051 28.3416 58.8377 27.9793 59.2938 27.4383C59.7499 26.8973 60 26.2125 60 25.5049C60 24.7973 59.7499 24.1125 59.2938 23.5715C58.8377 23.0305 58.2051 22.6682 57.5077 22.5485C56.8103 22.4289 56.093 22.5596 55.4827 22.9176C54.8724 23.2757 54.4083 23.8379 54.1724 24.5051H51.9927V18.5059H54.1724C54.4083 19.173 54.8724 19.7353 55.4827 20.0933C56.093 20.4513 56.8103 20.5821 57.5077 20.4624C58.2051 20.3428 58.8377 19.9804 59.2938 19.4394C59.7499 18.8984 60 18.2136 60 17.506C60 16.7985 59.7499 16.1136 59.2938 15.5726C58.8377 15.0317 58.2051 14.6693 57.5077 14.5497C56.8103 14.43 56.093 14.5607 55.4827 14.9188C54.8724 15.2768 54.4083 15.8391 54.1724 16.5062H51.9927V11.5069C51.9927 11.2417 51.8874 10.9874 51.6998 10.7999C51.5123 10.6124 51.258 10.507 50.9928 10.507H44.9937V9.2272L47.3134 8.45731C47.5108 8.38843 47.6821 8.26018 47.8039 8.09013C47.9256 7.92009 47.9917 7.71656 47.9933 7.50744V6.32761C48.6604 6.09175 49.2226 5.62764 49.5807 5.01731C49.9387 4.40699 50.0694 3.68974 49.9498 2.99234C49.8301 2.29495 49.4678 1.6623 48.9268 1.20622C48.3858 0.750145 47.701 0.5 46.9934 0.5C46.2858 0.5 45.601 0.750145 45.06 1.20622C44.519 1.6623 44.1567 2.29495 44.037 2.99234C43.9174 3.68974 44.0481 4.40699 44.4061 5.01731C44.7642 5.62764 45.3264 6.09175 45.9935 6.32761V6.78754L43.6739 7.55744C43.4764 7.62631 43.3051 7.75456 43.1834 7.92461C43.0616 8.09466 42.9955 8.29819 42.994 8.5073V10.507H37.9947V6.32761C38.6618 6.09175 39.224 5.62764 39.5821 5.01731C39.9401 4.40699 40.0708 3.68974 39.9512 2.99234C39.8315 2.29495 39.4692 1.6623 38.9282 1.20622C38.3872 0.750145 37.7024 0.5 36.9948 0.5C36.2872 0.5 35.6024 0.750145 35.0614 1.20622C34.5204 1.6623 34.1581 2.29495 34.0384 2.99234C33.9188 3.68974 34.0495 4.40699 34.4075 5.01731C34.7656 5.62764 35.3278 6.09175 35.9949 6.32761V10.507H30.9956V8.5073C30.9941 8.29819 30.928 8.09466 30.8062 7.92461C30.6845 7.75456 30.5132 7.62631 30.3157 7.55744L27.9961 6.78754V6.32761C28.6632 6.09175 29.2254 5.62764 29.5835 5.01731C29.9415 4.40699 30.0722 3.68974 29.9526 2.99234C29.8329 2.29495 29.4706 1.6623 28.9296 1.20622C28.3886 0.750145 27.7038 0.5 26.9962 0.5C26.2886 0.5 25.6038 0.750145 25.0628 1.20622C24.5218 1.6623 24.1595 2.29495 24.0398 2.99234C23.9202 3.68974 24.0509 4.40699 24.4089 5.01731C24.767 5.62764 25.3292 6.09175 25.9963 6.32761V7.50744C25.9979 7.71656 26.064 7.92009 26.1858 8.09013C26.3075 8.26018 26.4788 8.38843 26.6763 8.45731L28.9959 9.2272V10.507H22.9968C22.7316 10.507 22.4773 10.6124 22.2898 10.7999C22.1023 10.9874 21.9969 11.2417 21.9969 11.5069V21.5055H20.9971V6.50758C20.9971 6.2424 20.8917 5.98809 20.7042 5.80058C20.5167 5.61307 20.2624 5.50772 19.9972 5.50772C16.2859 5.51169 12.7278 6.98776 10.1035 9.61204C7.47919 12.2363 6.00313 15.7945 5.99916 19.5058V26.0948L0.289959 31.794C0.105789 31.9847 0.00197401 32.2389 0 32.5039V35.5035C0 35.7687 0.105342 36.023 0.292852 36.2105C0.480362 36.398 0.73468 36.5034 0.99986 36.5034H5.99916V52.5011C5.99916 52.7663 6.1045 53.0206 6.29201 53.2081C6.47952 53.3956 6.73384 53.501 6.99902 53.501H12.9982C13.2142 53.499 13.4241 53.429 13.5981 53.301L15.9978 51.5113V59.5001C15.9978 59.7653 16.1031 60.0196 16.2906 60.2071C16.4781 60.3947 16.7324 60.5 16.9976 60.5H21.9969C22.1519 60.4989 22.3047 60.4623 22.4433 60.393C22.582 60.3237 22.7029 60.2234 22.7968 60.1001L31.7955 48.1017C31.9264 47.9292 31.9967 47.7184 31.9955 47.5018V40.5028H34.9951V59.5001C34.9951 59.7653 35.1004 60.0196 35.2879 60.2071C35.4754 60.3947 35.7298 60.5 35.9949 60.5H59.9916V58.5003H36.9948V40.5028H38.9945V55.5007C38.9945 55.7659 39.0999 56.0202 39.2874 56.2077C39.4749 56.3952 39.7292 56.5006 39.9944 56.5006H54.9923V54.5008H40.9942V40.5028H42.994V51.5013C42.994 51.7664 43.0993 52.0208 43.2868 52.2083C43.4743 52.3958 43.7286 52.5011 43.9938 52.5011H59.9916V50.5014H44.9937V40.5028H46.9934V47.5018C46.9934 47.767 47.0987 48.0213 47.2863 48.2088C47.4738 48.3963 47.7281 48.5017 47.9933 48.5017H54.9923V46.502H48.9931V40.5028H50.9928C51.258 40.5028 51.5123 40.3975 51.6998 40.21C51.8874 40.0224 51.9927 39.7681 51.9927 39.5029V34.5037H54.1724C54.4083 35.1708 54.8724 35.733 55.4827 36.0911C56.093 36.4491 56.8103 36.5798 57.5077 36.4602C58.2051 36.3405 58.8377 35.9782 59.2938 35.4372C59.7499 34.8962 60 34.2114 60 33.5038C60 32.7962 59.7499 32.1114 59.2938 31.5704C58.8377 31.0294 58.2051 30.6671 57.5077 30.5474C56.8103 30.4278 56.093 30.5585 55.4827 30.9165C54.8724 31.2745 54.4083 31.8368 54.1724 32.5039H51.9927V26.5048H54.1724ZM56.992 24.5051C57.1898 24.5051 57.3831 24.5637 57.5475 24.6736C57.7119 24.7834 57.8401 24.9396 57.9157 25.1223C57.9914 25.305 58.0112 25.506 57.9726 25.7C57.9341 25.8939 57.8388 26.0721 57.699 26.2119C57.5592 26.3518 57.381 26.447 57.1871 26.4856C56.9931 26.5241 56.7921 26.5043 56.6094 26.4287C56.4267 26.353 56.2705 26.2248 56.1606 26.0604C56.0508 25.896 55.9921 25.7027 55.9921 25.5049C55.9921 25.2397 56.0975 24.9854 56.285 24.7979C56.4725 24.6104 56.7268 24.5051 56.992 24.5051ZM56.992 16.5062C57.1898 16.5062 57.3831 16.5648 57.5475 16.6747C57.7119 16.7845 57.8401 16.9407 57.9157 17.1234C57.9914 17.3061 58.0112 17.5071 57.9726 17.7011C57.9341 17.8951 57.8388 18.0732 57.699 18.213C57.5592 18.3529 57.381 18.4481 57.1871 18.4867C56.9931 18.5253 56.7921 18.5055 56.6094 18.4298C56.4267 18.3541 56.2705 18.226 56.1606 18.0615C56.0508 17.8971 55.9921 17.7038 55.9921 17.506C55.9921 17.2409 56.0975 16.9865 56.285 16.799C56.4725 16.6115 56.7268 16.5062 56.992 16.5062ZM46.9934 2.50815C47.1912 2.50815 47.3845 2.56679 47.5489 2.67665C47.7133 2.78652 47.8415 2.94267 47.9171 3.12538C47.9928 3.30808 48.0126 3.50911 47.974 3.70307C47.9355 3.89702 47.8402 4.07518 47.7004 4.21501C47.5606 4.35484 47.3824 4.45007 47.1885 4.48865C46.9945 4.52723 46.7935 4.50743 46.6108 4.43175C46.4281 4.35608 46.2719 4.22792 46.162 4.0635C46.0522 3.89907 45.9935 3.70576 45.9935 3.508C45.9935 3.24283 46.0989 2.98851 46.2864 2.801C46.4739 2.61349 46.7282 2.50815 46.9934 2.50815ZM26.9962 4.50786C26.7985 4.50786 26.6051 4.44922 26.4407 4.33936C26.2763 4.22949 26.1481 4.07333 26.0725 3.89063C25.9968 3.70793 25.977 3.5069 26.0156 3.31294C26.0541 3.11899 26.1494 2.94083 26.2892 2.801C26.429 2.66116 26.6072 2.56594 26.8011 2.52736C26.9951 2.48878 27.1961 2.50858 27.3788 2.58425C27.5615 2.65993 27.7177 2.78809 27.8276 2.95251C27.9374 3.11694 27.9961 3.31025 27.9961 3.508C27.9961 3.77318 27.8907 4.0275 27.7032 4.21501C27.5157 4.40252 27.2614 4.50786 26.9962 4.50786ZM36.9948 2.50815C37.1926 2.50815 37.3859 2.56679 37.5503 2.67665C37.7147 2.78652 37.8429 2.94267 37.9186 3.12538C37.9942 3.30808 38.014 3.50911 37.9755 3.70307C37.9369 3.89702 37.8416 4.07518 37.7018 4.21501C37.562 4.35484 37.3838 4.45007 37.1899 4.48865C36.9959 4.52723 36.7949 4.50743 36.6122 4.43175C36.4295 4.35608 36.2733 4.22792 36.1635 4.0635C36.0536 3.89907 35.9949 3.70576 35.9949 3.508C35.9949 3.24283 36.1003 2.98851 36.2878 2.801C36.4753 2.61349 36.7296 2.50815 36.9948 2.50815ZM29.9958 47.1719L21.497 58.5003H17.9975V50.0315L23.5967 45.8621C23.7209 45.7689 23.8217 45.6482 23.8911 45.5093C23.9605 45.3705 23.9966 45.2174 23.9966 45.0622V40.5028H29.9958V47.1719ZM32.9954 38.5031H22.9968C22.7316 38.5031 22.4773 38.6084 22.2898 38.7959C22.1023 38.9835 21.9969 39.2378 21.9969 39.5029V44.5622L12.6682 51.5013H7.99888V35.5035C7.99888 35.2383 7.89353 34.984 7.70602 34.7965C7.51851 34.609 7.2642 34.5037 6.99902 34.5037H1.99972V32.9139L7.70892 27.2147C7.89309 27.024 7.9969 26.7698 7.99888 26.5048V19.5058C8.00258 16.4976 9.13444 13.6002 11.1708 11.3861C13.2072 9.17202 16 7.80225 18.9973 7.54744V22.5053C18.9973 22.7705 19.1027 23.0248 19.2902 23.2123C19.4777 23.3999 19.732 23.5052 19.9972 23.5052H32.9954V38.5031ZM33.9952 21.5055H27.9961V16.5062H45.9935V34.5037H34.9951V22.5053C34.9951 22.2402 34.8897 21.9858 34.7022 21.7983C34.5147 21.6108 34.2604 21.5055 33.9952 21.5055ZM49.993 38.5031H34.9951V36.5034H46.9934C47.2586 36.5034 47.5129 36.398 47.7004 36.2105C47.8879 36.023 47.9933 35.7687 47.9933 35.5035V15.5063C47.9933 15.2411 47.8879 14.9868 47.7004 14.7993C47.5129 14.6118 47.2586 14.5065 46.9934 14.5065H26.9962C26.731 14.5065 26.4767 14.6118 26.2892 14.7993C26.1017 14.9868 25.9963 15.2411 25.9963 15.5063V21.5055H23.9966V12.5067H49.993V38.5031ZM56.992 32.5039C57.1898 32.5039 57.3831 32.5626 57.5475 32.6724C57.7119 32.7823 57.8401 32.9385 57.9157 33.1212C57.9914 33.3039 58.0112 33.5049 57.9726 33.6989C57.9341 33.8928 57.8388 34.071 57.699 34.2108C57.5592 34.3506 57.381 34.4459 57.1871 34.4844C56.9931 34.523 56.7921 34.5032 56.6094 34.4275C56.4267 34.3519 56.2705 34.2237 56.1606 34.0593C56.0508 33.8949 55.9921 33.7015 55.9921 33.5038C55.9921 33.2386 56.0975 32.9843 56.285 32.7968C56.4725 32.6093 56.7268 32.5039 56.992 32.5039Z" fill="#61E5A1"/>
</svg>
