<svg width="61" height="61" viewBox="0 0 61 61" fill="none" xmlns="http://www.w3.org/2000/svg">
<path d="M56.568 0.5H11.3382C9.1739 0.5 7.41308 2.2607 7.41308 4.4251V12.4465C7.41308 12.936 7.80969 13.3326 8.29916 13.3326C8.78863 13.3326 9.18524 12.936 9.18524 12.4465V4.42499C9.18524 3.23787 10.1511 2.27204 11.3382 2.27204H56.568C57.7551 2.27204 58.721 3.23787 58.721 4.42499V34.5777C58.721 35.7649 57.7551 36.7307 56.568 36.7307H54.0427V35.5678C54.0427 35.1636 53.9257 34.7851 53.7243 34.4572H55.396C55.9758 34.4572 56.4475 33.9814 56.4475 33.3964V5.60643C56.4475 5.0215 55.9758 4.54561 55.396 4.54561H13.7985C13.2189 4.54561 12.7473 5.0215 12.7473 5.60643V31.9949L9.43535 35.5865C9.27207 35.2795 9.18536 34.9354 9.18536 34.5777V16.0817C9.18536 15.5922 8.78875 15.1956 8.29928 15.1956C7.8098 15.1956 7.41319 15.5922 7.41319 16.0817V21.806L1.37638 31.1716C-0.503175 34.0876 -0.454027 37.8233 1.50114 40.6889L5.34414 46.3206C5.88464 47.1127 6.18934 48.0382 6.22502 48.9967L6.46024 55.3031C6.4782 55.7814 6.87552 56.1712 7.3787 56.1556C7.86781 56.1374 8.24942 55.726 8.23122 55.2371L7.996 48.9307C7.9478 47.6381 7.53689 46.39 6.80782 45.3217L2.96495 39.69C1.41206 37.4143 1.37307 34.4476 2.86571 32.1318L7.41296 25.0771V34.5777C7.41296 35.4377 7.68812 36.2552 8.1959 36.9304L7.59537 37.5816C7.26362 37.9413 7.28643 38.5019 7.64617 38.8337C8.00581 39.1654 8.5664 39.1427 8.89827 38.7829L18.2074 28.6877C18.6526 28.2048 19.4259 28.1579 19.9223 28.643C20.306 29.018 20.3925 29.6078 20.1328 30.0773L14.5365 40.1885C14.1465 40.8929 14.2252 41.7497 14.7367 42.3712C15.8495 43.7231 16.1822 45.5897 15.605 47.2427C15.331 48.0275 15.1821 48.8468 15.1627 49.6781L15.0552 54.3027C15.0437 54.7978 15.4412 55.2095 15.9414 55.2095C16.4213 55.2095 16.8157 54.8262 16.8269 54.3441L16.9344 49.7195C16.9494 49.0736 17.0651 48.4369 17.2781 47.8269C18.0581 45.5936 17.6086 43.0714 16.1048 41.2446C16.0585 41.1883 16.0514 41.1106 16.0869 41.0466L17.4949 38.5027H36.017V40.7043L33.1964 39.331C32.0967 38.7958 30.7987 39.0639 29.9659 39.9983C28.8998 41.1946 28.9153 43.0527 30.0012 44.2285L35.3096 49.9756C35.7592 50.4622 36.017 51.1457 36.017 51.8508V59.6139C36.017 60.1034 36.4136 60.5 36.903 60.5C37.3925 60.5 37.7891 60.1034 37.7891 59.6139V51.8508C37.7891 50.6884 37.3709 49.5953 36.6115 48.7731L31.303 43.026C30.8446 42.5298 30.8381 41.6832 31.289 41.1774C31.5925 40.8367 32.0366 40.7374 32.4205 40.9243L36.5151 42.9179C37.1059 43.2038 37.789 42.7721 37.789 42.1213V26.9611C37.789 26.2154 38.3031 25.6088 38.9347 25.6088C39.5662 25.6088 40.0802 26.2155 40.0802 26.9611V35.5678V42.1214C40.0802 42.6108 40.4768 43.0075 40.9663 43.0075C41.4557 43.0075 41.8523 42.6108 41.8523 42.1214V35.5678C41.8523 35.3119 42.1439 35.0958 42.489 35.0958H43.507C43.852 35.0958 44.1436 35.3119 44.1436 35.5678V42.1214C44.1436 42.6108 44.5402 43.0075 45.0297 43.0075C45.5192 43.0075 45.9158 42.6108 45.9158 42.1214V35.5678C45.9158 35.3119 46.2073 35.0958 46.5524 35.0958H47.5704C47.9155 35.0958 48.207 35.3119 48.207 35.5678V42.1214C48.207 42.6108 48.6036 43.0075 49.093 43.0075C49.5825 43.0075 49.9791 42.6108 49.9791 42.1214V35.5678C49.9791 35.3119 50.2707 35.0958 50.6158 35.0958H51.6339C51.979 35.0958 52.2704 35.3119 52.2704 35.5678V42.1214C52.2704 42.2128 52.2906 42.328 52.3186 42.4095L53.1521 44.833C53.3467 45.3988 53.423 46.0169 53.3727 46.6205C53.3322 47.1082 53.6946 47.5365 54.1823 47.5772C54.2074 47.5793 54.2322 47.5801 54.2569 47.5801C54.7128 47.5801 55.1004 47.2302 55.139 46.7675C55.2094 45.9211 55.102 45.0528 54.828 44.2566L54.0427 41.9733V38.5029H56.568C58.7323 38.5029 60.4931 36.7421 60.4931 34.5777V4.42499C60.4931 2.2607 58.7323 0.5 56.568 0.5ZM18.4759 36.7307L19.7342 34.4572H36.0171V36.7307H18.4759ZM38.9349 23.8367C37.326 23.8367 36.0171 25.2383 36.0171 26.9611V27.9591H30.7112C29.6413 27.9591 28.7709 27.0887 28.7709 26.0188V20.3668C28.7709 19.2969 29.6413 18.4264 30.7112 18.4264H33.5476C34.0371 18.4264 34.4337 18.0298 34.4337 17.5403C34.4337 17.0508 34.0371 16.6542 33.5476 16.6542H30.7112C28.6643 16.6542 26.9988 18.3197 26.9988 20.3668V26.0188C26.9988 28.0658 28.6643 29.7312 30.7112 29.7312H36.0171V32.685H20.715L21.6835 30.9354C22.3283 29.7701 22.1134 28.3062 21.1609 27.3754C19.9644 26.2062 18.04 26.2552 16.9048 27.4863L14.5194 30.073V6.31777H54.6755V32.6851H41.8526V29.7314H47.2826C49.3297 29.7314 50.9952 28.0659 50.9952 26.0189V20.3669C50.9952 18.3198 49.3297 16.6543 47.2826 16.6543H37.183C36.6936 16.6543 36.297 17.0509 36.297 17.5404C36.297 18.0299 36.6936 18.4265 37.183 18.4265H47.2826C48.3525 18.4265 49.223 19.297 49.223 20.3669V26.0189C49.223 27.0888 48.3525 27.9592 47.2826 27.9592H41.8526V26.9612C41.8526 25.2383 40.5437 23.8367 38.9349 23.8367Z" fill="#61E5A1"/>
<path d="M11.8784 20.2219V18.7806C11.8784 18.2911 11.4818 17.8945 10.9923 17.8945C10.5028 17.8945 10.1062 18.2911 10.1062 18.7806V20.2219C10.1062 20.7113 10.5028 21.1079 10.9923 21.1079C11.4818 21.1079 11.8784 20.7113 11.8784 20.2219Z" fill="#61E5A1"/>
<path d="M53.2972 49.3158C52.8824 49.0561 52.3357 49.182 52.076 49.5967L50.9898 51.3321C50.4985 52.1166 50.239 53.0326 50.239 53.9807V59.6143C50.239 60.1038 50.6356 60.5004 51.125 60.5004C51.6145 60.5004 52.0111 60.1038 52.0111 59.6143V53.9807C52.0111 53.3655 52.1773 52.7748 52.4918 52.2724L53.5782 50.537C53.8379 50.1222 53.712 49.5755 53.2972 49.3158Z" fill="#61E5A1"/>
<path d="M38.9349 19.8516C38.4454 19.8516 38.0488 20.2482 38.0488 20.7376V21.4135C38.0488 21.903 38.4454 22.2996 38.9349 22.2996C39.4244 22.2996 39.821 21.903 39.821 21.4135V20.7376C39.821 20.2482 39.4244 19.8516 38.9349 19.8516Z" fill="#61E5A1"/>
<path d="M36.017 21.5553C35.6708 21.2094 35.1099 21.2094 34.7638 21.5553C34.4178 21.9015 34.4178 22.4625 34.7638 22.8085L35.2417 23.2864C35.588 23.6324 36.1488 23.6323 36.4949 23.2864C36.8409 22.9402 36.8409 22.3793 36.4949 22.0332L36.017 21.5553Z" fill="#61E5A1"/>
<path d="M42.6117 23.3264L43.0896 22.8485C43.4356 22.5024 43.4356 21.9414 43.0896 21.5954C42.7434 21.2495 42.1825 21.2495 41.8364 21.5954L41.3585 22.0733C41.0125 22.4194 41.0125 22.9804 41.3585 23.3264C41.7047 23.6724 42.2655 23.6722 42.6117 23.3264Z" fill="#61E5A1"/>
<path d="M21.1618 8.54395C21.1544 8.54395 21.1476 8.54395 21.1403 8.54395C18.6653 8.54395 16.6455 10.5519 16.6339 13.0298C16.6224 15.5147 18.6348 17.5458 21.1196 17.5574H21.1411C23.6161 17.5574 25.6359 15.5494 25.6475 13.0717C25.6531 11.8679 25.1895 10.734 24.3423 9.87886C23.4951 9.02373 22.3657 8.5495 21.1618 8.54395ZM21.141 15.7852C21.1367 15.7852 21.1324 15.7852 21.1281 15.7852C19.6202 15.7782 18.3993 14.5458 18.4063 13.0379C18.4134 11.5343 19.6388 10.3161 21.1407 10.3161H21.1536C21.8841 10.3194 22.5695 10.6072 23.0836 11.126C23.5977 11.6449 23.8789 12.3329 23.8754 13.0633C23.8683 14.5669 22.6429 15.7852 21.141 15.7852Z" fill="#61E5A1"/>
<path d="M48.8899 15.4763H48.9114C51.3864 15.4763 53.4062 13.4684 53.4177 10.9906C53.4294 8.5056 51.4171 6.47447 48.932 6.46289C48.9247 6.46289 48.9176 6.46289 48.9103 6.46289C47.7147 6.46289 46.5891 6.9259 45.7391 7.76803C44.8839 8.61524 44.4098 9.7447 44.4042 10.9486C44.3925 13.4336 46.4048 15.4648 48.8899 15.4763ZM46.9862 9.02686C47.502 8.516 48.1849 8.23505 48.9104 8.23505H48.9235C50.4314 8.24214 51.6524 9.4745 51.6453 10.9824C51.6383 12.486 50.4129 13.7042 48.9109 13.7042C48.9066 13.7042 48.9023 13.7042 48.898 13.7042C47.3901 13.6971 46.1691 12.4647 46.1762 10.9569C46.1796 10.2265 46.4674 9.54102 46.9862 9.02686Z" fill="#61E5A1"/>
</svg>
