<svg width="94" height="72" viewBox="0 0 94 72" fill="none" xmlns="http://www.w3.org/2000/svg">
<path fill-rule="evenodd" clip-rule="evenodd" d="M72.9136 50.7706H82.0559H72.9136ZM72.9136 1.43893H82.0559H72.9136ZM72.9136 1.43893H80.3204V50.771H72.9136V50.7706V50.7317V1.43893Z" fill="#FFDC60"/>
<path d="M11.4046 51.6257C10.9318 51.6257 10.5488 51.2428 10.5488 50.7704C10.5488 50.2981 10.9318 49.9151 11.4046 49.9151H12.532V2.29451H11.4046C10.9318 2.29451 10.5488 1.91154 10.5488 1.43878C10.5488 0.966434 10.9318 0.583458 11.4046 0.583458H82.0558C82.5282 0.583458 82.9112 0.966434 82.9112 1.43878C82.9112 1.91154 82.5282 2.29451 82.0558 2.29451H81.1761V49.9151H82.0558C82.5282 49.9151 82.9112 50.2981 82.9112 50.7704C82.9112 51.2428 82.5282 51.6257 82.0558 51.6257H11.4046ZM14.2428 49.9151H79.465V2.29451H14.2428V49.9151Z" fill="#1A1A1A"/>
<path fill-rule="evenodd" clip-rule="evenodd" d="M32.661 65.5684H26.4155L28.8368 42.1423H43.6959L45.8516 65.5684H39.3146L36.0475 48.1516L32.661 65.5684Z" fill="white"/>
<path d="M32.6611 66.423L26.4156 66.4238C25.9434 66.4238 25.5603 66.0408 25.5603 65.5685C25.5603 65.518 25.5653 65.4684 25.5731 65.4204L27.9882 42.0555C28.0329 41.6163 28.4047 41.2887 28.8369 41.2892L43.696 41.2871C44.1663 41.2871 44.548 41.6668 44.5514 42.1362L46.7005 65.4916C46.7426 65.9598 46.3968 66.3746 45.9283 66.4172L45.8517 66.4205L39.3147 66.4238C38.8754 66.4238 38.5135 66.0925 38.4651 65.6657L36.0332 52.7005L33.4995 65.7286C33.4216 66.138 33.0631 66.4226 32.6611 66.423ZM27.362 64.7128H31.9575L35.2093 47.9912C35.2734 47.657 35.5356 47.3795 35.8909 47.3129C36.3542 47.2264 36.8 47.5312 36.8864 47.9945L40.0224 64.7128H44.917L42.9189 42.9978H29.6062L27.362 64.7128Z" fill="#1A1A1A"/>
<path fill-rule="evenodd" clip-rule="evenodd" d="M28.5205 45.2042L28.837 42.1423H43.6961L45.8518 65.5684H42.3779L40.2545 45.4747L28.5205 45.2042Z" fill="#FFDC60"/>
<path fill-rule="evenodd" clip-rule="evenodd" d="M30.668 21.5341H35.9178V42.1423H30.668V21.5341Z" fill="#FFDC60"/>
<path fill-rule="evenodd" clip-rule="evenodd" d="M36.081 5.72042C38.9236 5.72042 41.2283 8.19044 41.2283 11.2384C41.2283 13.3254 40.1471 15.1419 38.5522 16.0791C38.7504 15.4926 38.8583 14.8603 38.8583 14.2005C38.8583 11.1531 36.5537 8.68311 33.711 8.68311C32.8156 8.68311 31.9731 8.92834 31.2397 9.3597C31.9569 7.23718 33.8537 5.72042 36.081 5.72042Z" fill="#FFDC60"/>
<path d="M49.794 57.2041C49.3217 57.2041 48.9387 56.8211 48.9387 56.3484C48.9387 55.876 49.3217 55.493 49.794 55.493H52.7228C53.1951 55.493 53.5782 55.876 53.5782 56.3484C53.5782 56.8211 53.1951 57.2041 52.7228 57.2041H49.794Z" fill="#1A1A1A"/>
<path fill-rule="evenodd" clip-rule="evenodd" d="M53.4855 39.9869C54.7519 39.9869 55.7785 41.0139 55.7785 42.2799C55.7785 43.5464 54.7519 44.573 53.4855 44.573C52.219 44.573 51.1924 43.5464 51.1924 42.2799C51.1924 41.0139 52.219 39.9869 53.4855 39.9869Z" fill="#FFDC60"/>
<path d="M53.4856 39.1318C54.3545 39.1318 55.142 39.4846 55.7115 40.0541L55.7628 40.1103C56.3021 40.6766 56.6339 41.4409 56.6339 42.2801C56.6339 43.1491 56.2815 43.9366 55.7115 44.5061C55.142 45.0761 54.3545 45.4285 53.4856 45.4285C52.619 45.4285 51.8323 45.0752 51.2612 44.5044C50.6895 43.9366 50.3372 43.1491 50.3372 42.2801C50.3372 41.4145 50.6895 40.6286 51.2595 40.0574L51.2628 40.0541C51.8353 39.4837 52.6207 39.1318 53.4856 39.1318ZM54.5021 41.2635C54.242 41.0038 53.8822 40.8424 53.4856 40.8424C53.0864 40.8424 52.7266 41.0025 52.4689 41.2602L52.4656 41.2635C52.2079 41.5212 52.0479 41.881 52.0479 42.2801C52.0479 42.6771 52.2092 43.037 52.4689 43.2967V43.3C52.7266 43.5577 53.0864 43.7178 53.4856 43.7178C53.8822 43.7178 54.242 43.5565 54.5021 43.2967C54.7619 43.037 54.9232 42.6771 54.9232 42.2801C54.9232 41.8992 54.7777 41.5534 54.5398 41.2986L54.5021 41.2635Z" fill="#1A1A1A"/>
<path fill-rule="evenodd" clip-rule="evenodd" d="M68.6697 33.3558C69.9357 33.3558 70.9623 34.3829 70.9623 35.6489C70.9623 36.9154 69.9357 37.9419 68.6697 37.9419C67.4028 37.9419 66.3767 36.9154 66.3767 35.6489C66.3767 34.3829 67.4028 33.3558 68.6697 33.3558Z" fill="#FFDC60"/>
<path d="M68.6697 32.5005C69.5346 32.5005 70.3208 32.8528 70.892 33.4228L70.8953 33.4261C71.4656 33.9986 71.8176 34.784 71.8176 35.6489C71.8176 36.514 71.4652 37.3003 70.8953 37.872L70.892 37.8753C70.3196 38.4457 69.5341 38.7976 68.6697 38.7976C67.804 38.7976 67.0177 38.4448 66.4466 37.8753L66.4433 37.872C65.8729 37.2992 65.521 36.5137 65.521 35.6489C65.521 34.7832 65.8738 33.9973 66.4433 33.4261L66.4466 33.4228C67.0194 32.8524 67.8044 32.5005 68.6697 32.5005ZM69.686 34.6289C69.4283 34.3712 69.0688 34.2111 68.6697 34.2111C68.2705 34.2111 67.9103 34.3712 67.653 34.6289L67.6498 34.6322C67.3917 34.8899 67.2321 35.2497 67.2321 35.6489C67.2321 36.0479 67.3917 36.4078 67.6498 36.6655L67.653 36.6687C67.9103 36.9265 68.2705 37.0865 68.6697 37.0865C69.0688 37.0865 69.4283 36.9265 69.686 36.6687L69.6893 36.6655C69.9469 36.4078 70.107 36.0479 70.107 35.6489C70.107 35.2497 69.9469 34.8899 69.6893 34.6322L69.686 34.6289Z" fill="#1A1A1A"/>
<path fill-rule="evenodd" clip-rule="evenodd" d="M60.9846 23.688C62.2511 23.688 63.2776 24.7145 63.2776 25.9809C63.2776 27.2474 62.2511 28.2739 60.9846 28.2739C59.7182 28.2739 58.6917 27.2474 58.6917 25.9809C58.6917 24.7145 59.7182 23.688 60.9846 23.688Z" fill="#FFDC60"/>
<path d="M60.9846 22.8325C61.8536 22.8325 62.641 23.1849 63.2106 23.7549L63.2619 23.8107C63.8012 24.3773 64.1329 25.1416 64.1329 25.9808C64.1329 26.8498 63.7801 27.6374 63.2106 28.2068C62.641 28.7768 61.8536 29.1292 60.9846 29.1292C60.1181 29.1292 59.3315 28.7756 58.7602 28.2052C58.1887 27.6374 57.8362 26.8498 57.8362 25.9808C57.8362 25.1152 58.1887 24.3293 58.7585 23.7582L58.7619 23.7549C59.3343 23.1845 60.1198 22.8325 60.9846 22.8325ZM62.0012 24.9642C61.741 24.7044 61.3812 24.5432 60.9846 24.5432C60.5854 24.5432 60.2256 24.7033 59.9679 24.9609L59.9646 24.9642C59.7069 25.2219 59.5469 25.5817 59.5469 25.9808C59.5469 26.3775 59.7082 26.7374 59.9679 26.9975V27.0008C60.2256 27.2584 60.5854 27.4185 60.9846 27.4185C61.3812 27.4185 61.741 27.2573 62.0012 26.9975C62.261 26.7374 62.4223 26.3775 62.4223 25.9808C62.4223 25.5995 62.2767 25.2542 62.0384 24.9993L62.0012 24.9642Z" fill="#1A1A1A"/>
<path d="M32.9523 71.3262H23.202C22.7297 71.3262 22.3467 70.9432 22.3467 70.4708C22.3467 68.9041 22.7301 67.7948 23.4025 66.9023C24.0482 66.0449 24.9341 65.4402 25.9914 64.8297C26.1253 64.7532 26.2713 64.7164 26.4156 64.7168V64.7127H32.9523C33.4246 64.7127 33.8076 65.0957 33.8076 65.5684V70.4708C33.8076 70.9432 33.4246 71.3262 32.9523 71.3262ZM24.112 69.6151H32.097V66.4237H26.6399C25.8553 66.8878 25.2059 67.3465 24.7655 67.9313C24.4362 68.3689 24.2099 68.9062 24.112 69.6151Z" fill="#1A1A1A"/>
<path d="M38.8553 71.3262H48.6056C49.078 71.3262 49.4609 70.9432 49.4609 70.4708C49.4609 68.9041 49.0775 67.7948 48.4051 66.9023C47.7594 66.0449 46.8735 65.4402 45.8163 64.8297C45.6823 64.7532 45.5363 64.7164 45.392 64.7168V64.7127H38.8553C38.383 64.7127 38 65.0957 38 65.5684V70.4708C38 70.9432 38.383 71.3262 38.8553 71.3262ZM47.6957 69.6151H39.7107V66.4237H45.1677C45.9523 66.8878 46.6017 67.3465 47.0422 67.9313C47.3715 68.3689 47.5977 68.9062 47.6957 69.6151Z" fill="#1A1A1A"/>
<path d="M36.773 21.7877V41.2871H42.8404V30.3662C42.8404 30.1127 42.9501 29.8856 43.1251 29.7288L58.9301 13.3647C59.9235 12.3687 60.1233 11.3496 59.8512 10.5728C59.7499 10.2833 59.5828 10.0232 59.3689 9.80972C59.1543 9.59636 58.8904 9.42801 58.5954 9.32298C57.8187 9.04503 56.8153 9.22122 55.8963 10.1406L46.7793 19.2581C45.883 20.1544 44.9623 20.7843 43.9617 21.1946C42.9588 21.6062 41.9 21.7877 40.729 21.7877H36.773ZM35.0623 41.2871V21.7877H28.3831C26.6835 21.7877 25.391 22.3576 24.5121 23.2812C23.5323 24.311 23.0339 25.8013 23.0339 27.4541V42.9025C23.0339 44.183 23.6527 45.1079 24.4566 45.5359C24.7677 45.7014 25.1056 45.7928 25.441 45.8006C25.7703 45.8081 26.1023 45.7349 26.4093 45.5723C27.2373 45.1347 27.9049 44.0391 27.9847 42.1092C28.0029 41.6497 28.3814 41.2895 28.8368 41.2895L35.0623 41.2871ZM43.6959 42.9977H29.6209C29.3475 45.1442 28.3805 46.4612 27.2047 47.0828C26.6363 47.3831 26.0205 47.5183 25.4075 47.5047C24.8016 47.491 24.2007 47.3302 23.6547 47.0394C22.337 46.338 21.3232 44.8791 21.3232 42.9025V27.4541C21.3232 25.3741 21.9809 23.4657 23.2754 22.1053C24.4691 20.8509 26.1789 20.077 28.3831 20.077H40.729C41.6894 20.077 42.5369 19.9364 43.3132 19.6179C44.0933 19.2974 44.8307 18.7874 45.5695 18.0483L54.6865 8.93131C56.1423 7.47543 57.8216 7.22968 59.1699 7.7124C59.6998 7.90182 60.1784 8.20792 60.5716 8.60043C60.9654 8.99294 61.2735 9.47396 61.4618 10.0116C61.9333 11.3579 61.6677 13.0437 60.1382 14.5728L44.5512 30.7087V42.1424C44.5512 42.6147 44.1682 42.9977 43.6959 42.9977Z" fill="#1A1A1A"/>
<path d="M29.6921 42.1425C29.6921 42.6148 29.3091 42.9978 28.8368 42.9978C28.3644 42.9978 27.9814 42.6148 27.9814 42.1425V31.5059C27.9814 31.0335 28.3644 30.6505 28.8368 30.6505C29.3091 30.6505 29.6921 31.0335 29.6921 31.5059V42.1425Z" fill="#1A1A1A"/>
<path d="M36.081 4.86507C37.7487 4.86507 39.2567 5.58761 40.3457 6.75486C41.4194 7.90591 42.0836 9.49202 42.0836 11.2383C42.0836 12.9841 41.4194 14.5698 40.3457 15.721C39.2567 16.8885 37.7487 17.6111 36.081 17.6111C34.4134 17.6111 32.9053 16.8885 31.8163 15.721C30.7427 14.5698 30.0784 12.9846 30.0784 11.2383C30.0784 9.49171 30.7427 7.90591 31.8163 6.75529C32.9053 5.58762 34.4134 4.86507 36.081 4.86507ZM39.0957 7.91787C38.3228 7.08902 37.2565 6.5757 36.081 6.5757C34.906 6.5757 33.8397 7.08902 33.0663 7.91787C32.2775 8.76377 31.789 9.93747 31.789 11.2383C31.789 12.5387 32.2775 13.7125 33.0663 14.5583C33.8393 15.3871 34.906 15.9004 36.081 15.9004C37.2565 15.9004 38.3228 15.3871 39.0957 14.5583C39.8849 13.7129 40.373 12.5387 40.373 11.2383C40.373 9.93747 39.8849 8.76334 39.0957 7.91787Z" fill="#1A1A1A"/>
<path d="M32.6611 66.423L26.4156 66.4238C25.9434 66.4238 25.5603 66.0408 25.5603 65.5685C25.5603 65.518 25.5653 65.4684 25.5731 65.4204L27.9882 42.0555C28.0329 41.6163 28.4047 41.2887 28.8369 41.2892L43.696 41.2871C44.1663 41.2871 44.548 41.6668 44.5514 42.1362L46.7005 65.4916C46.7426 65.9598 46.3968 66.3746 45.9283 66.4172L45.8517 66.4205L39.3147 66.4238C38.8754 66.4238 38.5135 66.0925 38.4651 65.6657L36.0332 52.7005L33.4995 65.7286C33.4216 66.138 33.0631 66.4226 32.6611 66.423ZM27.362 64.7128H31.9575L35.2093 47.9912C35.2734 47.657 35.5356 47.3795 35.8909 47.3129C36.3542 47.2264 36.8 47.5312 36.8864 47.9945L40.0224 64.7128H44.917L42.9189 42.9978H29.6062L27.362 64.7128Z" fill="#1A1A1A"/>
<path d="M64.5358 58.0743C64.2045 57.7435 64.2045 57.2058 64.5358 56.8745C64.8667 56.5433 65.4043 56.5433 65.7356 56.8745L67.0049 58.1439L68.2747 56.8745C68.606 56.5433 69.1433 56.5433 69.4745 56.8745C69.8058 57.2058 69.8058 57.7435 69.4745 58.0743L68.2052 59.3442L69.4745 60.6139C69.8058 60.9452 69.8058 61.4829 69.4745 61.8138C69.1433 62.1451 68.606 62.1451 68.2747 61.8138L67.0049 60.5441L65.7356 61.8138C65.4039 62.1451 64.8667 62.1451 64.5353 61.8138C64.204 61.4829 64.204 60.9452 64.5353 60.6139L65.8051 59.3442L64.5358 58.0743Z" fill="#63E9A4"/>
<path d="M87.4296 5.58689C87.0983 5.25601 87.0983 4.71823 87.4296 4.38703C87.7605 4.05573 88.2981 4.05573 88.6294 4.38703L89.8987 5.65635L91.1685 4.38703C91.4998 4.05573 92.037 4.05573 92.3683 4.38703C92.6997 4.71823 92.6997 5.25601 92.3683 5.58689L91.099 6.85663L92.3683 8.12637C92.6997 8.45768 92.6997 8.99535 92.3683 9.32623C92.037 9.65753 91.4998 9.65753 91.1685 9.32623L89.8987 8.05649L88.629 9.32623C88.2977 9.65753 87.7604 9.65753 87.4291 9.32623C87.0978 8.99535 87.0978 8.45768 87.4291 8.12637L88.6989 6.85663L87.4296 5.58689Z" fill="#63E9A4"/>
<path d="M19.3285 10.8868C18.9972 10.5559 18.9972 10.0183 19.3285 9.68697C19.6594 9.35566 20.197 9.35566 20.5284 9.68697L21.7977 10.9564L23.0674 9.68697C23.3987 9.35566 23.9361 9.35566 24.2673 9.68697C24.5986 10.0183 24.5986 10.5559 24.2673 10.8868L22.998 12.1566L24.2673 13.4264C24.5986 13.7577 24.5986 14.2954 24.2673 14.6263C23.9361 14.9576 23.3987 14.9576 23.0674 14.6263L21.7977 13.3565L20.5279 14.6263C20.1966 14.9576 19.6594 14.9576 19.3281 14.6263C18.9968 14.2954 18.9968 13.7577 19.3281 13.4264L20.5978 12.1566L19.3285 10.8868Z" fill="#63E9A4"/>
<path d="M0.779647 34.2054C0.448352 33.8745 0.448352 33.3368 0.779647 33.0055C1.11053 32.6746 1.64821 32.6746 1.97951 33.0055L3.24886 34.2752L4.51862 33.0055C4.84992 32.6746 5.38718 32.6746 5.71848 33.0055C6.04977 33.3368 6.04977 33.8745 5.71848 34.2054L4.44913 35.4751L5.71848 36.7448C6.04977 37.0761 6.04977 37.6138 5.71848 37.9451C5.38718 38.2764 4.84992 38.2764 4.51862 37.9451L3.24886 36.675L1.97909 37.9451C1.6478 38.2764 1.11053 38.2764 0.779234 37.9451C0.447938 37.6138 0.447938 37.0761 0.779234 36.7448L2.049 35.4751L0.779647 34.2054Z" fill="#63E9A4"/>
</svg>
