<svg width="65" height="61" viewBox="0 0 65 61" fill="none" xmlns="http://www.w3.org/2000/svg">
<path d="M30.0001 6.81543H7.26326C6.74006 6.81543 6.31586 7.2395 6.31586 7.76283V19.1313C6.31586 19.6546 6.74006 20.0787 7.26326 20.0787H30.0001C30.5233 20.0787 30.9475 19.6546 30.9475 19.1313V7.76283C30.9475 7.23963 30.5233 6.81543 30.0001 6.81543ZM29.0528 18.1839H8.21066V8.71024H29.0528V18.1839Z" fill="#61E5A1"/>
<path d="M61.2629 4.28961C61.2621 4.28961 61.2612 4.28974 61.2603 4.28974H37.1674C36.9838 3.38722 36.5401 2.55715 35.8736 1.8907C34.9781 0.995133 33.7894 0.501264 32.5263 0.5H4.73689C3.47377 0.501264 2.28512 0.995133 1.39082 1.8907C0.495133 2.785 0.00126438 3.97364 0 5.23676V6.69447C0 7.21742 0.424454 7.64188 0.947404 7.64188C1.46909 7.64188 1.89481 7.21742 1.89481 6.69447V5.23676C1.89481 4.48256 2.19168 3.77021 2.73107 3.22943C3.27046 2.69131 3.98281 2.39455 4.73702 2.39455H32.5263C33.2804 2.39455 33.9929 2.69143 34.5335 3.22943C35.0716 3.77008 35.3685 4.48243 35.3685 5.23676V50.7104C35.3685 51.4645 35.0716 52.1768 34.5335 52.7163C33.9929 53.2557 33.2805 53.5526 32.5263 53.5526H4.73689C3.98281 53.5526 3.27033 53.2556 2.73095 52.7163C2.19156 52.1769 1.89468 51.4646 1.89468 50.7104V50.7102V10.4838C1.89468 9.96215 1.46896 9.53643 0.947277 9.53643C0.424454 9.53643 0 9.96215 0 10.4838V50.7102V50.7104V55.7631C0 58.3751 2.12493 60.5 4.73689 60.5H32.5268C35.1388 60.5 37.2637 58.3751 37.2637 55.7631V50.7102C37.2637 50.707 37.2632 50.7037 37.2632 50.7005V33.9737H61.2581C61.2597 33.9737 61.2612 33.974 61.2629 33.974C63.1783 33.974 64.7365 32.4156 64.7365 30.5003V7.76313C64.7365 5.84784 63.1783 4.28961 61.2629 4.28961ZM35.3689 55.7632C35.3689 57.3303 34.094 58.6053 32.5268 58.6053H4.73689C3.16969 58.6053 1.89481 57.3303 1.89481 55.7632V54.4944C2.71059 55.1103 3.69833 55.4452 4.73689 55.4474H32.5263C33.5649 55.4452 34.5525 55.1104 35.3689 54.4946V55.7632ZM62.8418 30.5003C62.8418 31.3701 62.1348 32.0779 61.2654 32.0792C61.2645 32.0792 61.2638 32.079 61.2629 32.079H37.2631V16.2896H62.8417V30.5003H62.8418ZM62.8418 14.3951H37.2631V9.97391H62.8417V14.3951H62.8418ZM62.8418 8.07898H37.2631V6.1843H61.2627C61.2632 6.1843 61.2635 6.1843 61.264 6.1843C62.134 6.18493 62.8417 6.89298 62.8417 7.76313V8.07898H62.8418Z" fill="#61E5A1"/>
<path d="M59.9996 27.0264H54.947C54.4238 27.0264 53.9996 27.4504 53.9996 27.9738C53.9996 28.4971 54.4238 28.9212 54.947 28.9212H59.9996C60.5229 28.9212 60.947 28.4971 60.947 27.9738C60.947 27.4504 60.5229 27.0264 59.9996 27.0264Z" fill="#61E5A1"/>
<path d="M27.474 24.5C25.5585 24.5 24.0003 26.0584 24.0003 27.9736C24.0003 29.8889 25.5585 31.4473 27.474 31.4473C29.3892 31.4473 30.9476 29.8889 30.9476 27.9736C30.9476 26.0584 29.3892 24.5 27.474 24.5ZM27.474 29.5526C26.6033 29.5526 25.895 28.8443 25.895 27.9736C25.895 27.103 26.6033 26.3947 27.474 26.3947C28.3446 26.3947 29.0529 27.103 29.0529 27.9736C29.0529 28.8443 28.3446 29.5526 27.474 29.5526Z" fill="#61E5A1"/>
<path d="M18.6317 24.5C16.7163 24.5 15.1581 26.0584 15.1581 27.9736C15.1581 29.8889 16.7163 31.4473 18.6317 31.4473C20.5471 31.4473 22.1054 29.8889 22.1054 27.9736C22.1054 26.0584 20.5471 24.5 18.6317 24.5ZM18.6317 29.5526C17.7611 29.5526 17.0528 28.8443 17.0528 27.9736C17.0528 27.103 17.7611 26.3947 18.6317 26.3947C19.5024 26.3947 20.2107 27.103 20.2107 27.9736C20.2107 28.8443 19.5024 29.5526 18.6317 29.5526Z" fill="#61E5A1"/>
<path d="M9.7895 24.5C7.87409 24.5 6.31586 26.0584 6.31586 27.9736C6.31586 29.8889 7.87409 31.4473 9.7895 31.4473C11.7049 31.4473 13.2631 29.8889 13.2631 27.9736C13.2631 26.0584 11.7049 24.5 9.7895 24.5ZM9.7895 29.5526C8.91885 29.5526 8.21054 28.8443 8.21054 27.9736C8.21054 27.1031 8.91885 26.3947 9.7895 26.3947C10.6602 26.3947 11.3685 27.103 11.3685 27.9736C11.3685 28.8444 10.6602 29.5526 9.7895 29.5526Z" fill="#61E5A1"/>
<path d="M27.474 33.3428C25.5585 33.3428 24.0003 34.9011 24.0003 36.8164C24.0003 38.7317 25.5585 40.2901 27.474 40.2901C29.3892 40.2901 30.9476 38.7317 30.9476 36.8164C30.9476 34.9011 29.3892 33.3428 27.474 33.3428ZM27.474 38.3954C26.6033 38.3954 25.895 37.6871 25.895 36.8164C25.895 35.9458 26.6033 35.2375 27.474 35.2375C28.3446 35.2375 29.0529 35.9458 29.0529 36.8164C29.0529 37.6871 28.3446 38.3954 27.474 38.3954Z" fill="#61E5A1"/>
<path d="M18.6317 33.3428C16.7163 33.3428 15.1581 34.9011 15.1581 36.8164C15.1581 38.7317 16.7163 40.2901 18.6317 40.2901C20.5471 40.2901 22.1054 38.7317 22.1054 36.8164C22.1054 34.9011 20.5471 33.3428 18.6317 33.3428ZM18.6317 38.3954C17.7611 38.3954 17.0528 37.6871 17.0528 36.8164C17.0528 35.9458 17.7611 35.2375 18.6317 35.2375C19.5024 35.2375 20.2107 35.9458 20.2107 36.8164C20.2107 37.6871 19.5024 38.3954 18.6317 38.3954Z" fill="#61E5A1"/>
<path d="M9.7895 33.3428C7.87409 33.3428 6.31586 34.9011 6.31586 36.8164C6.31586 38.7317 7.87409 40.2901 9.7895 40.2901C11.7049 40.2901 13.2631 38.7317 13.2631 36.8164C13.2631 34.9011 11.7049 33.3428 9.7895 33.3428ZM9.7895 38.3954C8.91885 38.3954 8.21054 37.6871 8.21054 36.8164C8.21054 35.9459 8.91885 35.2375 9.7895 35.2375C10.6602 35.2375 11.3685 35.9458 11.3685 36.8164C11.3685 37.6871 10.6602 38.3954 9.7895 38.3954Z" fill="#61E5A1"/>
<path d="M27.474 42.1846C25.5585 42.1846 24.0003 43.7429 24.0003 45.6582C24.0003 47.5735 25.5585 49.1319 27.474 49.1319C29.3892 49.1319 30.9476 47.5735 30.9476 45.6582C30.9476 43.7429 29.3892 42.1846 27.474 42.1846ZM27.474 47.2372C26.6033 47.2372 25.895 46.5289 25.895 45.6582C25.895 44.7876 26.6033 44.0793 27.474 44.0793C28.3446 44.0793 29.0529 44.7876 29.0529 45.6582C29.0529 46.529 28.3446 47.2372 27.474 47.2372Z" fill="#61E5A1"/>
<path d="M18.6317 42.1846C16.7163 42.1846 15.1581 43.7429 15.1581 45.6582C15.1581 47.5735 16.7163 49.1319 18.6317 49.1319C20.5471 49.1319 22.1054 47.5735 22.1054 45.6582C22.1054 43.7429 20.5471 42.1846 18.6317 42.1846ZM18.6317 47.2372C17.7611 47.2372 17.0528 46.5289 17.0528 45.6582C17.0528 44.7876 17.7611 44.0793 18.6317 44.0793C19.5024 44.0793 20.2107 44.7876 20.2107 45.6582C20.2107 46.529 19.5024 47.2372 18.6317 47.2372Z" fill="#61E5A1"/>
<path d="M9.7895 42.1846C7.87409 42.1846 6.31586 43.7429 6.31586 45.6582C6.31586 47.5735 7.87409 49.1319 9.7895 49.1319C11.7049 49.1319 13.2631 47.5735 13.2631 45.6582C13.2631 43.7429 11.7049 42.1846 9.7895 42.1846ZM9.7895 47.2372C8.91885 47.2372 8.21054 46.5289 8.21054 45.6582C8.21054 44.7877 8.91885 44.0793 9.7895 44.0793C10.6602 44.0793 11.3685 44.7876 11.3685 45.6582C11.3685 46.529 10.6602 47.2372 9.7895 47.2372Z" fill="#61E5A1"/>
</svg>
