<svg width="70" height="70" viewBox="0 0 70 70" fill="none" xmlns="http://www.w3.org/2000/svg">
<g clip-path="url(#clip0)">
<path d="M34.9999 0C34.3556 0 33.8333 0.522375 33.8333 1.16667V8.16667C33.8333 8.81096 34.3556 9.33333 34.9999 9.33333C35.6442 9.33333 36.1666 8.81096 36.1666 8.16667V1.16667C36.1666 0.522375 35.6442 0 34.9999 0Z" fill="#61E5A1"/>
<path d="M30.4768 2.62725L30.2738 1.47808C30.1619 0.843413 29.5568 0.419475 28.9222 0.53133C28.2875 0.643184 27.8636 1.24825 27.9754 1.88291L28.1784 3.03208C28.2769 3.58916 28.7607 3.99531 29.3264 3.99575C29.3945 3.9956 29.4623 3.98977 29.5294 3.97825H29.5296C30.1642 3.86668 30.5883 3.26191 30.4768 2.62725Z" fill="#61E5A1"/>
<path d="M24.9235 3.90478L24.5245 2.80812C24.5195 2.79382 24.5144 2.77968 24.509 2.76553C24.2769 2.16441 23.6015 1.8653 23.0004 2.09747C22.3993 2.32964 22.1002 3.00499 22.3323 3.60612L22.7302 4.70162C22.8976 5.16303 23.336 5.47045 23.8268 5.47045C23.963 5.47045 24.0982 5.44668 24.2261 5.40016C24.8316 5.1798 25.1439 4.51028 24.9235 3.90478Z" fill="#61E5A1"/>
<path d="M14.8937 9.22592L14.1436 8.33225C13.7317 7.86165 13.0221 7.79938 12.5347 8.19123C12.0325 8.5949 11.9526 9.32917 12.3562 9.83142L13.1064 10.7251C13.3279 10.9896 13.655 11.1425 14.0001 11.1428C14.2745 11.1428 14.5402 11.0461 14.7504 10.8696C15.2439 10.4553 15.308 9.71942 14.8937 9.22592Z" fill="#61E5A1"/>
<path d="M10.7251 13.1064L9.83141 12.3562C9.34404 11.9645 8.63441 12.0266 8.22258 12.4972C7.7982 12.9821 7.84735 13.7192 8.33225 14.1435L9.22591 14.8937C9.43577 15.0699 9.70089 15.1664 9.97491 15.1667C10.3198 15.1667 10.6471 15.0142 10.8687 14.7501C11.283 14.2564 11.2186 13.5205 10.7251 13.1064Z" fill="#61E5A1"/>
<path d="M4.70159 22.7301L3.60609 22.3323C3.59209 22.3269 3.57779 22.3217 3.5635 22.3168C2.95392 22.1082 2.29052 22.4334 2.08198 23.0429C1.87329 23.6525 2.1985 24.3159 2.80808 24.5245L3.90475 24.9235C4.03221 24.9703 4.16681 24.9943 4.30259 24.9946C4.79623 24.9964 5.23752 24.6874 5.40465 24.2227C5.62267 23.6165 5.30796 22.9482 4.70159 22.7301Z" fill="#61E5A1"/>
<path d="M3.03208 28.1784L1.88291 27.9754C1.24825 27.8636 0.643184 28.2875 0.53133 28.9222C0.419475 29.5568 0.843413 30.1619 1.47808 30.2738L2.62725 30.4768C2.69433 30.4883 2.76214 30.4941 2.83025 30.4943C3.3971 30.4945 3.88214 30.0872 3.98 29.5288C4.09112 28.8942 3.66675 28.2895 3.03208 28.1784Z" fill="#61E5A1"/>
<path d="M3.97886 40.47C3.86701 39.8354 3.26195 39.4114 2.62728 39.5233L1.47811 39.7263C0.920154 39.824 0.513133 40.3084 0.512695 40.8749C0.512404 41.5192 1.03434 42.0418 1.67878 42.0421C1.74717 42.042 1.81557 42.0361 1.88295 42.0246L3.03211 41.8216C3.66678 41.7098 4.09072 41.1047 3.97886 40.47Z" fill="#61E5A1"/>
<path d="M5.39999 45.7748C5.17993 45.1692 4.51055 44.8565 3.9049 45.0766L2.80824 45.4756C2.34653 45.6431 2.03926 46.0819 2.03955 46.5732C2.04013 47.2175 2.5628 47.7395 3.20724 47.7389C3.3433 47.7386 3.47834 47.7145 3.60624 47.6677L4.70174 47.2699C5.30738 47.0498 5.62005 46.3805 5.39999 45.7748Z" fill="#61E5A1"/>
<path d="M10.8722 55.2136C10.4479 54.7287 9.71074 54.6796 9.22584 55.1038L8.33217 55.8541C8.06792 56.0758 7.91538 56.403 7.91553 56.7479C7.91567 57.3922 8.43805 57.9144 9.08234 57.9144C9.35636 57.9141 9.62149 57.8176 9.83134 57.6414L10.725 56.8913C10.7377 56.8811 10.7501 56.8707 10.7623 56.8599C11.2472 56.4357 11.2964 55.6987 10.8722 55.2136Z" fill="#61E5A1"/>
<path d="M14.7489 59.0962C14.2467 58.6926 13.5124 58.7725 13.1087 59.2747L12.3586 60.1684C12.183 60.3781 12.0866 60.6429 12.0864 60.9165C12.086 61.5608 12.6079 62.0836 13.2522 62.0841C13.597 62.0841 13.9242 61.9317 14.1459 61.6676L14.896 60.7739C14.9068 60.7616 14.9172 60.7491 14.9274 60.7364C15.3311 60.2343 15.2512 59.4999 14.7489 59.0962Z" fill="#61E5A1"/>
<path d="M24.2252 64.6002C23.6195 64.3802 22.9502 64.6928 22.7301 65.2985L22.3323 66.394C22.2857 66.522 22.2618 66.6571 22.262 66.7933C22.2621 67.4376 22.7846 67.9598 23.4289 67.9597C23.9191 67.9594 24.3567 67.6525 24.5244 67.192L24.9234 66.0953C25.1435 65.4897 24.8308 64.8203 24.2252 64.6002Z" fill="#61E5A1"/>
<path d="M29.5301 66.0211C28.8955 65.9092 28.2904 66.3332 28.1785 66.9678L27.9755 68.117V68.1171C27.8641 68.7518 28.2882 69.3566 28.9229 69.468C28.9898 69.4805 29.0578 69.4866 29.1259 69.4866C29.692 69.4861 30.1759 69.0793 30.2739 68.5218L30.4769 67.3727C30.5887 66.738 30.1648 66.1329 29.5301 66.0211Z" fill="#61E5A1"/>
<path d="M42.0246 68.117L41.8216 66.9678C41.7098 66.3332 41.1047 65.9092 40.47 66.0211C39.8354 66.1329 39.4114 66.738 39.5233 67.3727L39.7263 68.5218C39.8243 69.0793 40.3081 69.4861 40.8743 69.4866C40.9424 69.4866 41.0103 69.4805 41.0773 69.468H41.0774C41.7121 69.3564 42.1362 68.7517 42.0246 68.117Z" fill="#61E5A1"/>
<path d="M47.6677 66.394L47.2699 65.2985C47.0498 64.6928 46.3805 64.3802 45.7748 64.6002C45.1692 64.8203 44.8565 65.4897 45.0766 66.0953L45.4756 67.192C45.6433 67.6527 46.0809 67.9594 46.5711 67.9597C46.7073 67.9597 46.8425 67.9359 46.9704 67.8894C47.5759 67.669 47.8881 66.9995 47.6677 66.394Z" fill="#61E5A1"/>
<path d="M57.6417 60.1685L56.8915 59.2749C56.8813 59.2622 56.8709 59.2498 56.8602 59.2375C56.4359 58.7526 55.6987 58.7035 55.2138 59.1277C54.7289 59.552 54.6798 60.2891 55.1042 60.774L55.8543 61.6677C56.0753 61.9327 56.403 62.0854 56.748 62.0842C57.0216 62.0841 57.2864 61.9877 57.4961 61.8121C57.9902 61.3983 58.0554 60.6625 57.6417 60.1685Z" fill="#61E5A1"/>
<path d="M61.6677 55.8543L60.774 55.1041C60.7617 55.0935 60.7493 55.083 60.7367 55.0728C60.2344 54.6691 59.5001 54.749 59.0965 55.2513C58.6928 55.7535 58.7727 56.4878 59.275 56.8915L60.1686 57.6416C60.3785 57.8178 60.6436 57.9143 60.9176 57.9146C61.2625 57.9146 61.5898 57.7621 61.8115 57.498C62.2256 57.0043 62.1612 56.2685 61.6677 55.8543Z" fill="#61E5A1"/>
<path d="M67.192 45.4756L66.0953 45.0766C65.4897 44.8565 64.8203 45.1692 64.6002 45.7748C64.3802 46.3805 64.6928 47.0498 65.2985 47.2699L66.394 47.6677C66.5219 47.7145 66.6568 47.7386 66.793 47.7389C67.2842 47.7393 67.723 47.4321 67.8907 46.9702C68.1104 46.3646 67.7976 45.6953 67.192 45.4756Z" fill="#61E5A1"/>
<path d="M68.5218 39.7263L67.3727 39.5233C66.738 39.4114 66.1329 39.8354 66.0211 40.47C65.9092 41.1047 66.3332 41.7098 66.9678 41.8216L68.117 42.0246C68.1844 42.0361 68.2528 42.042 68.3212 42.0421C68.8876 42.0418 69.3719 41.6347 69.4697 41.0767C69.5809 40.442 69.1565 39.8374 68.5218 39.7263Z" fill="#61E5A1"/>
<path d="M69.4686 28.9222C69.3567 28.2875 68.7517 27.8636 68.117 27.9754L66.9679 28.1784C66.4095 28.2763 66.0023 28.7613 66.0024 29.3282C66.0027 29.9725 66.5253 30.4945 67.1697 30.4943C67.2378 30.4941 67.3056 30.4883 67.3727 30.4768L68.5219 30.2738C69.1565 30.1619 69.5804 29.5568 69.4686 28.9222Z" fill="#61E5A1"/>
<path d="M67.9024 23.0004C67.6704 22.3993 66.9949 22.1002 66.3938 22.3323L65.2983 22.7302C64.8338 22.8971 64.5246 23.3386 64.5264 23.8322C64.5287 24.4765 65.053 24.997 65.6973 24.9947C65.833 24.9944 65.9676 24.9703 66.0951 24.9235L67.1918 24.5245C67.2061 24.5197 67.2202 24.5144 67.2342 24.509C67.8353 24.2769 68.1344 23.6015 67.9024 23.0004Z" fill="#61E5A1"/>
<path d="M61.8087 12.5347C61.405 12.0325 60.6707 11.9526 60.1685 12.3562L59.2748 13.1064C59.0105 13.3281 58.858 13.6553 58.8582 14.0002C58.8583 14.6445 59.3807 15.1667 60.025 15.1667C60.299 15.1664 60.5641 15.0699 60.774 14.8937L61.6676 14.1436C62.1382 13.7317 62.2005 13.0221 61.8087 12.5347Z" fill="#61E5A1"/>
<path d="M57.5029 8.22252C57.018 7.79829 56.2809 7.84729 55.8566 8.33219L55.1064 9.22585C54.9299 9.436 54.8333 9.70171 54.8333 9.97617C54.8334 10.6205 55.3558 11.1428 56.0001 11.1427C56.3451 11.1424 56.6722 10.9896 56.8937 10.725L57.6439 9.83135C58.0358 9.34398 57.9735 8.63421 57.5029 8.22252Z" fill="#61E5A1"/>
<path d="M46.9572 2.08224C46.3476 1.87355 45.6842 2.19862 45.4756 2.8082L45.0766 3.90486C45.0301 4.03291 45.0062 4.16795 45.0063 4.30416C45.0065 4.94845 45.529 5.47068 46.1733 5.47053C46.6642 5.47053 47.1026 5.16312 47.27 4.7017L47.6678 3.6062C47.6732 3.5922 47.6783 3.57805 47.6833 3.56376C47.8918 2.95418 47.5667 2.29078 46.9572 2.08224Z" fill="#61E5A1"/>
<path d="M41.0777 0.53133C40.4431 0.419475 39.838 0.843413 39.7261 1.47808L39.5231 2.62725V2.62739C39.4117 3.26206 39.8358 3.86683 40.4705 3.97825C40.5376 3.98977 40.6054 3.9956 40.6735 3.99575C41.2392 3.99531 41.723 3.58916 41.8215 3.03208L42.0245 1.88291C42.1363 1.24825 41.7124 0.643184 41.0777 0.53133Z" fill="#61E5A1"/>
<path d="M21.4259 9.15725L19.0926 5.11591C18.7697 4.56525 18.0643 4.37625 17.5094 4.69168C16.9492 5.01018 16.7534 5.72243 17.0719 6.28258L19.4052 10.3239C19.6138 10.6853 19.9995 10.9077 20.4167 10.9072C20.6212 10.9071 20.8218 10.8531 20.9989 10.7509C21.5568 10.4288 21.748 9.7152 21.4259 9.15725Z" fill="#61E5A1"/>
<path d="M10.3227 19.4064L6.28136 17.073C5.72646 16.7576 5.02107 16.9466 4.69819 17.4973C4.3724 18.0532 4.55878 18.7679 5.11469 19.0937L9.15603 21.427C9.33336 21.5294 9.53461 21.5834 9.73936 21.5834C10.1562 21.5834 10.5413 21.361 10.7497 21C11.0718 20.4421 10.8807 19.7285 10.3227 19.4064Z" fill="#61E5A1"/>
<path d="M10.7549 48.9893C10.429 48.4335 9.71427 48.2471 9.15836 48.5731L5.11702 50.9064C4.75609 51.1148 4.53369 51.4999 4.53369 51.9167C4.53369 52.561 5.05592 53.0834 5.70036 53.0834C5.90525 53.0838 6.1065 53.0299 6.28369 52.9271L10.325 50.5937C10.3295 50.5911 10.3341 50.5885 10.3386 50.5858C10.8945 50.2599 11.0809 49.5452 10.7549 48.9893Z" fill="#61E5A1"/>
<path d="M20.9983 59.2386C20.4381 58.9201 19.7259 59.116 19.4074 59.6761L17.0741 63.7175C16.9718 63.8945 16.918 64.0952 16.9177 64.2996C16.917 64.9439 17.4388 65.4669 18.0832 65.4675C18.5005 65.4679 18.8862 65.2455 19.0947 64.8841L21.4281 60.8428C21.4307 60.8384 21.4332 60.8339 21.4358 60.8294C21.7543 60.2694 21.5583 59.5571 20.9983 59.2386Z" fill="#61E5A1"/>
<path d="M52.9258 63.7174L50.5924 59.6761C50.2696 59.1256 49.5643 58.9366 49.0095 59.252C48.4494 59.5703 48.2534 60.2826 48.5718 60.8427L50.9051 64.8841C51.1136 65.2455 51.4994 65.4679 51.9166 65.4674C52.1209 65.4673 52.3217 65.4133 52.4988 65.3111C53.0567 64.9889 53.2479 64.2754 52.9258 63.7174Z" fill="#61E5A1"/>
<path d="M64.8831 50.9064L60.8417 48.573C60.2868 48.2576 59.5816 48.4466 59.2588 48.9971C58.9329 49.5529 59.1193 50.2678 59.6751 50.5937L63.7164 52.927C63.8936 53.0298 64.0948 53.0838 64.2997 53.0834C64.7165 53.0834 65.1017 52.861 65.3101 52.5C65.6322 51.9421 65.441 51.2285 64.8831 50.9064Z" fill="#61E5A1"/>
<path d="M65.3096 17.5106C64.9911 16.9505 64.2788 16.7546 63.7187 17.0731L59.6773 19.4064C59.3164 19.6148 59.094 20 59.094 20.4168C59.094 21.0611 59.6162 21.5834 60.2607 21.5834C60.4654 21.5834 60.6667 21.5295 60.844 21.4271L64.8853 19.0938C65.436 18.7709 65.625 18.0655 65.3096 17.5106Z" fill="#61E5A1"/>
<path d="M52.504 4.69952C51.9482 4.37358 51.2333 4.55996 50.9074 5.11573L48.5741 9.15707C48.4718 9.33411 48.418 9.53477 48.4177 9.73923C48.417 10.3835 48.9389 10.9065 49.5832 10.9071C50.0005 10.9075 50.3862 10.6851 50.5947 10.3237L52.9281 6.2824C53.2435 5.7275 53.0545 5.02225 52.504 4.69952Z" fill="#61E5A1"/>
<path d="M8.16667 33.8333H1.16667C0.522375 33.8333 0 34.3556 0 34.9999C0 35.6442 0.522375 36.1666 1.16667 36.1666H8.16667C8.81096 36.1666 9.33333 35.6442 9.33333 34.9999C9.33333 34.3556 8.81096 33.8333 8.16667 33.8333Z" fill="#61E5A1"/>
<path d="M34.9999 60.6667C34.3556 60.6667 33.8333 61.1891 33.8333 61.8334V68.8334C33.8333 69.4777 34.3556 70.0001 34.9999 70.0001C35.6442 70.0001 36.1666 69.4777 36.1666 68.8334V61.8334C36.1666 61.1891 35.6442 60.6667 34.9999 60.6667Z" fill="#61E5A1"/>
<path d="M68.8333 33.8333H60.6667C60.0224 33.8333 59.5 34.3556 59.5 34.9999C59.5 35.6442 60.0224 36.1666 60.6667 36.1666H68.8333C69.4776 36.1666 70 35.6442 70 34.9999C70 34.3556 69.4776 33.8333 68.8333 33.8333Z" fill="#61E5A1"/>
<path d="M51.6005 18.4578C51.1449 18.0024 50.4064 18.0024 49.9509 18.4578L37.3684 31.0403C36.6584 30.634 35.8529 30.425 35.035 30.4348C34.265 30.4527 33.5116 30.662 32.8429 31.0438L26.8567 25.0576C26.4011 24.6001 25.661 24.5985 25.2035 25.0541C24.746 25.5097 24.7444 26.2498 25.2 26.7073L31.1384 32.6456C29.7661 34.8318 30.426 37.7165 32.6122 39.0888C34.7983 40.4611 37.6831 39.8012 39.0554 37.6149C40.009 36.0957 40.009 34.1648 39.0554 32.6456L51.6005 20.1075C52.056 19.6519 52.056 18.9134 51.6005 18.4578ZM36.8496 36.7239C35.9717 37.6671 34.4952 37.72 33.5519 36.8421C33.5286 36.8204 33.5058 36.7982 33.4834 36.7756C32.5586 35.8782 32.5365 34.4009 33.4339 33.4761C33.8644 33.0327 34.4532 32.7779 35.0712 32.7681C35.6914 32.7503 36.2917 32.9883 36.7314 33.4261C37.6746 34.304 37.7275 35.7806 36.8496 36.7239Z" fill="#61E5A1"/>
</g>
<defs>
<clipPath id="clip0">
<rect width="70" height="70" fill="white"/>
</clipPath>
</defs>
</svg>
