<svg width="609" height="469" viewBox="0 0 609 469" fill="none" xmlns="http://www.w3.org/2000/svg">
<ellipse cx="17.8592" cy="39.2646" rx="8.92962" ry="8.92381" fill="#61E5A1"/>
<ellipse rx="8.92962" ry="8.92381" transform="matrix(-1 0 0 1 574.175 8.92381)" fill="#61E5A1"/>
<ellipse rx="8.92962" ry="8.92381" transform="matrix(-1 0 0 1 600.07 189.185)" fill="#61E5A1"/>
<ellipse rx="8.92962" ry="8.92381" transform="matrix(-1 0 0 1 550.065 364.091)" fill="#61E5A1"/>
<ellipse rx="8.92962" ry="8.92381" transform="matrix(-1 0 0 1 8.92964 459.576)" fill="#61E5A1"/>
<ellipse rx="8.92962" ry="8.92381" transform="matrix(-1 0 0 1 183.057 314.118)" fill="#61E5A1"/>
<ellipse cx="175.02" cy="157.952" rx="8.92962" ry="8.92381" fill="#61E5A1"/>
<ellipse rx="8.92962" ry="8.92381" transform="matrix(-1 0 0 1 399.154 149.028)" fill="#61E5A1"/>
<path d="M17.8592 38.3725L175.021 157.952M399.6 149.474L574.621 9.37012M600.07 189.185L550.511 364.092L357.631 285.562M182.611 314.118L8.92963 459.13" stroke="#61E5A1"/>
<ellipse rx="8.92962" ry="8.92381" transform="matrix(-1 0 0 1 358.078 285.562)" fill="#61E5A1"/>
</svg>
